Varta-Bold.ufo
<glyph name="exclam" format="2">
  <advance width="632"/>
  <unicode hex="0021"/>
  <outline>
    <contour>
      <point x="243" y="432" type="line"/>
      <point x="389" y="432" type="line"/>
      <point x="420" y="1149" type="line"/>
      <point x="426" y="1372" type="line"/>
      <point x="206" y="1372" type="line"/>
      <point x="212" y="1149" type="line"/>
    </contour>
    <contour>
      <point x="316" y="-25" type="curve" smooth="yes"/>
      <point x="397" y="-25"/>
      <point x="461" y="40"/>
      <point x="461" y="126" type="curve" smooth="yes"/>
      <point x="461" y="215"/>
      <point x="397" y="279"/>
      <point x="316" y="279" type="curve" smooth="yes"/>
      <point x="235" y="279"/>
      <point x="171" y="215"/>
      <point x="171" y="126" type="curve" smooth="yes"/>
      <point x="171" y="40"/>
      <point x="235" y="-25"/>
    </contour>
  </outline>
</glyph>
<glyph name="parenleft" format="2">
  <advance width="653"/>
  <unicode hex="0028"/>
  <outline>
    <contour>
      <point x="567" y="-303" type="line"/>
      <point x="412" y="-40"/>
      <point x="342" y="228"/>
      <point x="342" y="569" type="curve" smooth="yes"/>
      <point x="342" y="911"/>
      <point x="412" y="1179"/>
      <point x="567" y="1441" type="curve"/>
      <point x="430" y="1501" type="line"/>
      <point x="260" y="1225"/>
      <point x="160" y="975"/>
      <point x="160" y="569" type="curve" smooth="yes"/>
      <point x="160" y="163"/>
      <point x="260" y="-86"/>
      <point x="430" y="-363" type="curve"/>
    </contour>
  </outline>
</glyph>
<glyph name="asterisk" format="2">
  <advance width="887"/>
  <unicode hex="002A"/>
  <outline>
    <contour>
      <point x="606" y="790" type="line"/>
      <point x="703" y="861" type="line"/>
      <point x="576" y="1076" type="line"/>
      <point x="796" y="1168" type="line"/>
      <point x="759" y="1283" type="line"/>
      <point x="525" y="1229" type="line"/>
      <point x="504" y="1474" type="line"/>
      <point x="382" y="1474" type="line"/>
      <point x="360" y="1229" type="line"/>
      <point x="127" y="1285" type="line"/>
      <point x="90" y="1170" type="line"/>
      <point x="310" y="1076" type="line"/>
      <point x="184" y="864" type="line"/>
      <point x="282" y="792" type="line"/>
      <point x="444" y="983" type="line"/>
    </contour>
  </outline>
</glyph>
<glyph name="comma" format="2">
  <advance width="550"/>
  <unicode hex="002C"/>
  <outline>
    <contour>
      <point x="144" y="-387" type="line"/>
      <point x="338" y="-317"/>
      <point x="451" y="-147"/>
      <point x="451" y="48" type="curve" smooth="yes"/>
      <point x="451" y="192"/>
      <point x="390" y="279"/>
      <point x="283" y="279" type="curve" smooth="yes"/>
      <point x="202" y="279"/>
      <point x="134" y="226"/>
      <point x="134" y="141" type="curve" smooth="yes"/>
      <point x="134" y="52"/>
      <point x="202" y="3"/>
      <point x="279" y="3" type="curve" smooth="yes"/>
      <point x="285" y="3"/>
      <point x="291" y="3"/>
      <point x="298" y="5" type="curve"/>
      <point x="298" y="-104"/>
      <point x="224" y="-213"/>
      <point x="95" y="-265" type="curve"/>
    </contour>
  </outline>
</glyph>
<glyph name="slash" format="2">
  <advance width="708"/>
  <unicode hex="002F"/>
  <outline>
    <contour>
      <point x="23" y="-328" type="line"/>
      <point x="175" y="-328" type="line"/>
      <point x="669" y="1454" type="line"/>
      <point x="518" y="1454" type="line"/>
    </contour>
  </outline>
</glyph>
<glyph name="one" format="2">
  <advance width="1042"/>
  <unicode hex="0031"/>
  <outline>
    <contour>
      <point x="155" y="0" type="line"/>
      <point x="926" y="0" type="line"/>
      <point x="926" y="175" type="line"/>
      <point x="668" y="175" type="line"/>
      <point x="668" y="1343" type="line"/>
      <point x="501" y="1343" type="line"/>
      <point x="422" y="1295"/>
      <point x="335" y="1261"/>
      <point x="207" y="1238" type="curve"/>
      <point x="207" y="1094" type="line"/>
      <point x="448" y="1108" type="line"/>
      <point x="448" y="175" type="line"/>
      <point x="155" y="175" type="line"/>
    </contour>
  </outline>
</glyph>
<glyph name="three" format="2">
  <advance width="1042"/>
  <unicode hex="0033"/>
  <outline>
    <contour>
      <point x="666" y="692" type="line"/>
      <point x="806" y="747"/>
      <point x="895" y="863"/>
      <point x="895" y="1011" type="curve" smooth="yes"/>
      <point x="895" y="1229"/>
      <point x="736" y="1365"/>
      <point x="487" y="1365" type="curve" smooth="yes"/>
      <point x="331" y="1365"/>
      <point x="202" y="1307"/>
      <point x="94" y="1209" type="curve"/>
      <point x="208" y="1073" type="line"/>
      <point x="287" y="1149"/>
      <point x="371" y="1191"/>
      <point x="473" y="1191" type="curve" smooth="yes"/>
      <point x="599" y="1191"/>
      <point x="673" y="1114"/>
      <point x="673" y="995" type="curve" smooth="yes"/>
      <point x="673" y="870"/>
      <point x="592" y="761"/>
      <point x="328" y="761" type="curve"/>
      <point x="328" y="600" type="line"/>
      <point x="631" y="600"/>
      <point x="719" y="505"/>
      <point x="719" y="365" type="curve" smooth="yes"/>
      <point x="719" y="231"/>
      <point x="621" y="155"/>
      <point x="475" y="155" type="curve" smooth="yes"/>
      <point x="338" y="155"/>
      <point x="234" y="221"/>
      <point x="156" y="301" type="curve"/>
      <point x="50" y="160" type="line"/>
      <point x="140" y="58"/>
      <point x="283" y="-25"/>
      <point x="493" y="-25" type="curve" smooth="yes"/>
      <point x="747" y="-25"/>
      <point x="939" y="123"/>
      <point x="939" y="358" type="curve" smooth="yes"/>
      <point x="939" y="533"/>
      <point x="820" y="645"/>
      <point x="666" y="684" type="curve"/>
    </contour>
  </outline>
</glyph>
<glyph name="five" format="2">
  <advance width="1042"/>
  <unicode hex="0035"/>
  <outline>
    <contour>
      <point x="385" y="1156" type="line"/>
      <point x="881" y="1156" type="line"/>
      <point x="881" y="1343" type="line"/>
      <point x="195" y="1343" type="line"/>
      <point x="155" y="699" type="line"/>
      <point x="262" y="631" type="line"/>
      <point x="340" y="682"/>
      <point x="389" y="705"/>
      <point x="473" y="705" type="curve" smooth="yes"/>
      <point x="637" y="705"/>
      <point x="724" y="591"/>
      <point x="724" y="429" type="curve" smooth="yes"/>
      <point x="724" y="259"/>
      <point x="613" y="155"/>
      <point x="463" y="155" type="curve" smooth="yes"/>
      <point x="325" y="155"/>
      <point x="240" y="217"/>
      <point x="162" y="292" type="curve"/>
      <point x="60" y="152" type="line"/>
      <point x="155" y="56"/>
      <point x="279" y="-25"/>
      <point x="489" y="-25" type="curve" smooth="yes"/>
      <point x="727" y="-25"/>
      <point x="944" y="143"/>
      <point x="944" y="435" type="curve" smooth="yes"/>
      <point x="944" y="725"/>
      <point x="767" y="865"/>
      <point x="535" y="865" type="curve" smooth="yes"/>
      <point x="465" y="865"/>
      <point x="412" y="849"/>
      <point x="355" y="820" type="curve"/>
    </contour>
  </outline>
</glyph>
<glyph name="eight" format="2">
  <advance width="1042"/>
  <unicode hex="0038"/>
  <outline>
    <contour>
      <point x="733" y="694" type="line"/>
      <point x="816" y="754"/>
      <point x="909" y="883"/>
      <point x="909" y="1015" type="curve" smooth="yes"/>
      <point x="909" y="1223"/>
      <point x="764" y="1365"/>
      <point x="534" y="1365" type="curve" smooth="yes"/>
      <point x="298" y="1365"/>
      <point x="142" y="1227"/>
      <point x="142" y="1018" type="curve" smooth="yes"/>
      <point x="142" y="881"/>
      <point x="223" y="772"/>
      <point x="321" y="701" type="curve"/>
      <point x="321" y="693" type="line"/>
      <point x="191" y="628"/>
      <point x="85" y="508"/>
      <point x="85" y="343" type="curve" smooth="yes"/>
      <point x="85" y="135"/>
      <point x="271" y="-25"/>
      <point x="522" y="-25" type="curve" smooth="yes"/>
      <point x="797" y="-25"/>
      <point x="959" y="136"/>
      <point x="959" y="335" type="curve" smooth="yes"/>
      <point x="959" y="509"/>
      <point x="852" y="618"/>
      <point x="733" y="685" type="curve"/>
    </contour>
    <contour>
      <point x="527" y="132" type="curve" smooth="yes"/>
      <point x="387" y="132"/>
      <point x="277" y="229"/>
      <point x="277" y="363" type="curve" smooth="yes"/>
      <point x="277" y="466"/>
      <point x="341" y="568"/>
      <point x="428" y="631" type="curve"/>
      <point x="607" y="558"/>
      <point x="752" y="490"/>
      <point x="752" y="342" type="curve" smooth="yes"/>
      <point x="752" y="218"/>
      <point x="672" y="132"/>
    </contour>
    <contour>
      <point x="610" y="750" type="curve"/>
      <point x="462" y="807"/>
      <point x="339" y="881"/>
      <point x="339" y="1018" type="curve" smooth="yes"/>
      <point x="339" y="1135"/>
      <point x="411" y="1208"/>
      <point x="529" y="1208" type="curve" smooth="yes"/>
      <point x="655" y="1208"/>
      <point x="725" y="1121"/>
      <point x="725" y="1002" type="curve" smooth="yes"/>
      <point x="725" y="917"/>
      <point x="684" y="821"/>
    </contour>
  </outline>
</glyph>
<glyph name="less" format="2">
  <advance width="1042"/>
  <unicode hex="003C"/>
  <outline>
    <contour>
      <point x="972" y="247" type="line"/>
      <point x="972" y="432" type="line"/>
      <point x="293" y="676" type="line"/>
      <point x="293" y="684" type="line"/>
      <point x="972" y="928" type="line"/>
      <point x="972" y="1113" type="line"/>
      <point x="70" y="762" type="line"/>
      <point x="70" y="598" type="line"/>
    </contour>
  </outline>
</glyph>
<glyph name="question" format="2">
  <advance width="900"/>
  <unicode hex="003F"/>
  <outline>
    <contour>
      <point x="515" y="432" type="line"/>
      <point x="472" y="705"/>
      <point x="806" y="762"/>
      <point x="806" y="1070" type="curve" smooth="yes"/>
      <point x="806" y="1302"/>
      <point x="667" y="1397"/>
      <point x="441" y="1397" type="curve" smooth="yes"/>
      <point x="289" y="1397"/>
      <point x="164" y="1334"/>
      <point x="75" y="1231" type="curve"/>
      <point x="198" y="1113" type="line"/>
      <point x="259" y="1179"/>
      <point x="321" y="1215"/>
      <point x="417" y="1215" type="curve" smooth="yes"/>
      <point x="534" y="1215"/>
      <point x="595" y="1168"/>
      <point x="595" y="1054" type="curve" smooth="yes"/>
      <point x="595" y="815"/>
      <point x="260" y="742"/>
      <point x="323" y="432" type="curve"/>
    </contour>
    <contour>
      <point x="425" y="-25" type="curve" smooth="yes"/>
      <point x="507" y="-25"/>
      <point x="571" y="40"/>
      <point x="571" y="126" type="curve" smooth="yes"/>
      <point x="571" y="215"/>
      <point x="507" y="279"/>
      <point x="425" y="279" type="curve" smooth="yes"/>
      <point x="344" y="279"/>
      <point x="282" y="215"/>
      <point x="282" y="126" type="curve" smooth="yes"/>
      <point x="282" y="40"/>
      <point x="344" y="-25"/>
    </contour>
  </outline>
</glyph>
<glyph name="A" format="2">
  <advance width="1128"/>
  <unicode hex="0041"/>
  <anchor x="564" y="-200" name="btm"/>
  <anchor x="564" y="800" name="top"/>
  <outline>
    <contour>
      <point x="-5" y="0" type="line"/>
      <point x="219" y="0" type="line"/>
      <point x="330" y="375" type="line"/>
      <point x="790" y="375" type="line"/>
      <point x="901" y="0" type="line"/>
      <point x="1134" y="0" type="line"/>
      <point x="692" y="1340" type="line"/>
      <point x="436" y="1340" type="line"/>
    </contour>
    <contour>
      <point x="380" y="549" type="line"/>
      <point x="434" y="723" type="line"/>
      <point x="477" y="866"/>
      <point x="518" y="1017"/>
      <point x="556" y="1167" type="curve"/>
      <point x="564" y="1167" type="line"/>
      <point x="604" y="1018"/>
      <point x="644" y="866"/>
      <point x="688" y="723" type="curve" smooth="yes"/>
      <point x="740" y="549" type="line"/>
    </contour>
  </outline>
</glyph>
<glyph name="B" format="2">
  <advance width="1210"/>
  <unicode hex="0042"/>
  <anchor x="605" y="0" name="bottom"/>
  <anchor x="605" y="1340" name="top"/>
  <outline>
    <contour>
      <point x="170" y="0" type="line"/>
      <point x="632" y="0" type="line"/>
      <point x="928" y="0"/>
      <point x="1137" y="124"/>
      <point x="1137" y="397" type="curve" smooth="yes"/>
      <point x="1137" y="581"/>
      <point x="1028" y="694"/>
      <point x="834" y="712" type="curve"/>
      <point x="834" y="720" type="line"/>
      <point x="1001" y="757"/>
      <point x="1065" y="886"/>
      <point x="1065" y="1016" type="curve" smooth="yes"/>
      <point x="1065" y="1263"/>
      <point x="879" y="1340"/>
      <point x="600" y="1340" type="curve" smooth="yes"/>
      <point x="170" y="1340" type="line"/>
    </contour>
    <contour>
      <point x="392" y="172" type="line"/>
      <point x="392" y="620" type="line"/>
      <point x="612" y="620" type="line"/>
      <point x="821" y="620"/>
      <point x="921" y="559"/>
      <point x="921" y="411" type="curve" smooth="yes"/>
      <point x="921" y="246"/>
      <point x="812" y="172"/>
      <point x="608" y="172" type="curve" smooth="yes"/>
    </contour>
    <contour>
      <point x="392" y="780" type="line"/>
      <point x="392" y="1168" type="line"/>
      <point x="587" y="1168" type="line"/>
      <point x="768" y="1168"/>
      <point x="849" y="1119"/>
      <point x="849" y="989" type="curve" smooth="yes"/>
      <point x="849" y="856"/>
      <point x="772" y="780"/>
      <point x="575" y="780" type="curve" smooth="yes"/>
    </contour>
  </outline>
</glyph>
<glyph name="C" format="2">
  <advance width="1170"/>
  <unicode hex="0043"/>
  <anchor x="687" y="0" name="bottom"/>
  <anchor x="704" y="1340" name="top"/>
  <outline>
    <contour>
      <point x="988" y="303" type="line"/>
      <point x="909" y="216"/>
      <point x="820" y="167"/>
      <point x="699" y="167" type="curve" smooth="yes"/>
      <point x="466" y="167"/>
      <point x="324" y="352"/>
      <point x="324" y="675" type="curve" smooth="yes"/>
      <point x="324" y="992"/>
      <point x="478" y="1174"/>
      <point x="707" y="1174" type="curve" smooth="yes"/>
      <point x="811" y="1174"/>
      <point x="896" y="1131"/>
      <point x="966" y="1061" type="curve"/>
      <point x="1089" y="1199" type="line"/>
      <point x="1005" y="1289"/>
      <point x="866" y="1365"/>
      <point x="704" y="1365" type="curve" smooth="yes"/>
      <point x="360" y="1365"/>
      <point x="97" y="1116"/>
      <point x="97" y="667" type="curve" smooth="yes"/>
      <point x="97" y="213"/>
      <point x="354" y="-25"/>
      <point x="695" y="-25" type="curve" smooth="yes"/>
      <point x="863" y="-25"/>
      <point x="1004" y="44"/>
      <point x="1111" y="169" type="curve"/>
    </contour>
  </outline>
</glyph>
<glyph name="E" format="2">
  <advance width="1088"/>
  <unicode hex="0045"/>
  <anchor x="579" y="-200" name="btm"/>
  <anchor x="562" y="800" name="top"/>
  <outline>
    <contour>
      <point x="170" y="0" type="line"/>
      <point x="989" y="0" type="line"/>
      <point x="989" y="187" type="line"/>
      <point x="392" y="187" type="line"/>
      <point x="392" y="606" type="line"/>
      <point x="879" y="606" type="line"/>
      <point x="879" y="791" type="line"/>
      <point x="392" y="791" type="line"/>
      <point x="392" y="1155" type="line"/>
      <point x="968" y="1155" type="line"/>
      <point x="968" y="1340" type="line"/>
      <point x="170" y="1340" type="line"/>
    </contour>
  </outline>
</glyph>
<glyph name="F" format="2">
  <advance width="1028"/>
  <unicode hex="0046"/>
  <anchor x="514" y="0" name="bottom"/>
  <anchor x="514" y="1340" name="top"/>
  <outline>
    <contour>
      <point x="170" y="0" type="line"/>
      <point x="392" y="0" type="line"/>
      <point x="392" y="570" type="line"/>
      <point x="884" y="570" type="line"/>
      <point x="884" y="755" type="line"/>
      <point x="392" y="755" type="line"/>
      <point x="392" y="1155" type="line"/>
      <point x="971" y="1155" type="line"/>
      <point x="971" y="1340" type="line"/>
      <point x="170" y="1340" type="line"/>
    </contour>
  </outline>
</glyph>
<glyph name="I" format="2">
  <advance width="561"/>
  <unicode hex="0049"/>
  <anchor x="281" y="0" name="bottom"/>
  <anchor x="505" y="10" name="ogonek"/>
  <anchor x="281" y="1340" name="top"/>
  <outline>
    <contour>
      <point x="170" y="0" type="line"/>
      <point x="392" y="0" type="line"/>
      <point x="392" y="1340" type="line"/>
      <point x="170" y="1340" type="line"/>
    </contour>
  </outline>
</glyph>
<glyph name="K" format="2">
  <advance width="1206"/>
  <unicode hex="004B"/>
  <anchor x="603" y="0" name="bottom"/>
  <anchor x="603" y="1340" name="top"/>
  <outline>
    <contour>
      <point x="170" y="0" type="line"/>
      <point x="392" y="0" type="line"/>
      <point x="392" y="400" type="line"/>
      <point x="593" y="646" type="line"/>
      <point x="965" y="0" type="line"/>
      <point x="1209" y="0" type="line"/>
      <point x="726" y="820" type="line"/>
      <point x="1141" y="1340" type="line"/>
      <point x="894" y="1340" type="line"/>
      <point x="396" y="711" type="line"/>
      <point x="392" y="711" type="line"/>
      <point x="392" y="1340" type="line"/>
      <point x="170" y="1340" type="line"/>
    </contour>
  </outline>
</glyph>
<glyph name="L" format="2">
  <advance width="1012"/>
  <unicode hex="004C"/>
  <anchor x="562" y="-200" name="btm"/>
  <anchor x="643" y="1029" name="car"/>
  <anchor x="731" y="776" name="dot"/>
  <anchor x="288" y="800" name="top"/>
  <outline>
    <contour>
      <point x="170" y="0" type="line"/>
      <point x="955" y="0" type="line"/>
      <point x="955" y="187" type="line"/>
      <point x="392" y="187" type="line"/>
      <point x="392" y="1340" type="line"/>
      <point x="170" y="1340" type="line"/>
    </contour>
  </outline>
</glyph>
<glyph name="M" format="2">
  <advance width="1510"/>
  <unicode hex="004D"/>
  <anchor x="755" y="0" name="bottom"/>
  <anchor x="755" y="1340" name="top"/>
  <outline>
    <contour>
      <point x="160" y="0" type="line"/>
      <point x="363" y="0" type="line"/>
      <point x="363" y="644" type="line"/>
      <point x="363" y="768"/>
      <point x="357" y="941"/>
      <point x="346" y="1063" type="curve"/>
      <point x="354" y="1063" type="line"/>
      <point x="461" y="761" type="line"/>
      <point x="698" y="128" type="line"/>
      <point x="805" y="128" type="line"/>
      <point x="1042" y="761" type="line"/>
      <point x="1150" y="1063" type="line"/>
      <point x="1158" y="1063" type="line"/>
      <point x="1147" y="941"/>
      <point x="1139" y="768"/>
      <point x="1139" y="644" type="curve" smooth="yes"/>
      <point x="1141" y="0" type="line"/>
      <point x="1349" y="0" type="line"/>
      <point x="1327" y="1340" type="line"/>
      <point x="1091" y="1340" type="line"/>
      <point x="850" y="666" type="line"/>
      <point x="761" y="407" type="line"/>
      <point x="753" y="407" type="line"/>
      <point x="663" y="666" type="line"/>
      <point x="417" y="1340" type="line"/>
      <point x="180" y="1340" type="line"/>
    </contour>
  </outline>
</glyph>
<glyph name="N" format="2">
  <advance width="1332"/>
  <unicode hex="004E"/>
  <anchor x="666" y="0" name="bottom"/>
  <anchor x="666" y="1340" name="top"/>
  <outline>
    <contour>
      <point x="170" y="0" type="line"/>
      <point x="380" y="0" type="line"/>
      <point x="380" y="615" type="line"/>
      <point x="380" y="763"/>
      <point x="363" y="919"/>
      <point x="352" y="1059" type="curve"/>
      <point x="361" y="1059" type="line"/>
      <point x="500" y="777" type="line"/>
      <point x="933" y="0" type="line"/>
      <point x="1161" y="0" type="line"/>
      <point x="1161" y="1340" type="line"/>
      <point x="951" y="1340" type="line"/>
      <point x="951" y="731" type="line"/>
      <point x="951" y="584"/>
      <point x="969" y="418"/>
      <point x="979" y="281" type="curve"/>
      <point x="971" y="281" type="line"/>
      <point x="831" y="566" type="line"/>
      <point x="396" y="1340" type="line"/>
      <point x="170" y="1340" type="line"/>
    </contour>
  </outline>
</glyph>
<glyph name="O" format="2">
  <advance width="1369"/>
  <unicode hex="004F"/>
  <anchor x="683" y="-200" name="btm"/>
  <anchor x="683" y="800" name="top"/>
  <outline>
    <contour>
      <point x="683" y="-25" type="curve" smooth="yes"/>
      <point x="1040" y="-25"/>
      <point x="1270" y="228"/>
      <point x="1270" y="675" type="curve" smooth="yes"/>
      <point x="1270" y="1118"/>
      <point x="1040" y="1365"/>
      <point x="683" y="1365" type="curve" smooth="yes"/>
      <point x="326" y="1365"/>
      <point x="97" y="1120"/>
      <point x="97" y="675" type="curve" smooth="yes"/>
      <point x="97" y="228"/>
      <point x="326" y="-25"/>
    </contour>
    <contour>
      <point x="683" y="167" type="curve" smooth="yes"/>
      <point x="456" y="167"/>
      <point x="324" y="355"/>
      <point x="324" y="675" type="curve" smooth="yes"/>
      <point x="324" y="992"/>
      <point x="456" y="1174"/>
      <point x="683" y="1174" type="curve" smooth="yes"/>
      <point x="908" y="1174"/>
      <point x="1043" y="992"/>
      <point x="1043" y="675" type="curve" smooth="yes"/>
      <point x="1043" y="355"/>
      <point x="908" y="167"/>
    </contour>
  </outline>
</glyph>
<glyph name="Q" format="2">
  <advance width="1369"/>
  <unicode hex="0051"/>
  <anchor x="685" y="0" name="bottom"/>
  <anchor x="685" y="1340" name="top"/>
  <outline>
    <contour>
      <point x="1270" y="-145" type="line"/>
      <point x="1233" y="-156"/>
      <point x="1177" y="-167"/>
      <point x="1118" y="-167" type="curve" smooth="yes"/>
      <point x="985" y="-167"/>
      <point x="851" y="-119"/>
      <point x="811" y="-10" type="curve"/>
      <point x="1086" y="49"/>
      <point x="1266" y="289"/>
      <point x="1266" y="676" type="curve" smooth="yes"/>
      <point x="1266" y="1117"/>
      <point x="1036" y="1365"/>
      <point x="679" y="1365" type="curve" smooth="yes"/>
      <point x="323" y="1365"/>
      <point x="93" y="1119"/>
      <point x="93" y="676" type="curve" smooth="yes"/>
      <point x="93" y="278"/>
      <point x="285" y="33"/>
      <point x="575" y="-15" type="curve"/>
      <point x="644" y="-214"/>
      <point x="832" y="-347"/>
      <point x="1093" y="-347" type="curve" smooth="yes"/>
      <point x="1182" y="-347"/>
      <point x="1267" y="-329"/>
      <point x="1311" y="-311" type="curve"/>
    </contour>
    <contour>
      <point x="679" y="167" type="curve" smooth="yes"/>
      <point x="455" y="167"/>
      <point x="320" y="358"/>
      <point x="320" y="676" type="curve" smooth="yes"/>
      <point x="320" y="992"/>
      <point x="455" y="1174"/>
      <point x="679" y="1174" type="curve" smooth="yes"/>
      <point x="903" y="1174"/>
      <point x="1038" y="992"/>
      <point x="1038" y="676" type="curve" smooth="yes"/>
      <point x="1038" y="358"/>
      <point x="903" y="167"/>
    </contour>
  </outline>
</glyph>
<glyph name="R" format="2">
  <advance width="1211"/>
  <unicode hex="0052"/>
  <anchor x="606" y="0" name="bottom"/>
  <anchor x="606" y="1340" name="top"/>
  <outline>
    <contour>
      <point x="170" y="0" type="line"/>
      <point x="392" y="0" type="line"/>
      <point x="392" y="534" type="line"/>
      <point x="613" y="534" type="line"/>
      <point x="901" y="0" type="line"/>
      <point x="1151" y="0" type="line"/>
      <point x="834" y="567" type="line"/>
      <point x="1000" y="620"/>
      <point x="1101" y="736"/>
      <point x="1101" y="952" type="curve" smooth="yes"/>
      <point x="1101" y="1252"/>
      <point x="906" y="1340"/>
      <point x="630" y="1340" type="curve" smooth="yes"/>
      <point x="170" y="1340" type="line"/>
    </contour>
    <contour>
      <point x="392" y="712" type="line"/>
      <point x="392" y="1164" type="line"/>
      <point x="605" y="1164" type="line"/>
      <point x="794" y="1164"/>
      <point x="883" y="1117"/>
      <point x="883" y="952" type="curve" smooth="yes"/>
      <point x="883" y="782"/>
      <point x="791" y="712"/>
      <point x="601" y="712" type="curve" smooth="yes"/>
    </contour>
  </outline>
</glyph>
<glyph name="W" format="2">
  <advance width="1623"/>
  <unicode hex="0057"/>
  <anchor x="812" y="0" name="bottom"/>
  <anchor x="812" y="1340" name="top"/>
  <outline>
    <contour>
      <point x="306" y="0" type="line"/>
      <point x="573" y="0" type="line"/>
      <point x="746" y="732" type="line"/>
      <point x="768" y="835"/>
      <point x="788" y="936"/>
      <point x="808" y="1038" type="curve"/>
      <point x="817" y="1038" type="line"/>
      <point x="833" y="936"/>
      <point x="854" y="835"/>
      <point x="876" y="732" type="curve"/>
      <point x="1052" y="0" type="line"/>
      <point x="1324" y="0" type="line"/>
      <point x="1587" y="1340" type="line"/>
      <point x="1375" y="1340" type="line"/>
      <point x="1251" y="650" type="line"/>
      <point x="1230" y="509"/>
      <point x="1207" y="365"/>
      <point x="1185" y="220" type="curve"/>
      <point x="1176" y="220" type="line"/>
      <point x="1146" y="365"/>
      <point x="1116" y="511"/>
      <point x="1086" y="650" type="curve"/>
      <point x="916" y="1340" type="line"/>
      <point x="722" y="1340" type="line"/>
      <point x="552" y="650" type="line"/>
      <point x="521" y="508"/>
      <point x="491" y="364"/>
      <point x="464" y="220" type="curve"/>
      <point x="455" y="220" type="line"/>
      <point x="432" y="364"/>
      <point x="408" y="507"/>
      <point x="385" y="650" type="curve"/>
      <point x="262" y="1340" type="line"/>
      <point x="36" y="1340" type="line"/>
    </contour>
  </outline>
</glyph>
<glyph name="X" format="2">
  <advance width="1085"/>
  <unicode hex="0058"/>
  <anchor x="543" y="0" name="bottom"/>
  <anchor x="543" y="1340" name="top"/>
  <outline>
    <contour>
      <point x="25" y="0" type="line"/>
      <point x="258" y="0" type="line"/>
      <point x="426" y="328" type="line"/>
      <point x="459" y="395"/>
      <point x="490" y="463"/>
      <point x="527" y="545" type="curve"/>
      <point x="535" y="545" type="line"/>
      <point x="575" y="463"/>
      <point x="610" y="395"/>
      <point x="645" y="328" type="curve" smooth="yes"/>
      <point x="817" y="0" type="line"/>
      <point x="1062" y="0" type="line"/>
      <point x="680" y="681" type="line"/>
      <point x="1037" y="1340" type="line"/>
      <point x="803" y="1340" type="line"/>
      <point x="652" y="1031" type="line"/>
      <point x="621" y="970"/>
      <point x="596" y="909"/>
      <point x="562" y="829" type="curve"/>
      <point x="553" y="829" type="line"/>
      <point x="512" y="909"/>
      <point x="483" y="970"/>
      <point x="451" y="1031" type="curve" smooth="yes"/>
      <point x="294" y="1340" type="line"/>
      <point x="48" y="1340" type="line"/>
      <point x="408" y="691" type="line"/>
    </contour>
  </outline>
</glyph>
<glyph name="Z" format="2">
  <advance width="1099"/>
  <unicode hex="005A"/>
  <anchor x="550" y="0" name="bottom"/>
  <anchor x="550" y="1340" name="top"/>
  <outline>
    <contour>
      <point x="81" y="0" type="line"/>
      <point x="1022" y="0" type="line"/>
      <point x="1022" y="187" type="line"/>
      <point x="353" y="187" type="line"/>
      <point x="1017" y="1209" type="line"/>
      <point x="1017" y="1340" type="line"/>
      <point x="141" y="1340" type="line"/>
      <point x="141" y="1155" type="line"/>
      <point x="744" y="1155" type="line"/>
      <point x="81" y="133" type="line"/>
    </contour>
  </outline>
</glyph>
<glyph name="bracketleft" format="2">
  <advance width="653"/>
  <unicode hex="005B"/>
  <outline>
    <contour>
      <point x="187" y="-311" type="line"/>
      <point x="578" y="-311" type="line"/>
      <point x="578" y="-191" type="line"/>
      <point x="351" y="-191" type="line"/>
      <point x="351" y="1328" type="line"/>
      <point x="578" y="1328" type="line"/>
      <point x="578" y="1450" type="line"/>
      <point x="187" y="1450" type="line"/>
    </contour>
  </outline>
</glyph>
<glyph name="backslash" format="2">
  <advance width="708"/>
  <unicode hex="005C"/>
  <outline>
    <contour>
      <point x="533" y="-328" type="line"/>
      <point x="685" y="-328" type="line"/>
      <point x="190" y="1454" type="line"/>
      <point x="40" y="1454" type="line"/>
    </contour>
  </outline>
</glyph>
<glyph name="a" format="2">
  <advance width="1066"/>
  <unicode hex="0061"/>
  <anchor x="538" y="-200" name="btm"/>
  <anchor x="538" y="800" name="top"/>
  <outline>
    <contour>
      <point x="728" y="113" type="line"/>
      <point x="746" y="0" type="line"/>
      <point x="926" y="0" type="line"/>
      <point x="926" y="599" type="line"/>
      <point x="926" y="880"/>
      <point x="811" y="1028"/>
      <point x="557" y="1028" type="curve" smooth="yes"/>
      <point x="397" y="1028"/>
      <point x="250" y="976"/>
      <point x="144" y="910" type="curve"/>
      <point x="226" y="762" type="line"/>
      <point x="312" y="817"/>
      <point x="412" y="850"/>
      <point x="517" y="850" type="curve" smooth="yes"/>
      <point x="662" y="850"/>
      <point x="707" y="779"/>
      <point x="707" y="634" type="curve"/>
      <point x="287" y="617"/>
      <point x="110" y="485"/>
      <point x="110" y="270" type="curve" smooth="yes"/>
      <point x="110" y="94"/>
      <point x="232" y="-25"/>
      <point x="416" y="-25" type="curve" smooth="yes"/>
      <point x="549" y="-25"/>
      <point x="631" y="36"/>
      <point x="723" y="113" type="curve"/>
    </contour>
    <contour>
      <point x="707" y="263" type="line"/>
      <point x="631" y="190"/>
      <point x="567" y="148"/>
      <point x="481" y="148" type="curve" smooth="yes"/>
      <point x="386" y="148"/>
      <point x="322" y="190"/>
      <point x="322" y="285" type="curve" smooth="yes"/>
      <point x="322" y="393"/>
      <point x="407" y="492"/>
      <point x="707" y="501" type="curve"/>
    </contour>
  </outline>
</glyph>
<glyph name="c" format="2">
  <advance width="942"/>
  <unicode hex="0063"/>
  <anchor x="570" y="-200" name="btm"/>
  <anchor x="574" y="800" name="top"/>
  <outline>
    <contour>
      <point x="796" y="236" type="line"/>
      <point x="740" y="189"/>
      <point x="672" y="155"/>
      <point x="585" y="155" type="curve" smooth="yes"/>
      <point x="422" y="155"/>
      <point x="310" y="287"/>
      <point x="310" y="503" type="curve" smooth="yes"/>
      <point x="310" y="720"/>
      <point x="425" y="849"/>
      <point x="592" y="849" type="curve" smooth="yes"/>
      <point x="659" y="849"/>
      <point x="718" y="822"/>
      <point x="773" y="775" type="curve"/>
      <point x="877" y="913" type="line"/>
      <point x="810" y="979"/>
      <point x="710" y="1028"/>
      <point x="581" y="1028" type="curve" smooth="yes"/>
      <point x="316" y="1028"/>
      <point x="86" y="850"/>
      <point x="86" y="503" type="curve" smooth="yes"/>
      <point x="86" y="159"/>
      <point x="292" y="-25"/>
      <point x="563" y="-25" type="curve" smooth="yes"/>
      <point x="679" y="-25"/>
      <point x="795" y="13"/>
      <point x="888" y="95" type="curve"/>
    </contour>
  </outline>
</glyph>
<glyph name="d" format="2">
  <advance width="1151"/>
  <unicode hex="0064"/>
  <anchor x="543" y="-200" name="btm"/>
  <anchor x="1185" y="1028" name="car"/>
  <anchor x="386" y="800" name="top"/>
  <outline>
    <contour>
      <point x="799" y="111" type="line"/>
      <point x="816" y="0" type="line"/>
      <point x="996" y="0" type="line"/>
      <point x="996" y="1450" type="line"/>
      <point x="776" y="1450" type="line"/>
      <point x="776" y="1081" type="line"/>
      <point x="786" y="916" type="line"/>
      <point x="705" y="985"/>
      <point x="632" y="1028"/>
      <point x="518" y="1028" type="curve" smooth="yes"/>
      <point x="289" y="1028"/>
      <point x="90" y="837"/>
      <point x="90" y="502" type="curve" smooth="yes"/>
      <point x="90" y="161"/>
      <point x="255" y="-25"/>
      <point x="503" y="-25" type="curve" smooth="yes"/>
      <point x="613" y="-25"/>
      <point x="717" y="36"/>
      <point x="793" y="111" type="curve"/>
    </contour>
    <contour>
      <point x="776" y="277" type="line"/>
      <point x="707" y="194"/>
      <point x="638" y="157"/>
      <point x="556" y="157" type="curve" smooth="yes"/>
      <point x="398" y="157"/>
      <point x="314" y="275"/>
      <point x="314" y="505" type="curve" smooth="yes"/>
      <point x="314" y="725"/>
      <point x="421" y="847"/>
      <point x="562" y="847" type="curve" smooth="yes"/>
      <point x="634" y="847"/>
      <point x="704" y="823"/>
      <point x="776" y="757" type="curve"/>
    </contour>
  </outline>
</glyph>
<glyph name="e" format="2">
  <advance width="1033"/>
  <unicode hex="0065"/>
  <anchor x="521" y="-200" name="btm"/>
  <anchor x="521" y="800" name="top"/>
  <outline>
    <contour>
      <point x="842" y="214" type="line"/>
      <point x="768" y="168"/>
      <point x="693" y="147"/>
      <point x="606" y="147" type="curve" smooth="yes"/>
      <point x="436" y="147"/>
      <point x="314" y="251"/>
      <point x="300" y="448" type="curve"/>
      <point x="948" y="448" type="line"/>
      <point x="952" y="472"/>
      <point x="956" y="511"/>
      <point x="956" y="553" type="curve" smooth="yes"/>
      <point x="956" y="841"/>
      <point x="822" y="1028"/>
      <point x="544" y="1028" type="curve" smooth="yes"/>
      <point x="300" y="1028"/>
      <point x="86" y="838"/>
      <point x="86" y="501" type="curve" smooth="yes"/>
      <point x="86" y="165"/>
      <point x="302" y="-25"/>
      <point x="577" y="-25" type="curve" smooth="yes"/>
      <point x="708" y="-25"/>
      <point x="824" y="16"/>
      <point x="916" y="77" type="curve"/>
    </contour>
    <contour>
      <point x="298" y="587" type="line"/>
      <point x="317" y="769"/>
      <point x="421" y="858"/>
      <point x="549" y="858" type="curve" smooth="yes"/>
      <point x="697" y="858"/>
      <point x="767" y="763"/>
      <point x="767" y="587" type="curve"/>
    </contour>
  </outline>
</glyph>
<glyph name="f" format="2">
  <advance width="636"/>
  <unicode hex="0066"/>
  <anchor x="375" y="-200" name="btm"/>
  <anchor x="248" y="1149" name="top"/>
  <outline>
    <contour>
      <point x="192" y="0" type="line"/>
      <point x="411" y="0" type="line"/>
      <point x="411" y="828" type="line"/>
      <point x="610" y="828" type="line"/>
      <point x="610" y="1003" type="line"/>
      <point x="411" y="1003" type="line"/>
      <point x="411" y="1126" type="line"/>
      <point x="411" y="1245"/>
      <point x="455" y="1299"/>
      <point x="541" y="1299" type="curve" smooth="yes"/>
      <point x="577" y="1299"/>
      <point x="615" y="1290"/>
      <point x="651" y="1276" type="curve"/>
      <point x="695" y="1440" type="line"/>
      <point x="650" y="1457"/>
      <point x="585" y="1474"/>
      <point x="514" y="1474" type="curve" smooth="yes"/>
      <point x="287" y="1474"/>
      <point x="192" y="1331"/>
      <point x="192" y="1123" type="curve" smooth="yes"/>
      <point x="192" y="1002" type="line"/>
      <point x="56" y="992" type="line"/>
      <point x="56" y="828" type="line"/>
      <point x="192" y="828" type="line"/>
    </contour>
  </outline>
</glyph>
<glyph name="i" format="2">
  <advance width="527"/>
  <unicode hex="0069"/>
  <outline>
    <contour>
      <point x="155" y="0" type="line"/>
      <point x="373" y="0" type="line"/>
      <point x="373" y="1003" type="line"/>
      <point x="155" y="1003" type="line"/>
    </contour>
    <contour>
      <point x="265" y="1187" type="curve" smooth="yes"/>
      <point x="344" y="1187"/>
      <point x="404" y="1240"/>
      <point x="404" y="1314" type="curve" smooth="yes"/>
      <point x="404" y="1390"/>
      <point x="344" y="1441"/>
      <point x="265" y="1441" type="curve" smooth="yes"/>
      <point x="186" y="1441"/>
      <point x="126" y="1390"/>
      <point x="126" y="1314" type="curve" smooth="yes"/>
      <point x="126" y="1240"/>
      <point x="186" y="1187"/>
    </contour>
  </outline>
</glyph>
<glyph name="j" format="2">
  <advance width="530"/>
  <unicode hex="006A"/>
  <anchor x="157" y="-200" name="btm"/>
  <anchor x="157" y="800" name="top"/>
  <outline>
    <contour>
      <point x="375" y="1003" type="line"/>
      <point x="157" y="1003" type="line"/>
      <point x="157" y="-74" type="line"/>
      <point x="157" y="-192"/>
      <point x="131" y="-253"/>
      <point x="40" y="-253" type="curve" smooth="yes"/>
      <point x="7" y="-253"/>
      <point x="-24" y="-246"/>
      <point x="-49" y="-238" type="curve"/>
      <point x="-90" y="-401" type="line"/>
      <point x="-53" y="-416"/>
      <point x="-1" y="-428"/>
      <point x="69" y="-428" type="curve" smooth="yes"/>
      <point x="297" y="-428"/>
      <point x="375" y="-281"/>
      <point x="375" y="-71" type="curve" smooth="yes"/>
    </contour>
    <contour>
      <point x="268" y="1187" type="curve" smooth="yes"/>
      <point x="345" y="1187"/>
      <point x="405" y="1240"/>
      <point x="405" y="1314" type="curve" smooth="yes"/>
      <point x="405" y="1390"/>
      <point x="345" y="1441"/>
      <point x="268" y="1441" type="curve" smooth="yes"/>
      <point x="188" y="1441"/>
      <point x="129" y="1390"/>
      <point x="129" y="1314" type="curve" smooth="yes"/>
      <point x="129" y="1240"/>
      <point x="188" y="1187"/>
    </contour>
  </outline>
</glyph>
<glyph name="q" format="2">
  <advance width="1143"/>
  <unicode hex="0071"/>
  <anchor x="543" y="-200" name="btm"/>
  <anchor x="543" y="800" name="top"/>
  <outline>
    <contour>
      <point x="776" y="-404" type="line"/>
      <point x="996" y="-404" type="line"/>
      <point x="996" y="1003" type="line"/>
      <point x="823" y="1003" type="line"/>
      <point x="803" y="906" type="line"/>
      <point x="797" y="906" type="line"/>
      <point x="711" y="987"/>
      <point x="635" y="1028"/>
      <point x="519" y="1028" type="curve" smooth="yes"/>
      <point x="292" y="1028"/>
      <point x="90" y="832"/>
      <point x="90" y="499" type="curve" smooth="yes"/>
      <point x="90" y="161"/>
      <point x="248" y="-25"/>
      <point x="504" y="-25" type="curve" smooth="yes"/>
      <point x="613" y="-25"/>
      <point x="711" y="32"/>
      <point x="786" y="102" type="curve"/>
      <point x="776" y="-67" type="line"/>
    </contour>
    <contour>
      <point x="776" y="277" type="line"/>
      <point x="707" y="194"/>
      <point x="641" y="157"/>
      <point x="558" y="157" type="curve" smooth="yes"/>
      <point x="401" y="157"/>
      <point x="315" y="273"/>
      <point x="315" y="502" type="curve" smooth="yes"/>
      <point x="315" y="720"/>
      <point x="425" y="847"/>
      <point x="564" y="847" type="curve" smooth="yes"/>
      <point x="638" y="847"/>
      <point x="704" y="823"/>
      <point x="776" y="757" type="curve"/>
    </contour>
  </outline>
</glyph>
<glyph name="t" format="2">
  <advance width="727"/>
  <unicode hex="0074"/>
  <anchor x="371" y="-200" name="btm"/>
  <anchor x="625" y="1029" name="car"/>
  <anchor x="308" y="1029" name="top"/>
  <outline>
    <contour>
      <point x="659" y="174" type="line"/>
      <point x="629" y="163"/>
      <point x="587" y="150"/>
      <point x="553" y="150" type="curve" smooth="yes"/>
      <point x="452" y="150"/>
      <point x="408" y="211"/>
      <point x="408" y="331" type="curve" smooth="yes"/>
      <point x="408" y="828" type="line"/>
      <point x="667" y="828" type="line"/>
      <point x="667" y="1003" type="line"/>
      <point x="408" y="1003" type="line"/>
      <point x="408" y="1279" type="line"/>
      <point x="225" y="1279" type="line"/>
      <point x="199" y="1003" type="line"/>
      <point x="44" y="992" type="line"/>
      <point x="44" y="828" type="line"/>
      <point x="188" y="828" type="line"/>
      <point x="188" y="331" type="line"/>
      <point x="188" y="119"/>
      <point x="270" y="-25"/>
      <point x="497" y="-25" type="curve" smooth="yes"/>
      <point x="574" y="-25"/>
      <point x="643" y="-5"/>
      <point x="698" y="12" type="curve"/>
    </contour>
  </outline>
</glyph>
<glyph name="u" format="2">
  <advance width="1133"/>
  <unicode hex="0075"/>
  <anchor x="560" y="-200" name="btm"/>
  <anchor x="560" y="800" name="top"/>
  <outline>
    <contour>
      <point x="782" y="150" type="line"/>
      <point x="799" y="0" type="line"/>
      <point x="979" y="0" type="line"/>
      <point x="979" y="1003" type="line"/>
      <point x="760" y="1003" type="line"/>
      <point x="760" y="310" type="line"/>
      <point x="679" y="207"/>
      <point x="624" y="163"/>
      <point x="526" y="163" type="curve" smooth="yes"/>
      <point x="405" y="163"/>
      <point x="362" y="228"/>
      <point x="362" y="399" type="curve" smooth="yes"/>
      <point x="362" y="1003" type="line"/>
      <point x="142" y="1003" type="line"/>
      <point x="142" y="370" type="line"/>
      <point x="142" y="116"/>
      <point x="230" y="-25"/>
      <point x="451" y="-25" type="curve" smooth="yes"/>
      <point x="595" y="-25"/>
      <point x="686" y="44"/>
      <point x="775" y="150" type="curve"/>
    </contour>
  </outline>
</glyph>
<glyph name="v" format="2">
  <advance width="1000"/>
  <unicode hex="0076"/>
  <anchor x="500" y="-200" name="btm"/>
  <anchor x="500" y="800" name="top"/>
  <outline>
    <contour>
      <point x="377" y="0" type="line"/>
      <point x="632" y="0" type="line"/>
      <point x="976" y="1003" type="line"/>
      <point x="763" y="1003" type="line"/>
      <point x="596" y="471" type="line"/>
      <point x="568" y="372"/>
      <point x="537" y="269"/>
      <point x="510" y="170" type="curve"/>
      <point x="502" y="170" type="line"/>
      <point x="473" y="269"/>
      <point x="442" y="372"/>
      <point x="414" y="471" type="curve"/>
      <point x="248" y="1003" type="line"/>
      <point x="25" y="1003" type="line"/>
    </contour>
  </outline>
</glyph>
<glyph name="w" format="2">
  <advance width="1515"/>
  <unicode hex="0077"/>
  <anchor x="757" y="-200" name="btm"/>
  <anchor x="757" y="800" name="top"/>
  <outline>
    <contour>
      <point x="317" y="0" type="line"/>
      <point x="570" y="0" type="line"/>
      <point x="691" y="484" type="line"/>
      <point x="714" y="579"/>
      <point x="732" y="673"/>
      <point x="753" y="776" type="curve"/>
      <point x="761" y="776" type="line"/>
      <point x="783" y="673"/>
      <point x="801" y="580"/>
      <point x="824" y="486" type="curve" smooth="yes"/>
      <point x="948" y="0" type="line"/>
      <point x="1209" y="0" type="line"/>
      <point x="1466" y="1003" type="line"/>
      <point x="1262" y="1003" type="line"/>
      <point x="1135" y="468" type="line"/>
      <point x="1115" y="371"/>
      <point x="1100" y="278"/>
      <point x="1079" y="182" type="curve"/>
      <point x="1071" y="182" type="line"/>
      <point x="1049" y="278"/>
      <point x="1028" y="371"/>
      <point x="1004" y="468" type="curve" smooth="yes"/>
      <point x="863" y="1003" type="line"/>
      <point x="663" y="1003" type="line"/>
      <point x="525" y="468" type="line"/>
      <point x="500" y="374"/>
      <point x="482" y="278"/>
      <point x="460" y="182" type="curve"/>
      <point x="452" y="182" type="line"/>
      <point x="435" y="278"/>
      <point x="418" y="371"/>
      <point x="398" y="468" type="curve"/>
      <point x="269" y="1003" type="line"/>
      <point x="49" y="1003" type="line"/>
    </contour>
  </outline>
</glyph>
<glyph name="y" format="2">
  <advance width="998"/>
  <unicode hex="0079"/>
  <anchor x="767" y="-285" name="btm"/>
  <anchor x="499" y="800" name="top"/>
  <outline>
    <contour>
      <point x="974" y="1003" type="line"/>
      <point x="760" y="1003" type="line"/>
      <point x="604" y="496" type="line"/>
      <point x="578" y="404"/>
      <point x="554" y="305"/>
      <point x="527" y="212" type="curve"/>
      <point x="519" y="212" type="line"/>
      <point x="490" y="308"/>
      <point x="459" y="407"/>
      <point x="428" y="496" type="curve" smooth="yes"/>
      <point x="248" y="1003" type="line"/>
      <point x="25" y="1003" type="line"/>
      <point x="421" y="9" type="line"/>
      <point x="401" y="-57" type="line"/>
      <point x="366" y="-164"/>
      <point x="302" y="-240"/>
      <point x="194" y="-240" type="curve" smooth="yes"/>
      <point x="171" y="-240"/>
      <point x="141" y="-232"/>
      <point x="121" y="-226" type="curve"/>
      <point x="81" y="-396" type="line"/>
      <point x="116" y="-408"/>
      <point x="156" y="-416"/>
      <point x="208" y="-416" type="curve" smooth="yes"/>
      <point x="423" y="-416"/>
      <point x="528" y="-274"/>
      <point x="608" y="-55" type="curve" smooth="yes"/>
    </contour>
  </outline>
</glyph>
<glyph name="z" format="2">
  <advance width="897"/>
  <unicode hex="007A"/>
  <anchor x="478" y="-200" name="btm"/>
  <anchor x="457" y="800" name="top"/>
  <outline>
    <contour>
      <point x="69" y="0" type="line"/>
      <point x="846" y="0" type="line"/>
      <point x="846" y="175" type="line"/>
      <point x="344" y="175" type="line"/>
      <point x="831" y="886" type="line"/>
      <point x="831" y="1003" type="line"/>
      <point x="123" y="1003" type="line"/>
      <point x="123" y="828" type="line"/>
      <point x="556" y="828" type="line"/>
      <point x="69" y="117" type="line"/>
    </contour>
  </outline>
</glyph>
<glyph name="braceleft" format="2">
  <advance width="653"/>
  <unicode hex="007B"/>
  <outline>
    <contour>
      <point x="578" y="-311" type="line"/>
      <point x="578" y="-191" type="line"/>
      <point x="528" y="-191" type="line"/>
      <point x="429" y="-191"/>
      <point x="402" y="-146"/>
      <point x="402" y="-21" type="curve" smooth="yes"/>
      <point x="402" y="98"/>
      <point x="413" y="202"/>
      <point x="413" y="336" type="curve" smooth="yes"/>
      <point x="413" y="476"/>
      <point x="373" y="541"/>
      <point x="279" y="565" type="curve"/>
      <point x="279" y="573" type="line"/>
      <point x="373" y="598"/>
      <point x="413" y="661"/>
      <point x="413" y="803" type="curve" smooth="yes"/>
      <point x="413" y="927"/>
      <point x="402" y="1045"/>
      <point x="402" y="1159" type="curve" smooth="yes"/>
      <point x="402" y="1285"/>
      <point x="429" y="1328"/>
      <point x="528" y="1328" type="curve" smooth="yes"/>
      <point x="578" y="1328" type="line"/>
      <point x="578" y="1450" type="line"/>
      <point x="471" y="1450" type="line"/>
      <point x="303" y="1450"/>
      <point x="224" y="1383"/>
      <point x="224" y="1171" type="curve" smooth="yes"/>
      <point x="224" y="1028"/>
      <point x="244" y="919"/>
      <point x="244" y="791" type="curve" smooth="yes"/>
      <point x="244" y="715"/>
      <point x="204" y="639"/>
      <point x="67" y="636" type="curve"/>
      <point x="67" y="503" type="line"/>
      <point x="204" y="500"/>
      <point x="244" y="423"/>
      <point x="244" y="346" type="curve" smooth="yes"/>
      <point x="244" y="212"/>
      <point x="224" y="116"/>
      <point x="224" y="-32" type="curve" smooth="yes"/>
      <point x="224" y="-247"/>
      <point x="303" y="-311"/>
      <point x="471" y="-311" type="curve" smooth="yes"/>
    </contour>
  </outline>
</glyph>
<glyph name="bar" format="2">
  <advance width="515"/>
  <unicode hex="007C"/>
  <outline>
    <contour>
      <point x="183" y="-512" type="line"/>
      <point x="332" y="-512" type="line"/>
      <point x="332" y="1536" type="line"/>
      <point x="183" y="1536" type="line"/>
    </contour>
  </outline>
</glyph>
<glyph name="asciitilde" format="2">
  <advance width="1042"/>
  <unicode hex="007E"/>
  <outline>
    <contour>
      <point x="856" y="795" type="line"/>
      <point x="818" y="711"/>
      <point x="769" y="673"/>
      <point x="704" y="673" type="curve" smooth="yes"/>
      <point x="590" y="673"/>
      <point x="509" y="838"/>
      <point x="344" y="838" type="curve" smooth="yes"/>
      <point x="235" y="838"/>
      <point x="137" y="789"/>
      <point x="68" y="644" type="curve"/>
      <point x="186" y="556" type="line"/>
      <point x="228" y="646"/>
      <point x="274" y="679"/>
      <point x="339" y="679" type="curve" smooth="yes"/>
      <point x="452" y="679"/>
      <point x="538" y="513"/>
      <point x="703" y="513" type="curve" smooth="yes"/>
      <point x="805" y="513"/>
      <point x="902" y="568"/>
      <point x="974" y="706" type="curve"/>
    </contour>
  </outline>
</glyph>
<glyph name="cent" format="2">
  <advance width="1042"/>
  <unicode hex="00A2"/>
  <outline>
    <contour>
      <point x="547" y="-74" type="line"/>
      <point x="676" y="-74" type="line"/>
      <point x="676" y="131" type="line"/>
      <point x="777" y="141"/>
      <point x="877" y="187"/>
      <point x="956" y="256" type="curve"/>
      <point x="864" y="395" type="line"/>
      <point x="814" y="353"/>
      <point x="751" y="316"/>
      <point x="676" y="309" type="curve"/>
      <point x="676" y="956" type="line"/>
      <point x="735" y="952"/>
      <point x="786" y="925"/>
      <point x="835" y="882" type="curve"/>
      <point x="938" y="1019" type="line"/>
      <point x="877" y="1079"/>
      <point x="790" y="1128"/>
      <point x="676" y="1136" type="curve"/>
      <point x="676" y="1339" type="line"/>
      <point x="547" y="1339" type="line"/>
      <point x="547" y="1129" type="line"/>
      <point x="307" y="1092"/>
      <point x="124" y="918"/>
      <point x="124" y="633" type="curve" smooth="yes"/>
      <point x="124" y="341"/>
      <point x="295" y="163"/>
      <point x="547" y="132" type="curve"/>
    </contour>
    <contour>
      <point x="547" y="322" type="line"/>
      <point x="415" y="360"/>
      <point x="340" y="473"/>
      <point x="340" y="633" type="curve" smooth="yes"/>
      <point x="340" y="791"/>
      <point x="417" y="904"/>
      <point x="547" y="942" type="curve"/>
    </contour>
  </outline>
</glyph>
<glyph name="sterling" format="2">
  <advance width="1042"/>
  <unicode hex="00A3"/>
  <outline>
    <contour>
      <point x="104" y="0" type="line"/>
      <point x="982" y="0" type="line"/>
      <point x="982" y="187" type="line"/>
      <point x="401" y="187" type="line"/>
      <point x="401" y="195" type="line"/>
      <point x="477" y="275"/>
      <point x="515" y="354"/>
      <point x="515" y="480" type="curve" smooth="yes"/>
      <point x="515" y="512"/>
      <point x="512" y="543"/>
      <point x="507" y="573" type="curve"/>
      <point x="767" y="573" type="line"/>
      <point x="767" y="714" type="line"/>
      <point x="476" y="714" type="line"/>
      <point x="456" y="787"/>
      <point x="437" y="855"/>
      <point x="437" y="927" type="curve" smooth="yes"/>
      <point x="437" y="1073"/>
      <point x="517" y="1148"/>
      <point x="650" y="1148" type="curve" smooth="yes"/>
      <point x="732" y="1148"/>
      <point x="786" y="1122"/>
      <point x="835" y="1060" type="curve"/>
      <point x="959" y="1190" type="line"/>
      <point x="879" y="1286"/>
      <point x="775" y="1329"/>
      <point x="627" y="1329" type="curve" smooth="yes"/>
      <point x="390" y="1329"/>
      <point x="224" y="1192"/>
      <point x="224" y="935" type="curve" smooth="yes"/>
      <point x="224" y="862"/>
      <point x="248" y="789"/>
      <point x="271" y="714" type="curve"/>
      <point x="244" y="714" type="line"/>
      <point x="113" y="706" type="line"/>
      <point x="113" y="573" type="line"/>
      <point x="310" y="573" type="line"/>
      <point x="316" y="543"/>
      <point x="321" y="513"/>
      <point x="321" y="482" type="curve" smooth="yes"/>
      <point x="321" y="331"/>
      <point x="237" y="202"/>
      <point x="104" y="134" type="curve"/>
    </contour>
  </outline>
</glyph>
<glyph name="brokenbar" format="2">
  <advance width="515"/>
  <unicode hex="00A6"/>
  <outline>
    <contour>
      <point x="183" y="-512" type="line"/>
      <point x="332" y="-512" type="line"/>
      <point x="332" y="430" type="line"/>
      <point x="183" y="430" type="line"/>
    </contour>
    <contour>
      <point x="183" y="612" type="line"/>
      <point x="332" y="612" type="line"/>
      <point x="332" y="1536" type="line"/>
      <point x="183" y="1536" type="line"/>
    </contour>
  </outline>
</glyph>
<glyph name="ordfeminine" format="2">
  <advance width="718"/>
  <unicode hex="00AA"/>
  <outline>
    <contour>
      <point x="483" y="605" type="line"/>
      <point x="499" y="532" type="line"/>
      <point x="627" y="532" type="line"/>
      <point x="627" y="929" type="line"/>
      <point x="627" y="1114"/>
      <point x="544" y="1214"/>
      <point x="377" y="1214" type="curve" smooth="yes"/>
      <point x="270" y="1214"/>
      <point x="171" y="1172"/>
      <point x="94" y="1126" type="curve"/>
      <point x="153" y="1018" type="line"/>
      <point x="212" y="1053"/>
      <point x="286" y="1085"/>
      <point x="351" y="1085" type="curve" smooth="yes"/>
      <point x="436" y="1085"/>
      <point x="464" y="1034"/>
      <point x="467" y="958" type="curve"/>
      <point x="191" y="931"/>
      <point x="70" y="857"/>
      <point x="70" y="714" type="curve" smooth="yes"/>
      <point x="70" y="599"/>
      <point x="151" y="516"/>
      <point x="274" y="516" type="curve" smooth="yes"/>
      <point x="355" y="516"/>
      <point x="422" y="556"/>
      <point x="474" y="605" type="curve"/>
    </contour>
    <contour>
      <point x="467" y="711" type="line"/>
      <point x="418" y="664"/>
      <point x="374" y="641"/>
      <point x="324" y="641" type="curve" smooth="yes"/>
      <point x="263" y="641"/>
      <point x="224" y="668"/>
      <point x="224" y="726" type="curve" smooth="yes"/>
      <point x="224" y="792"/>
      <point x="285" y="841"/>
      <point x="467" y="861" type="curve"/>
    </contour>
  </outline>
</glyph>
<glyph name="macron" format="2">
  <advance width="1120"/>
  <unicode hex="00AF"/>
  <anchor x="561" y="800" name="_top"/>
  <outline>
    <contour>
      <point x="298" y="1224" type="line"/>
      <point x="824" y="1224" type="line"/>
      <point x="824" y="1369" type="line"/>
      <point x="298" y="1369" type="line"/>
    </contour>
  </outline>
</glyph>
<glyph name="cedilla" format="2">
  <advance width="1120"/>
  <unicode hex="00B8"/>
  <outline>
    <contour>
      <point x="401" y="-442" type="line"/>
      <point x="570" y="-430"/>
      <point x="723" y="-372"/>
      <point x="723" y="-245" type="curve" smooth="yes"/>
      <point x="723" y="-161"/>
      <point x="669" y="-120"/>
      <point x="602" y="-97" type="curve"/>
      <point x="650" y="7" type="line"/>
      <point x="515" y="7" type="line"/>
      <point x="433" y="-155" type="line"/>
      <point x="519" y="-176"/>
      <point x="560" y="-203"/>
      <point x="560" y="-249" type="curve" smooth="yes"/>
      <point x="560" y="-304"/>
      <point x="486" y="-332"/>
      <point x="382" y="-344" type="curve"/>
    </contour>
  </outline>
</glyph>
<glyph name="Oslash" format="2">
  <advance width="1369"/>
  <unicode hex="00D8"/>
  <anchor x="685" y="0" name="bottom"/>
  <anchor x="685" y="1340" name="top"/>
  <outline>
    <contour>
      <point x="210" y="-70" type="line"/>
      <point x="335" y="92" type="line"/>
      <point x="432" y="15"/>
      <point x="549" y="-25"/>
      <point x="684" y="-25" type="curve" smooth="yes"/>
      <point x="1030" y="-25"/>
      <point x="1270" y="243"/>
      <point x="1270" y="676" type="curve" smooth="yes"/>
      <point x="1270" y="862"/>
      <point x="1226" y="1015"/>
      <point x="1147" y="1129" type="curve"/>
      <point x="1297" y="1320" type="line"/>
      <point x="1177" y="1410" type="line"/>
      <point x="1046" y="1241" type="line"/>
      <point x="949" y="1322"/>
      <point x="825" y="1365"/>
      <point x="684" y="1365" type="curve" smooth="yes"/>
      <point x="339" y="1365"/>
      <point x="97" y="1109"/>
      <point x="97" y="676" type="curve" smooth="yes"/>
      <point x="97" y="481"/>
      <point x="146" y="320"/>
      <point x="232" y="202" type="curve"/>
      <point x="90" y="21" type="line"/>
    </contour>
    <contour>
      <point x="997" y="939" type="line"/>
      <point x="1027" y="867"/>
      <point x="1043" y="778"/>
      <point x="1043" y="676" type="curve" smooth="yes"/>
      <point x="1043" y="366"/>
      <point x="902" y="167"/>
      <point x="684" y="167" type="curve" smooth="yes"/>
      <point x="597" y="167"/>
      <point x="523" y="199"/>
      <point x="465" y="255" type="curve"/>
    </contour>
    <contour>
      <point x="379" y="388" type="line"/>
      <point x="343" y="466"/>
      <point x="324" y="564"/>
      <point x="324" y="676" type="curve" smooth="yes"/>
      <point x="324" y="985"/>
      <point x="466" y="1174"/>
      <point x="684" y="1174" type="curve" smooth="yes"/>
      <point x="776" y="1174"/>
      <point x="855" y="1140"/>
      <point x="915" y="1076" type="curve"/>
    </contour>
  </outline>
</glyph>
<glyph name="Thorn" format="2">
  <advance width="1223"/>
  <unicode hex="00DE"/>
  <anchor x="648" y="-200" name="btm"/>
  <anchor x="648" y="800" name="top"/>
  <outline>
    <contour>
      <point x="175" y="0" type="line"/>
      <point x="395" y="0" type="line"/>
      <point x="395" y="286" type="line"/>
      <point x="615" y="286" type="line"/>
      <point x="906" y="286"/>
      <point x="1122" y="419"/>
      <point x="1122" y="716" type="curve" smooth="yes"/>
      <point x="1122" y="1021"/>
      <point x="910" y="1124"/>
      <point x="615" y="1124" type="curve" smooth="yes"/>
      <point x="395" y="1124" type="line"/>
      <point x="395" y="1340" type="line"/>
      <point x="175" y="1340" type="line"/>
    </contour>
    <contour>
      <point x="395" y="464" type="line"/>
      <point x="395" y="946" type="line"/>
      <point x="596" y="946" type="line"/>
      <point x="800" y="946"/>
      <point x="904" y="888"/>
      <point x="904" y="716" type="curve" smooth="yes"/>
      <point x="904" y="543"/>
      <point x="804" y="464"/>
      <point x="596" y="464" type="curve" smooth="yes"/>
    </contour>
  </outline>
</glyph>
<glyph name="eth" format="2">
  <advance width="1128"/>
  <unicode hex="00F0"/>
  <anchor x="556" y="-200" name="btm"/>
  <anchor x="556" y="800" name="top"/>
  <outline>
    <contour>
      <point x="992" y="1367" type="line"/>
      <point x="932" y="1470" type="line"/>
      <point x="641" y="1321" type="line"/>
      <point x="552" y="1392"/>
      <point x="456" y="1451"/>
      <point x="358" y="1503" type="curve"/>
      <point x="260" y="1368" type="line"/>
      <point x="337" y="1326"/>
      <point x="407" y="1283"/>
      <point x="472" y="1235" type="curve"/>
      <point x="221" y="1107" type="line"/>
      <point x="281" y="1005" type="line"/>
      <point x="570" y="1153" type="line"/>
      <point x="665" y="1060"/>
      <point x="735" y="950"/>
      <point x="772" y="805" type="curve"/>
      <point x="707" y="885"/>
      <point x="615" y="921"/>
      <point x="519" y="921" type="curve" smooth="yes"/>
      <point x="291" y="921"/>
      <point x="100" y="743"/>
      <point x="100" y="460" type="curve" smooth="yes"/>
      <point x="100" y="161"/>
      <point x="314" y="-25"/>
      <point x="554" y="-25" type="curve" smooth="yes"/>
      <point x="833" y="-25"/>
      <point x="1012" y="205"/>
      <point x="1012" y="533" type="curve" smooth="yes"/>
      <point x="1012" y="850"/>
      <point x="898" y="1071"/>
      <point x="735" y="1236" type="curve"/>
    </contour>
    <contour>
      <point x="560" y="155" type="curve" smooth="yes"/>
      <point x="421" y="155"/>
      <point x="303" y="271"/>
      <point x="303" y="460" type="curve" smooth="yes"/>
      <point x="303" y="638"/>
      <point x="400" y="755"/>
      <point x="558" y="755" type="curve" smooth="yes"/>
      <point x="642" y="755"/>
      <point x="723" y="729"/>
      <point x="802" y="628" type="curve"/>
      <point x="804" y="595"/>
      <point x="805" y="560"/>
      <point x="805" y="523" type="curve" smooth="yes"/>
      <point x="805" y="295"/>
      <point x="718" y="155"/>
    </contour>
  </outline>
</glyph>
<glyph name="aogonek" format="2">
  <advance width="1066"/>
  <unicode hex="0105"/>
  <outline>
    <contour>
      <point x="918" y="-262" type="line"/>
      <point x="895" y="-276"/>
      <point x="869" y="-287"/>
      <point x="839" y="-287" type="curve" smooth="yes"/>
      <point x="792" y="-287"/>
      <point x="747" y="-260"/>
      <point x="747" y="-199" type="curve" smooth="yes"/>
      <point x="747" y="-127"/>
      <point x="805" y="-42"/>
      <point x="926" y="0" type="curve"/>
      <point x="926" y="599" type="line"/>
      <point x="926" y="871"/>
      <point x="808" y="1028"/>
      <point x="558" y="1028" type="curve" smooth="yes"/>
      <point x="398" y="1028"/>
      <point x="256" y="963"/>
      <point x="150" y="897" type="curve"/>
      <point x="232" y="749" type="line"/>
      <point x="318" y="804"/>
      <point x="415" y="850"/>
      <point x="519" y="850" type="curve" smooth="yes"/>
      <point x="661" y="850"/>
      <point x="705" y="752"/>
      <point x="707" y="639" type="curve"/>
      <point x="291" y="595"/>
      <point x="110" y="483"/>
      <point x="110" y="267" type="curve" smooth="yes"/>
      <point x="110" y="92"/>
      <point x="232" y="-25"/>
      <point x="406" y="-25" type="curve" smooth="yes"/>
      <point x="526" y="-25"/>
      <point x="631" y="36"/>
      <point x="723" y="113" type="curve"/>
      <point x="728" y="113" type="line"/>
      <point x="749" y="3" type="line"/>
      <point x="679" y="-41"/>
      <point x="593" y="-132"/>
      <point x="593" y="-246" type="curve" smooth="yes"/>
      <point x="593" y="-364"/>
      <point x="680" y="-425"/>
      <point x="790" y="-425" type="curve" smooth="yes"/>
      <point x="847" y="-425"/>
      <point x="924" y="-399"/>
      <point x="968" y="-365" type="curve"/>
    </contour>
    <contour>
      <point x="707" y="263" type="line"/>
      <point x="627" y="190"/>
      <point x="560" y="148"/>
      <point x="475" y="148" type="curve" smooth="yes"/>
      <point x="386" y="148"/>
      <point x="322" y="189"/>
      <point x="322" y="283" type="curve" smooth="yes"/>
      <point x="322" y="392"/>
      <point x="418" y="466"/>
      <point x="707" y="502" type="curve"/>
    </contour>
  </outline>
</glyph>
<glyph name="Eogonek" format="2">
  <advance width="1088"/>
  <unicode hex="0118"/>
  <outline>
    <contour>
      <point x="968" y="-265" type="line"/>
      <point x="946" y="-282"/>
      <point x="920" y="-294"/>
      <point x="890" y="-294" type="curve" smooth="yes"/>
      <point x="843" y="-294"/>
      <point x="796" y="-266"/>
      <point x="796" y="-206" type="curve" smooth="yes"/>
      <point x="796" y="-105"/>
      <point x="887" y="-9"/>
      <point x="980" y="0" type="curve" smooth="yes"/>
      <point x="989" y="0" type="line"/>
      <point x="989" y="187" type="line"/>
      <point x="392" y="187" type="line"/>
      <point x="392" y="606" type="line"/>
      <point x="879" y="606" type="line"/>
      <point x="879" y="791" type="line"/>
      <point x="392" y="791" type="line"/>
      <point x="392" y="1155" type="line"/>
      <point x="968" y="1155" type="line"/>
      <point x="968" y="1340" type="line"/>
      <point x="170" y="1340" type="line"/>
      <point x="170" y="0" type="line"/>
      <point x="788" y="0" type="line"/>
      <point x="713" y="-47"/>
      <point x="631" y="-141"/>
      <point x="631" y="-259" type="curve" smooth="yes"/>
      <point x="631" y="-378"/>
      <point x="725" y="-443"/>
      <point x="841" y="-443" type="curve" smooth="yes"/>
      <point x="902" y="-443"/>
      <point x="980" y="-415"/>
      <point x="1025" y="-380" type="curve"/>
    </contour>
  </outline>
</glyph>
<glyph name="Hbar" format="2">
  <advance width="1420"/>
  <unicode hex="0126"/>
  <outline>
    <contour>
      <point x="208" y="0" type="line"/>
      <point x="428" y="0" type="line"/>
      <point x="428" y="604" type="line"/>
      <point x="990" y="604" type="line"/>
      <point x="990" y="0" type="line"/>
      <point x="1212" y="0" type="line"/>
      <point x="1212" y="1003" type="line"/>
      <point x="1362" y="1003" type="line"/>
      <point x="1362" y="1118" type="line"/>
      <point x="1212" y="1118" type="line"/>
      <point x="1212" y="1340" type="line"/>
      <point x="990" y="1340" type="line"/>
      <point x="990" y="1118" type="line"/>
      <point x="428" y="1118" type="line"/>
      <point x="428" y="1340" type="line"/>
      <point x="208" y="1340" type="line"/>
      <point x="208" y="1118" type="line"/>
      <point x="56" y="1118" type="line"/>
      <point x="56" y="1003" type="line"/>
      <point x="208" y="1003" type="line"/>
    </contour>
    <contour>
      <point x="428" y="796" type="line"/>
      <point x="428" y="1003" type="line"/>
      <point x="990" y="1003" type="line"/>
      <point x="990" y="796" type="line"/>
    </contour>
  </outline>
</glyph>
<glyph name="hbar" format="2">
  <advance width="1135"/>
  <unicode hex="0127"/>
  <outline>
    <contour>
      <point x="155" y="0" type="line"/>
      <point x="373" y="0" type="line"/>
      <point x="373" y="667" type="line"/>
      <point x="460" y="753"/>
      <point x="522" y="799"/>
      <point x="614" y="799" type="curve" smooth="yes"/>
      <point x="728" y="799"/>
      <point x="778" y="733"/>
      <point x="778" y="561" type="curve" smooth="yes"/>
      <point x="778" y="0" type="line"/>
      <point x="997" y="0" type="line"/>
      <point x="997" y="590" type="line"/>
      <point x="997" y="844"/>
      <point x="902" y="987"/>
      <point x="689" y="987" type="curve" smooth="yes"/>
      <point x="551" y="987"/>
      <point x="451" y="914"/>
      <point x="364" y="832" type="curve"/>
      <point x="373" y="1028" type="line"/>
      <point x="373" y="1158" type="line"/>
      <point x="544" y="1158" type="line"/>
      <point x="544" y="1274" type="line"/>
      <point x="373" y="1274" type="line"/>
      <point x="373" y="1450" type="line"/>
      <point x="155" y="1450" type="line"/>
      <point x="155" y="1273" type="line"/>
      <point x="8" y="1273" type="line"/>
      <point x="8" y="1158" type="line"/>
      <point x="155" y="1158" type="line"/>
    </contour>
  </outline>
</glyph>
<glyph name="Iogonek" format="2">
  <advance width="561"/>
  <unicode hex="012E"/>
  <outline>
    <contour>
      <point x="422" y="-265" type="line"/>
      <point x="400" y="-282"/>
      <point x="373" y="-294"/>
      <point x="342" y="-294" type="curve" smooth="yes"/>
      <point x="296" y="-294"/>
      <point x="249" y="-266"/>
      <point x="249" y="-206" type="curve" smooth="yes"/>
      <point x="249" y="-127"/>
      <point x="296" y="-58"/>
      <point x="392" y="0" type="curve"/>
      <point x="392" y="1340" type="line"/>
      <point x="170" y="1340" type="line"/>
      <point x="170" y="0" type="line"/>
      <point x="226" y="0" type="line"/>
      <point x="163" y="-53"/>
      <point x="85" y="-137"/>
      <point x="85" y="-259" type="curve" smooth="yes"/>
      <point x="85" y="-378"/>
      <point x="177" y="-443"/>
      <point x="294" y="-443" type="curve" smooth="yes"/>
      <point x="356" y="-443"/>
      <point x="433" y="-415"/>
      <point x="477" y="-380" type="curve"/>
    </contour>
  </outline>
</glyph>
<glyph name="iogonek" format="2">
  <advance width="527"/>
  <unicode hex="012F"/>
  <outline>
    <contour>
      <point x="406" y="-262" type="line"/>
      <point x="380" y="-276"/>
      <point x="356" y="-287"/>
      <point x="328" y="-287" type="curve" smooth="yes"/>
      <point x="279" y="-287"/>
      <point x="235" y="-259"/>
      <point x="235" y="-199" type="curve" smooth="yes"/>
      <point x="235" y="-127"/>
      <point x="281" y="-52"/>
      <point x="373" y="0" type="curve"/>
      <point x="373" y="1003" type="line"/>
      <point x="155" y="1003" type="line"/>
      <point x="155" y="0" type="line"/>
      <point x="212" y="0" type="line"/>
      <point x="157" y="-51"/>
      <point x="80" y="-132"/>
      <point x="80" y="-246" type="curve" smooth="yes"/>
      <point x="80" y="-364"/>
      <point x="168" y="-425"/>
      <point x="278" y="-425" type="curve" smooth="yes"/>
      <point x="334" y="-425"/>
      <point x="412" y="-399"/>
      <point x="456" y="-365" type="curve"/>
    </contour>
    <contour>
      <point x="264" y="1187" type="curve" smooth="yes"/>
      <point x="341" y="1187"/>
      <point x="401" y="1240"/>
      <point x="401" y="1314" type="curve" smooth="yes"/>
      <point x="401" y="1390"/>
      <point x="341" y="1441"/>
      <point x="264" y="1441" type="curve" smooth="yes"/>
      <point x="184" y="1441"/>
      <point x="125" y="1390"/>
      <point x="125" y="1314" type="curve" smooth="yes"/>
      <point x="125" y="1240"/>
      <point x="184" y="1187"/>
    </contour>
  </outline>
</glyph>
<glyph name="kgreenlandic" format="2">
  <advance width="1055"/>
  <unicode hex="0138"/>
  <outline>
    <contour>
      <point x="155" y="0" type="line"/>
      <point x="373" y="0" type="line"/>
      <point x="373" y="250" type="line"/>
      <point x="533" y="440" type="line"/>
      <point x="801" y="0" type="line"/>
      <point x="1039" y="0" type="line"/>
      <point x="665" y="597" type="line"/>
      <point x="1001" y="1003" type="line"/>
      <point x="761" y="1003" type="line"/>
      <point x="379" y="520" type="line"/>
      <point x="373" y="520" type="line"/>
      <point x="373" y="1003" type="line"/>
      <point x="155" y="1003" type="line"/>
    </contour>
  </outline>
</glyph>
<glyph name="Tbar" format="2">
  <advance width="1106"/>
  <unicode hex="0166"/>
  <anchor x="553" y="0" name="bottom"/>
  <anchor x="553" y="670" name="center"/>
  <anchor x="553" y="1340" name="top"/>
  <outline>
    <contour>
      <point x="236" y="486" type="line"/>
      <point x="859" y="486" type="line"/>
      <point x="859" y="661" type="line"/>
      <point x="236" y="661" type="line"/>
    </contour>
    <component base="T"/>
  </outline>
</glyph>
<glyph name="tbar" format="2">
  <advance width="727"/>
  <unicode hex="0167"/>
  <anchor x="371" y="-200" name="btm"/>
  <anchor x="625" y="1029" name="car"/>
  <anchor x="308" y="1029" name="top"/>
  <outline>
    <contour>
      <point x="46" y="486" type="line"/>
      <point x="669" y="486" type="line"/>
      <point x="669" y="661" type="line"/>
      <point x="46" y="661" type="line"/>
    </contour>
    <component base="t"/>
  </outline>
</glyph>
<glyph name="bstroke" format="2">
  <advance width="1135"/>
  <unicode hex="0180"/>
  <outline>
    <contour>
      <point x="373" y="1028" type="line"/>
      <point x="373" y="1158" type="line"/>
      <point x="736" y="1158" type="line"/>
      <point x="736" y="1274" type="line"/>
      <point x="373" y="1274" type="line"/>
      <point x="373" y="1450" type="line"/>
      <point x="155" y="1450" type="line"/>
      <point x="155" y="1273" type="line"/>
      <point x="8" y="1263" type="line"/>
      <point x="8" y="1158" type="line"/>
      <point x="155" y="1158" type="line"/>
      <point x="155" y="0" type="line"/>
      <point x="328" y="0" type="line"/>
      <point x="346" y="101" type="line"/>
      <point x="353" y="101" type="line"/>
      <point x="438" y="20"/>
      <point x="539" y="-25"/>
      <point x="630" y="-25" type="curve" smooth="yes"/>
      <point x="855" y="-25"/>
      <point x="1059" y="167"/>
      <point x="1059" y="499" type="curve" smooth="yes"/>
      <point x="1059" y="794"/>
      <point x="916" y="987"/>
      <point x="662" y="987" type="curve" smooth="yes"/>
      <point x="558" y="987"/>
      <point x="453" y="934"/>
      <point x="368" y="858" type="curve"/>
    </contour>
    <contour>
      <point x="373" y="687" type="line"/>
      <point x="454" y="766"/>
      <point x="529" y="806"/>
      <point x="604" y="806" type="curve" smooth="yes"/>
      <point x="767" y="806"/>
      <point x="833" y="687"/>
      <point x="833" y="495" type="curve" smooth="yes"/>
      <point x="833" y="275"/>
      <point x="727" y="157"/>
      <point x="586" y="157" type="curve" smooth="yes"/>
      <point x="526" y="157"/>
      <point x="448" y="180"/>
      <point x="373" y="246" type="curve"/>
    </contour>
  </outline>
</glyph>
<glyph name="Uhorn" format="2">
  <advance width="1360"/>
  <unicode hex="01AF"/>
  <anchor x="675" y="-200" name="btm"/>
  <anchor x="680" y="800" name="top"/>
  <outline>
    <contour>
      <point x="1166" y="1253" type="line"/>
      <point x="1295" y="1279"/>
      <point x="1402" y="1346"/>
      <point x="1402" y="1488" type="curve" smooth="yes"/>
      <point x="1402" y="1545"/>
      <point x="1378" y="1596"/>
      <point x="1350" y="1633" type="curve"/>
      <point x="1196" y="1562" type="line"/>
      <point x="1213" y="1536"/>
      <point x="1227" y="1506"/>
      <point x="1227" y="1474" type="curve" smooth="yes"/>
      <point x="1227" y="1375"/>
      <point x="1150" y="1351"/>
      <point x="1053" y="1340" type="curve"/>
      <point x="954" y="1340" type="line"/>
      <point x="954" y="565" type="line"/>
      <point x="954" y="265"/>
      <point x="833" y="167"/>
      <point x="665" y="167" type="curve" smooth="yes"/>
      <point x="500" y="167"/>
      <point x="385" y="265"/>
      <point x="385" y="565" type="curve" smooth="yes"/>
      <point x="385" y="1340" type="line"/>
      <point x="164" y="1340" type="line"/>
      <point x="164" y="579" type="line"/>
      <point x="164" y="141"/>
      <point x="364" y="-25"/>
      <point x="665" y="-25" type="curve" smooth="yes"/>
      <point x="967" y="-25"/>
      <point x="1166" y="141"/>
      <point x="1166" y="579" type="curve" smooth="yes"/>
    </contour>
  </outline>
</glyph>
<glyph name="jdotless" format="2">
  <advance width="532"/>
  <unicode hex="0237"/>
  <anchor x="143" y="-200" name="btm"/>
  <anchor x="271" y="800" name="top"/>
  <outline>
    <contour>
      <point x="378" y="1004" type="line"/>
      <point x="156" y="1004" type="line"/>
      <point x="156" y="-67" type="line"/>
      <point x="156" y="-184"/>
      <point x="130" y="-249"/>
      <point x="40" y="-249" type="curve" smooth="yes"/>
      <point x="7" y="-249"/>
      <point x="-24" y="-242"/>
      <point x="-49" y="-234" type="curve"/>
      <point x="-91" y="-399" type="line"/>
      <point x="-54" y="-414"/>
      <point x="-2" y="-426"/>
      <point x="69" y="-426" type="curve" smooth="yes"/>
      <point x="299" y="-426"/>
      <point x="378" y="-274"/>
      <point x="378" y="-64" type="curve" smooth="yes"/>
    </contour>
  </outline>
</glyph>
<glyph name="j.sups" format="2">
  <advance width="362"/>
  <unicode hex="02B2"/>
  <outline>
    <contour>
      <point x="263" y="1197" type="line"/>
      <point x="103" y="1197" type="line"/>
      <point x="103" y="486" type="line"/>
      <point x="103" y="410"/>
      <point x="87" y="372"/>
      <point x="28" y="372" type="curve" smooth="yes"/>
      <point x="2" y="372"/>
      <point x="-13" y="376"/>
      <point x="-29" y="382" type="curve"/>
      <point x="-59" y="259" type="line"/>
      <point x="-29" y="250"/>
      <point x="-1" y="243"/>
      <point x="50" y="243" type="curve" smooth="yes"/>
      <point x="207" y="243"/>
      <point x="263" y="348"/>
      <point x="263" y="494" type="curve" smooth="yes"/>
    </contour>
    <contour>
      <point x="184" y="1311" type="curve" smooth="yes"/>
      <point x="241" y="1311"/>
      <point x="283" y="1349"/>
      <point x="283" y="1402" type="curve" smooth="yes"/>
      <point x="283" y="1454"/>
      <point x="241" y="1492"/>
      <point x="184" y="1492" type="curve" smooth="yes"/>
      <point x="126" y="1492"/>
      <point x="85" y="1454"/>
      <point x="85" y="1402" type="curve" smooth="yes"/>
      <point x="85" y="1349"/>
      <point x="126" y="1311"/>
    </contour>
  </outline>
</glyph>
<glyph name="w.sups" format="2">
  <advance width="1025"/>
  <unicode hex="02B7"/>
  <outline>
    <contour>
      <point x="210" y="532" type="line"/>
      <point x="396" y="532" type="line"/>
      <point x="473" y="839" type="line"/>
      <point x="512" y="1025" type="line"/>
      <point x="516" y="1025" type="line"/>
      <point x="555" y="839" type="line"/>
      <point x="632" y="532" type="line"/>
      <point x="821" y="532" type="line"/>
      <point x="993" y="1197" type="line"/>
      <point x="844" y="1197" type="line"/>
      <point x="767" y="855" type="line"/>
      <point x="728" y="661" type="line"/>
      <point x="720" y="661" type="line"/>
      <point x="677" y="855" type="line"/>
      <point x="583" y="1197" type="line"/>
      <point x="447" y="1197" type="line"/>
      <point x="358" y="855" type="line"/>
      <point x="316" y="661" type="line"/>
      <point x="309" y="661" type="line"/>
      <point x="273" y="855" type="line"/>
      <point x="195" y="1197" type="line"/>
      <point x="33" y="1197" type="line"/>
    </contour>
  </outline>
</glyph>
<glyph name="y.sups" format="2">
  <advance width="680"/>
  <unicode hex="02B8"/>
  <outline>
    <contour>
      <point x="664" y="1197" type="line"/>
      <point x="509" y="1197" type="line"/>
      <point x="414" y="876" type="line"/>
      <point x="395" y="813"/>
      <point x="376" y="752"/>
      <point x="359" y="686" type="curve"/>
      <point x="351" y="686" type="line"/>
      <point x="331" y="753"/>
      <point x="313" y="813"/>
      <point x="292" y="876" type="curve" smooth="yes"/>
      <point x="177" y="1197" type="line"/>
      <point x="16" y="1197" type="line"/>
      <point x="283" y="544" type="line"/>
      <point x="270" y="507" type="line"/>
      <point x="249" y="441"/>
      <point x="205" y="392"/>
      <point x="136" y="392" type="curve" smooth="yes"/>
      <point x="120" y="392"/>
      <point x="107" y="394"/>
      <point x="87" y="403" type="curve"/>
      <point x="57" y="278" type="line"/>
      <point x="84" y="270"/>
      <point x="111" y="266"/>
      <point x="147" y="266" type="curve" smooth="yes"/>
      <point x="296" y="266"/>
      <point x="369" y="358"/>
      <point x="425" y="510" type="curve" smooth="yes"/>
    </contour>
  </outline>
</glyph>
<glyph name="ringhalfleft" format="2">
  <advance width="337"/>
  <unicode hex="02BF"/>
  <outline>
    <contour>
      <point x="277" y="1203" type="line"/>
      <point x="185" y="1203"/>
      <point x="151" y="1247"/>
      <point x="151" y="1312" type="curve" smooth="yes"/>
      <point x="151" y="1376"/>
      <point x="185" y="1421"/>
      <point x="277" y="1421" type="curve"/>
      <point x="277" y="1508" type="line"/>
      <point x="118" y="1514"/>
      <point x="36" y="1433"/>
      <point x="36" y="1312" type="curve" smooth="yes"/>
      <point x="36" y="1190"/>
      <point x="118" y="1109"/>
      <point x="277" y="1115" type="curve"/>
    </contour>
  </outline>
</glyph>
<glyph name="verticallinelowmod" format="2">
  <advance width="237"/>
  <unicode hex="02CC"/>
  <outline>
    <contour>
      <point x="48" y="-514" type="line"/>
      <point x="189" y="-514" type="line"/>
      <point x="177" y="-149" type="line"/>
      <point x="61" y="-149" type="line"/>
    </contour>
  </outline>
</glyph>
<glyph name="breve" format="2">
  <advance width="1120"/>
  <unicode hex="02D8"/>
  <anchor x="560" y="800" name="_top"/>
  <outline>
    <contour>
      <point x="700" y="1446" type="line"/>
      <point x="690" y="1372"/>
      <point x="647" y="1305"/>
      <point x="560" y="1305" type="curve" smooth="yes"/>
      <point x="473" y="1305"/>
      <point x="431" y="1372"/>
      <point x="420" y="1446" type="curve"/>
      <point x="292" y="1446" type="line"/>
      <point x="299" y="1315"/>
      <point x="378" y="1177"/>
      <point x="560" y="1177" type="curve" smooth="yes"/>
      <point x="742" y="1177"/>
      <point x="821" y="1315"/>
      <point x="829" y="1446" type="curve"/>
    </contour>
  </outline>
</glyph>
<glyph name="dotaccent" format="2">
  <advance width="1120"/>
  <unicode hex="02D9"/>
  <anchor x="560" y="800" name="_top"/>
  <outline>
    <contour>
      <point x="560" y="1187" type="curve" smooth="yes"/>
      <point x="636" y="1187"/>
      <point x="692" y="1240"/>
      <point x="692" y="1316" type="curve" smooth="yes"/>
      <point x="692" y="1390"/>
      <point x="636" y="1444"/>
      <point x="560" y="1444" type="curve" smooth="yes"/>
      <point x="484" y="1444"/>
      <point x="428" y="1390"/>
      <point x="428" y="1316" type="curve" smooth="yes"/>
      <point x="428" y="1240"/>
      <point x="484" y="1187"/>
    </contour>
  </outline>
</glyph>
<glyph name="tilde" format="2">
  <advance width="1120"/>
  <unicode hex="02DC"/>
  <anchor x="560" y="800" name="_top"/>
  <outline>
    <contour>
      <point x="373" y="1183" type="line"/>
      <point x="382" y="1253"/>
      <point x="403" y="1284"/>
      <point x="442" y="1284" type="curve" smooth="yes"/>
      <point x="508" y="1284"/>
      <point x="584" y="1184"/>
      <point x="689" y="1184" type="curve" smooth="yes"/>
      <point x="792" y="1184"/>
      <point x="856" y="1276"/>
      <point x="866" y="1422" type="curve"/>
      <point x="748" y="1422" type="line"/>
      <point x="739" y="1354"/>
      <point x="717" y="1323"/>
      <point x="678" y="1323" type="curve" smooth="yes"/>
      <point x="614" y="1323"/>
      <point x="539" y="1421"/>
      <point x="433" y="1421" type="curve" smooth="yes"/>
      <point x="331" y="1421"/>
      <point x="263" y="1330"/>
      <point x="254" y="1183" type="curve"/>
    </contour>
  </outline>
</glyph>
<glyph name="hungarumlaut" format="2">
  <advance width="1120"/>
  <unicode hex="02DD"/>
  <anchor x="550" y="800" name="_top"/>
  <outline>
    <contour>
      <point x="338" y="1171" type="line"/>
      <point x="478" y="1171" type="line"/>
      <point x="664" y="1470" type="line"/>
      <point x="482" y="1470" type="line"/>
    </contour>
    <contour>
      <point x="658" y="1171" type="line"/>
      <point x="798" y="1171" type="line"/>
      <point x="983" y="1470" type="line"/>
      <point x="802" y="1470" type="line"/>
    </contour>
  </outline>
</glyph>
<glyph name="l.sups" format="2">
  <advance width="372"/>
  <unicode hex="02E1"/>
  <outline>
    <contour>
      <point x="320" y="649" type="line"/>
      <point x="308" y="645"/>
      <point x="300" y="645"/>
      <point x="292" y="645" type="curve" smooth="yes"/>
      <point x="272" y="645"/>
      <point x="258" y="660"/>
      <point x="258" y="699" type="curve" smooth="yes"/>
      <point x="258" y="1488" type="line"/>
      <point x="98" y="1488" type="line"/>
      <point x="98" y="709" type="line"/>
      <point x="98" y="591"/>
      <point x="138" y="516"/>
      <point x="256" y="516" type="curve" smooth="yes"/>
      <point x="295" y="516"/>
      <point x="320" y="523"/>
      <point x="340" y="531" type="curve"/>
    </contour>
  </outline>
</glyph>
<glyph name="acutecomb" format="2">
  <unicode hex="0301"/>
  <anchor x="-545" y="1003" name="_top"/>
  <anchor x="-543" y="1470" name="top"/>
  <outline>
    <contour>
      <point x="-746" y="1175" type="line"/>
      <point x="-583" y="1175" type="line"/>
      <point x="-343" y="1470" type="line"/>
      <point x="-563" y="1470" type="line"/>
    </contour>
  </outline>
</glyph>
<glyph name="tildecomb" format="2">
  <unicode hex="0303"/>
  <anchor x="-600" y="1003" name="_top"/>
  <anchor x="-598" y="1422" name="top"/>
  <outline>
    <contour>
      <point x="-788" y="1183" type="line"/>
      <point x="-775" y="1251"/>
      <point x="-754" y="1282"/>
      <point x="-715" y="1282" type="curve" smooth="yes"/>
      <point x="-648" y="1282"/>
      <point x="-584" y="1183"/>
      <point x="-478" y="1183" type="curve" smooth="yes"/>
      <point x="-375" y="1183"/>
      <point x="-309" y="1276"/>
      <point x="-294" y="1422" type="curve"/>
      <point x="-412" y="1422" type="line"/>
      <point x="-425" y="1354"/>
      <point x="-446" y="1323"/>
      <point x="-485" y="1323" type="curve" smooth="yes"/>
      <point x="-549" y="1323"/>
      <point x="-616" y="1422"/>
      <point x="-722" y="1422" type="curve" smooth="yes"/>
      <point x="-825" y="1422"/>
      <point x="-891" y="1330"/>
      <point x="-906" y="1183" type="curve"/>
    </contour>
  </outline>
</glyph>
<glyph name="dblgravecomb" format="2">
  <unicode hex="030F"/>
  <anchor x="-701" y="1003" name="_top"/>
  <anchor x="-699" y="1470" name="top"/>
  <outline>
    <contour>
      <point x="-838" y="1171" type="line"/>
      <point x="-697" y="1171" type="line"/>
      <point x="-841" y="1470" type="line"/>
      <point x="-1024" y="1470" type="line"/>
    </contour>
    <contour>
      <point x="-518" y="1171" type="line"/>
      <point x="-378" y="1171" type="line"/>
      <point x="-520" y="1470" type="line"/>
      <point x="-704" y="1470" type="line"/>
    </contour>
  </outline>
</glyph>
<glyph name="commaturnedabovecomb" format="2">
  <unicode hex="0312"/>
  <anchor x="-610" y="1003" name="_top"/>
  <anchor x="-608" y="1518" name="top"/>
  <outline>
    <contour>
      <point x="-541" y="1518" type="line"/>
      <point x="-665" y="1465"/>
      <point x="-720" y="1371"/>
      <point x="-720" y="1267" type="curve" smooth="yes"/>
      <point x="-720" y="1168"/>
      <point x="-680" y="1115"/>
      <point x="-604" y="1115" type="curve" smooth="yes"/>
      <point x="-554" y="1115"/>
      <point x="-512" y="1152"/>
      <point x="-512" y="1217" type="curve" smooth="yes"/>
      <point x="-512" y="1275"/>
      <point x="-558" y="1307"/>
      <point x="-605" y="1307" type="curve" smooth="yes"/>
      <point x="-610" y="1307"/>
      <point x="-615" y="1307"/>
      <point x="-621" y="1305" type="curve"/>
      <point x="-615" y="1364"/>
      <point x="-578" y="1410"/>
      <point x="-500" y="1442" type="curve"/>
    </contour>
  </outline>
</glyph>
<glyph name="horncomb" format="2">
  <unicode hex="031B"/>
  <anchor x="-452" y="1003" name="_topright"/>
  <anchor x="-452" y="1003" name="topright"/>
  <outline>
    <contour>
      <point x="-600" y="885" type="line"/>
      <point x="-424" y="899"/>
      <point x="-285" y="970"/>
      <point x="-285" y="1130" type="curve" smooth="yes"/>
      <point x="-285" y="1188"/>
      <point x="-309" y="1238"/>
      <point x="-337" y="1275" type="curve"/>
      <point x="-491" y="1204" type="line"/>
      <point x="-475" y="1179"/>
      <point x="-460" y="1148"/>
      <point x="-460" y="1115" type="curve" smooth="yes"/>
      <point x="-460" y="1031"/>
      <point x="-517" y="998"/>
      <point x="-619" y="983" type="curve"/>
    </contour>
  </outline>
</glyph>
<glyph name="dieresisbelowcomb" format="2">
  <unicode hex="0324"/>
  <anchor x="0" y="-200" name="_btm"/>
  <outline>
    <contour>
      <point x="186" y="-423" type="curve" smooth="yes"/>
      <point x="255" y="-423"/>
      <point x="303" y="-372"/>
      <point x="303" y="-306" type="curve" smooth="yes"/>
      <point x="303" y="-241"/>
      <point x="255" y="-190"/>
      <point x="186" y="-190" type="curve" smooth="yes"/>
      <point x="119" y="-190"/>
      <point x="70" y="-241"/>
      <point x="70" y="-306" type="curve" smooth="yes"/>
      <point x="70" y="-372"/>
      <point x="119" y="-423"/>
    </contour>
    <contour>
      <point x="-186" y="-423" type="curve" smooth="yes"/>
      <point x="-119" y="-423"/>
      <point x="-70" y="-372"/>
      <point x="-70" y="-306" type="curve" smooth="yes"/>
      <point x="-70" y="-241"/>
      <point x="-119" y="-190"/>
      <point x="-186" y="-190" type="curve" smooth="yes"/>
      <point x="-255" y="-190"/>
      <point x="-303" y="-241"/>
      <point x="-303" y="-306" type="curve" smooth="yes"/>
      <point x="-303" y="-372"/>
      <point x="-255" y="-423"/>
    </contour>
  </outline>
</glyph>
<glyph name="brevebelowcomb" format="2">
  <unicode hex="032E"/>
  <anchor x="0" y="-200" name="_btm"/>
  <outline>
    <contour>
      <point x="140" y="-156" type="line"/>
      <point x="130" y="-231"/>
      <point x="87" y="-298"/>
      <point x="0" y="-298" type="curve" smooth="yes"/>
      <point x="-87" y="-298"/>
      <point x="-130" y="-231"/>
      <point x="-140" y="-156" type="curve"/>
      <point x="-268" y="-156" type="line"/>
      <point x="-261" y="-288"/>
      <point x="-181" y="-425"/>
      <point x="0" y="-425" type="curve" smooth="yes"/>
      <point x="181" y="-425"/>
      <point x="261" y="-288"/>
      <point x="268" y="-156" type="curve"/>
    </contour>
  </outline>
</glyph>
<glyph name="macronbelowcomb" format="2">
  <unicode hex="0331"/>
  <anchor x="0" y="-200" name="_btm"/>
  <outline>
    <contour>
      <point x="-264" y="-364" type="line"/>
      <point x="265" y="-364" type="line"/>
      <point x="265" y="-217" type="line"/>
      <point x="-264" y="-217" type="line"/>
    </contour>
  </outline>
</glyph>
<glyph name="Delta" format="2">
  <advance width="1257"/>
  <unicode hex="0394"/>
  <outline>
    <contour>
      <point x="64" y="0" type="line"/>
      <point x="1195" y="0" type="line"/>
      <point x="1195" y="133" type="line"/>
      <point x="759" y="1352" type="line"/>
      <point x="499" y="1352" type="line"/>
      <point x="64" y="133" type="line"/>
    </contour>
    <contour>
      <point x="314" y="187" type="line"/>
      <point x="507" y="749" type="line"/>
      <point x="626" y="1135" type="line"/>
      <point x="634" y="1135" type="line"/>
      <point x="752" y="749" type="line"/>
      <point x="945" y="187" type="line"/>
    </contour>
  </outline>
</glyph>
<glyph name="Omega" format="2">
  <advance width="1438"/>
  <unicode hex="03A9"/>
  <outline>
    <contour>
      <point x="87" y="0" type="line"/>
      <point x="605" y="0" type="line"/>
      <point x="605" y="147" type="line"/>
      <point x="449" y="269"/>
      <point x="345" y="451"/>
      <point x="345" y="716" type="curve" smooth="yes"/>
      <point x="345" y="998"/>
      <point x="486" y="1185"/>
      <point x="718" y="1185" type="curve" smooth="yes"/>
      <point x="950" y="1185"/>
      <point x="1093" y="998"/>
      <point x="1093" y="716" type="curve" smooth="yes"/>
      <point x="1093" y="451"/>
      <point x="988" y="269"/>
      <point x="832" y="147" type="curve"/>
      <point x="832" y="0" type="line"/>
      <point x="1350" y="0" type="line"/>
      <point x="1350" y="179" type="line"/>
      <point x="1092" y="179" type="line"/>
      <point x="1092" y="187" type="line"/>
      <point x="1199" y="293"/>
      <point x="1320" y="476"/>
      <point x="1320" y="726" type="curve" smooth="yes"/>
      <point x="1320" y="1128"/>
      <point x="1079" y="1376"/>
      <point x="718" y="1376" type="curve" smooth="yes"/>
      <point x="359" y="1376"/>
      <point x="118" y="1128"/>
      <point x="118" y="726" type="curve" smooth="yes"/>
      <point x="118" y="476"/>
      <point x="238" y="293"/>
      <point x="344" y="187" type="curve"/>
      <point x="344" y="179" type="line"/>
      <point x="87" y="179" type="line"/>
    </contour>
  </outline>
</glyph>
<glyph name="a-deva" format="2">
  <advance width="1398"/>
  <unicode hex="0905"/>
  <anchor x="1117" y="27" name="bottom"/>
  <anchor x="1118" y="1167" name="candra"/>
  <anchor x="1118" y="1167" name="top"/>
  <outline>
    <contour>
      <point x="278" y="740" type="line"/>
      <point x="498" y="674"/>
      <point x="570" y="611"/>
      <point x="570" y="479" type="curve" smooth="yes"/>
      <point x="570" y="381"/>
      <point x="503" y="316"/>
      <point x="391" y="316" type="curve" smooth="yes"/>
      <point x="309" y="316"/>
      <point x="214" y="343"/>
      <point x="96" y="436" type="curve"/>
      <point x="-3" y="303" type="line"/>
      <point x="134" y="180"/>
      <point x="262" y="128"/>
      <point x="407" y="128" type="curve" smooth="yes"/>
      <point x="614" y="128"/>
      <point x="780" y="259"/>
      <point x="780" y="457" type="curve" smooth="yes"/>
      <point x="780" y="657"/>
      <point x="633" y="767"/>
      <point x="393" y="777" type="curve"/>
    </contour>
    <contour>
      <point x="248" y="638" type="line"/>
      <point x="324" y="635"/>
      <point x="445" y="642"/>
      <point x="550" y="711" type="curve" smooth="yes"/>
      <point x="663" y="781"/>
      <point x="728" y="865"/>
      <point x="728" y="1018" type="curve" smooth="yes"/>
      <point x="728" y="1200"/>
      <point x="598" y="1306"/>
      <point x="399" y="1306" type="curve" smooth="yes"/>
      <point x="289" y="1306"/>
      <point x="200" y="1280"/>
      <point x="99" y="1239" type="curve"/>
      <point x="158" y="1074" type="line"/>
      <point x="261" y="1114"/>
      <point x="331" y="1128"/>
      <point x="390" y="1128" type="curve" smooth="yes"/>
      <point x="482" y="1128"/>
      <point x="536" y="1090"/>
      <point x="536" y="1004" type="curve" smooth="yes"/>
      <point x="536" y="905"/>
      <point x="480" y="840"/>
      <point x="304" y="819" type="curve" smooth="yes"/>
      <point x="279" y="815"/>
      <point x="265" y="813"/>
      <point x="235" y="811" type="curve"/>
    </contour>
    <contour>
      <point x="705" y="526" type="line"/>
      <point x="817" y="502"/>
      <point x="1006" y="529"/>
      <point x="1113" y="613" type="curve"/>
      <point x="1112" y="822" type="line"/>
      <point x="929" y="684"/>
      <point x="793" y="670"/>
      <point x="622" y="688" type="curve"/>
    </contour>
    <contour>
      <point x="1011" y="1" type="line"/>
      <point x="1223" y="1" type="line"/>
      <point x="1223" y="1216" type="line"/>
      <point x="1011" y="1216" type="line"/>
    </contour>
    <contour>
      <point x="851" y="1104" type="line"/>
      <point x="1417" y="1104" type="line"/>
      <point x="1417" y="1287" type="line"/>
      <point x="851" y="1287" type="line"/>
    </contour>
  </outline>
</glyph>
<glyph name="uu-deva" format="2">
  <advance width="1365"/>
  <unicode hex="090A"/>
  <anchor x="761" y="27" name="bottom"/>
  <anchor x="754" y="1167" name="candra"/>
  <anchor x="564" y="1167" name="top"/>
  <outline>
    <contour>
      <point x="1131" y="20" type="line"/>
      <point x="1248" y="125"/>
      <point x="1312" y="264"/>
      <point x="1312" y="400" type="curve" smooth="yes"/>
      <point x="1312" y="625"/>
      <point x="1168" y="719"/>
      <point x="1027" y="719" type="curve" smooth="yes"/>
      <point x="905" y="719"/>
      <point x="808" y="671"/>
      <point x="713" y="543" type="curve"/>
      <point x="735" y="235" type="line"/>
      <point x="861" y="493"/>
      <point x="939" y="540"/>
      <point x="1011" y="540" type="curve" smooth="yes"/>
      <point x="1088" y="540"/>
      <point x="1123" y="498"/>
      <point x="1123" y="414" type="curve" smooth="yes"/>
      <point x="1123" y="314"/>
      <point x="1069" y="230"/>
      <point x="992" y="136" type="curve"/>
    </contour>
    <contour>
      <point x="530" y="1104" type="line"/>
      <point x="1384" y="1104" type="line"/>
      <point x="1384" y="1287" type="line"/>
      <point x="530" y="1287" type="line"/>
    </contour>
    <component base="u-deva"/>
  </outline>
</glyph>
<glyph name="e-deva" format="2">
  <advance width="1059"/>
  <unicode hex="090F"/>
  <anchor x="582" y="54" name="bottom"/>
  <anchor x="542" y="1287" name="candra"/>
  <anchor x="830" y="1167" name="top"/>
  <outline>
    <contour>
      <point x="658" y="-222" type="line"/>
      <point x="757" y="-146"/>
      <point x="798" y="-55"/>
      <point x="800" y="27.909" type="curve" smooth="yes"/>
      <point x="802" y="114"/>
      <point x="761" y="200"/>
      <point x="674" y="278" type="curve" smooth="yes"/>
      <point x="458" y="476" type="line" smooth="yes"/>
      <point x="341" y="583"/>
      <point x="331" y="637"/>
      <point x="331" y="717" type="curve" smooth="yes"/>
      <point x="331" y="1142" type="line"/>
      <point x="123" y="1142" type="line"/>
      <point x="123" y="717" type="line" smooth="yes"/>
      <point x="123" y="537"/>
      <point x="169" y="476"/>
      <point x="289" y="364" type="curve" smooth="yes"/>
      <point x="517" y="153" type="line"/>
      <point x="569" y="107"/>
      <point x="590" y="60"/>
      <point x="589" y="15" type="curve" smooth="yes"/>
      <point x="588" y="-34"/>
      <point x="560" y="-67"/>
      <point x="523" y="-107" type="curve"/>
    </contour>
    <contour>
      <point x="704" y="402" type="line"/>
      <point x="881" y="495"/>
      <point x="942" y="609"/>
      <point x="942" y="760" type="curve" smooth="yes"/>
      <point x="942" y="1208" type="line"/>
      <point x="731" y="1208" type="line"/>
      <point x="731" y="750" type="line" smooth="yes"/>
      <point x="731" y="667"/>
      <point x="698" y="621"/>
      <point x="587" y="563" type="curve"/>
    </contour>
    <contour>
      <point x="-20" y="1105" type="line"/>
      <point x="1077" y="1105" type="line"/>
      <point x="1077" y="1287" type="line"/>
      <point x="-20" y="1287" type="line"/>
    </contour>
  </outline>
</glyph>
<glyph name="kha-deva" format="2">
  <advance width="1622"/>
  <unicode hex="0916"/>
  <anchor x="1342" y="27" name="bottom"/>
  <anchor x="884" y="1168" name="candra"/>
  <anchor x="126" y="82" name="nukta"/>
  <anchor x="1342" y="1168" name="top"/>
  <outline>
    <contour>
      <point x="1010" y="151" type="line"/>
      <point x="949" y="137"/>
      <point x="879" y="124"/>
      <point x="809" y="124" type="curve" smooth="yes"/>
      <point x="597" y="124"/>
      <point x="431" y="234"/>
      <point x="292" y="575" type="curve"/>
      <point x="273" y="540" type="line"/>
      <point x="289" y="533"/>
      <point x="317" y="519"/>
      <point x="360" y="519" type="curve" smooth="yes"/>
      <point x="443" y="519"/>
      <point x="563" y="563"/>
      <point x="563" y="785" type="curve" smooth="yes"/>
      <point x="563" y="1166" type="line"/>
      <point x="353" y="1166" type="line"/>
      <point x="353" y="800" type="line" smooth="yes"/>
      <point x="353" y="726"/>
      <point x="331" y="689"/>
      <point x="281" y="689" type="curve" smooth="yes"/>
      <point x="249" y="689"/>
      <point x="219" y="701"/>
      <point x="180" y="733" type="curve"/>
      <point x="52" y="644" type="line"/>
      <point x="278" y="110"/>
      <point x="488" y="-59"/>
      <point x="818" y="-59" type="curve" smooth="yes"/>
      <point x="893" y="-59"/>
      <point x="979" y="-47"/>
      <point x="1046" y="-23" type="curve"/>
    </contour>
    <contour>
      <point x="1277" y="600" type="line"/>
      <point x="1202" y="502"/>
      <point x="1106" y="447"/>
      <point x="997" y="447" type="curve" smooth="yes"/>
      <point x="909" y="447"/>
      <point x="858" y="484"/>
      <point x="858" y="598" type="curve" smooth="yes"/>
      <point x="858" y="708"/>
      <point x="912" y="755"/>
      <point x="1029" y="759" type="curve" smooth="yes"/>
      <point x="1106" y="761"/>
      <point x="1219" y="744"/>
      <point x="1323" y="721" type="curve"/>
      <point x="1318" y="833" type="line"/>
      <point x="1259" y="897"/>
      <point x="1141" y="941"/>
      <point x="993" y="941" type="curve" smooth="yes"/>
      <point x="781" y="941"/>
      <point x="647" y="829"/>
      <point x="647" y="602" type="curve" smooth="yes"/>
      <point x="647" y="445"/>
      <point x="719" y="269"/>
      <point x="965" y="269" type="curve" smooth="yes"/>
      <point x="1114" y="269"/>
      <point x="1247" y="333"/>
      <point x="1320" y="450" type="curve"/>
    </contour>
    <contour>
      <point x="1237" y="0" type="line"/>
      <point x="1447" y="0" type="line"/>
      <point x="1447" y="1176" type="line"/>
      <point x="1237" y="1176" type="line"/>
    </contour>
    <contour>
      <point x="-19" y="1104" type="line"/>
      <point x="1641" y="1104" type="line"/>
      <point x="1641" y="1287" type="line"/>
      <point x="-19" y="1287" type="line"/>
    </contour>
  </outline>
</glyph>
<glyph name="gha-deva" format="2">
  <advance width="1187"/>
  <unicode hex="0918"/>
  <anchor x="909" y="27" name="bottom"/>
  <anchor x="651" y="1167" name="candra"/>
  <anchor x="201" y="82" name="nukta"/>
  <anchor x="910" y="1167" name="top"/>
  <outline>
    <contour>
      <point x="888" y="603" type="line"/>
      <point x="803" y="479"/>
      <point x="651" y="393"/>
      <point x="493" y="393" type="curve" smooth="yes"/>
      <point x="383" y="393"/>
      <point x="331" y="431"/>
      <point x="331" y="528" type="curve" smooth="yes"/>
      <point x="331" y="630"/>
      <point x="407" y="660"/>
      <point x="565" y="674" type="curve"/>
      <point x="557" y="843" type="line"/>
      <point x="221" y="840"/>
      <point x="117" y="688"/>
      <point x="117" y="526" type="curve" smooth="yes"/>
      <point x="117" y="337"/>
      <point x="244" y="212"/>
      <point x="477" y="212" type="curve" smooth="yes"/>
      <point x="676" y="212"/>
      <point x="827" y="289"/>
      <point x="918" y="393" type="curve"/>
    </contour>
    <contour>
      <point x="467" y="758" type="line"/>
      <point x="390" y="798"/>
      <point x="281" y="846"/>
      <point x="281" y="969" type="curve" smooth="yes"/>
      <point x="281" y="1077"/>
      <point x="360" y="1095"/>
      <point x="483" y="1106" type="curve"/>
      <point x="500" y="1237" type="line"/>
      <point x="306" y="1227"/>
      <point x="69" y="1192"/>
      <point x="69" y="983" type="curve" smooth="yes"/>
      <point x="69" y="864"/>
      <point x="143" y="777"/>
      <point x="369" y="681" type="curve"/>
    </contour>
    <contour>
      <point x="802" y="0" type="line"/>
      <point x="1012" y="0" type="line"/>
      <point x="1012" y="1199" type="line"/>
      <point x="802" y="1199" type="line"/>
    </contour>
    <contour>
      <point x="-19" y="1104" type="line"/>
      <point x="1206" y="1104" type="line"/>
      <point x="1206" y="1287" type="line"/>
      <point x="-19" y="1287" type="line"/>
    </contour>
  </outline>
</glyph>
<glyph name="ca-deva" format="2">
  <advance width="1261"/>
  <unicode hex="091A"/>
  <anchor x="981" y="27" name="bottom"/>
  <anchor x="652" y="1167" name="candra"/>
  <anchor x="211" y="82" name="nukta"/>
  <anchor x="981" y="1167" name="top"/>
  <outline>
    <contour>
      <point x="974" y="599" type="line"/>
      <point x="890" y="479"/>
      <point x="749" y="379"/>
      <point x="588" y="380" type="curve" smooth="yes"/>
      <point x="454" y="380"/>
      <point x="410" y="435"/>
      <point x="410" y="537" type="curve" smooth="yes"/>
      <point x="410" y="641"/>
      <point x="521" y="745"/>
      <point x="667" y="731" type="curve"/>
      <point x="638" y="803" type="line"/>
      <point x="495" y="793" type="line"/>
      <point x="286" y="766"/>
      <point x="196" y="651"/>
      <point x="196" y="511" type="curve" smooth="yes"/>
      <point x="196" y="328"/>
      <point x="322" y="200"/>
      <point x="573" y="200" type="curve" smooth="yes"/>
      <point x="767" y="199"/>
      <point x="911" y="284"/>
      <point x="1004" y="391" type="curve"/>
    </contour>
    <contour>
      <point x="40" y="731" type="line"/>
      <point x="708" y="731" type="line"/>
      <point x="708" y="908" type="line"/>
      <point x="40" y="908" type="line"/>
    </contour>
    <contour>
      <point x="876" y="0" type="line"/>
      <point x="1086" y="0" type="line"/>
      <point x="1086" y="1176" type="line"/>
      <point x="876" y="1176" type="line"/>
    </contour>
    <contour>
      <point x="-19" y="1104" type="line"/>
      <point x="1280" y="1104" type="line"/>
      <point x="1280" y="1287" type="line"/>
      <point x="-19" y="1287" type="line"/>
    </contour>
  </outline>
</glyph>
<glyph name="cha-deva" format="2">
  <advance width="1351"/>
  <unicode hex="091B"/>
  <anchor x="627" y="60" name="bottom"/>
  <anchor x="662" y="1167" name="candra"/>
  <anchor x="34" y="82" name="nukta"/>
  <anchor x="968" y="1167" name="top"/>
  <outline>
    <contour>
      <point x="932" y="548" type="line"/>
      <point x="894" y="594"/>
      <point x="878" y="631"/>
      <point x="878" y="672" type="curve" smooth="yes"/>
      <point x="878" y="735"/>
      <point x="913" y="779"/>
      <point x="975" y="779" type="curve" smooth="yes"/>
      <point x="1054" y="779"/>
      <point x="1093" y="729"/>
      <point x="1093" y="627" type="curve" smooth="yes"/>
      <point x="1094" y="403"/>
      <point x="871" y="244"/>
      <point x="570" y="244" type="curve" smooth="yes"/>
      <point x="353" y="244"/>
      <point x="299" y="321"/>
      <point x="299" y="418" type="curve" smooth="yes"/>
      <point x="299" y="555"/>
      <point x="416" y="585"/>
      <point x="566" y="589" type="curve"/>
      <point x="563" y="763" type="line"/>
      <point x="546" y="764"/>
      <point x="528" y="764"/>
      <point x="514" y="764" type="curve" smooth="yes"/>
      <point x="313" y="763"/>
      <point x="84" y="668"/>
      <point x="84" y="433" type="curve" smooth="yes"/>
      <point x="84" y="200"/>
      <point x="263" y="56"/>
      <point x="575" y="56" type="curve" smooth="yes"/>
      <point x="968" y="56"/>
      <point x="1285" y="287"/>
      <point x="1285" y="630" type="curve" smooth="yes"/>
      <point x="1285" y="836"/>
      <point x="1164" y="942"/>
      <point x="969" y="942" type="curve" smooth="yes"/>
      <point x="772" y="942"/>
      <point x="686" y="840"/>
      <point x="687" y="698" type="curve" smooth="yes"/>
      <point x="687" y="593"/>
      <point x="744" y="508"/>
      <point x="823" y="455" type="curve"/>
    </contour>
    <contour>
      <point x="489" y="685" type="line"/>
      <point x="330" y="770"/>
      <point x="302" y="830"/>
      <point x="302" y="917" type="curve" smooth="yes"/>
      <point x="302" y="1019"/>
      <point x="378" y="1095"/>
      <point x="521" y="1105" type="curve"/>
      <point x="546" y="1205" type="line"/>
      <point x="228" y="1175"/>
      <point x="79" y="1113"/>
      <point x="83" y="915" type="curve" smooth="yes"/>
      <point x="88" y="781"/>
      <point x="194" y="710"/>
      <point x="374" y="636" type="curve"/>
    </contour>
    <contour>
      <point x="-19" y="1104" type="line"/>
      <point x="1370" y="1104" type="line"/>
      <point x="1370" y="1287" type="line"/>
      <point x="-19" y="1287" type="line"/>
    </contour>
    <contour>
      <point x="866" y="848" type="line"/>
      <point x="1071" y="848" type="line"/>
      <point x="1071" y="1218" type="line"/>
      <point x="866" y="1218" type="line"/>
    </contour>
  </outline>
</glyph>
<glyph name="jha-deva" format="2">
  <advance width="1563"/>
  <unicode hex="091D"/>
  <anchor x="1283" y="27" name="bottom"/>
  <anchor x="1033" y="1186" name="candra"/>
  <anchor x="164" y="-196" name="nukta"/>
  <anchor x="1283" y="1167" name="top"/>
  <outline>
    <contour>
      <point x="896" y="363" type="line"/>
      <point x="1002" y="344"/>
      <point x="1187.91" y="384"/>
      <point x="1251.91" y="444" type="curve"/>
      <point x="1221" y="630" type="line"/>
      <point x="1105" y="543"/>
      <point x="947" y="502"/>
      <point x="828" y="516" type="curve"/>
    </contour>
    <component base="i-deva"/>
    <component base="aaMatra-deva" xOffset="1002"/>
  </outline>
</glyph>
<glyph name="ttha-deva" format="2">
  <advance width="1177"/>
  <unicode hex="0920"/>
  <anchor x="621" y="35" name="bottom"/>
  <anchor x="628" y="1167" name="candra"/>
  <anchor x="-14" y="82" name="nukta"/>
  <anchor x="771" y="1167" name="top"/>
  <outline>
    <contour>
      <point x="600" y="6" type="curve" smooth="yes"/>
      <point x="928" y="6"/>
      <point x="1105" y="150"/>
      <point x="1105" y="452" type="curve" smooth="yes"/>
      <point x="1105" y="660"/>
      <point x="1019" y="830"/>
      <point x="802" y="887" type="curve" smooth="yes"/>
      <point x="732" y="902"/>
      <point x="678" y="908"/>
      <point x="590" y="908" type="curve" smooth="yes"/>
      <point x="288" y="908"/>
      <point x="72" y="810"/>
      <point x="72" y="483" type="curve" smooth="yes"/>
      <point x="72" y="170"/>
      <point x="253" y="6"/>
    </contour>
    <contour>
      <point x="587" y="194" type="curve" smooth="yes"/>
      <point x="369" y="194"/>
      <point x="292" y="272"/>
      <point x="292" y="451" type="curve" smooth="yes"/>
      <point x="292" y="659"/>
      <point x="397" y="720"/>
      <point x="595" y="720" type="curve" smooth="yes"/>
      <point x="693" y="720"/>
      <point x="766" y="710"/>
      <point x="815" y="674" type="curve" smooth="yes"/>
      <point x="867" y="635"/>
      <point x="888" y="567"/>
      <point x="886" y="457" type="curve" smooth="yes"/>
      <point x="881" y="274"/>
      <point x="790" y="194"/>
    </contour>
    <contour>
      <point x="871" y="854" type="line"/>
      <point x="871" y="1155" type="line"/>
      <point x="664" y="1155" type="line"/>
      <point x="664" y="888" type="line"/>
    </contour>
    <contour>
      <point x="-19" y="1104" type="line"/>
      <point x="1196" y="1104" type="line"/>
      <point x="1196" y="1287" type="line"/>
      <point x="-19" y="1287" type="line"/>
    </contour>
  </outline>
</glyph>
<glyph name="dha-deva" format="2">
  <advance width="1279"/>
  <unicode hex="0927"/>
  <anchor x="998" y="27" name="bottom"/>
  <anchor x="690" y="1167" name="candra"/>
  <anchor x="199" y="82" name="nukta"/>
  <anchor x="998" y="1167" name="top"/>
  <outline>
    <contour>
      <point x="942" y="627" type="line"/>
      <point x="840" y="472"/>
      <point x="680" y="385"/>
      <point x="519" y="385" type="curve" smooth="yes"/>
      <point x="400" y="385"/>
      <point x="363" y="436"/>
      <point x="363" y="519" type="curve" smooth="yes"/>
      <point x="363" y="629"/>
      <point x="433" y="678"/>
      <point x="635" y="685" type="curve"/>
      <point x="629" y="860" type="line"/>
      <point x="276" y="858"/>
      <point x="149" y="690"/>
      <point x="149" y="527" type="curve" smooth="yes"/>
      <point x="149" y="334"/>
      <point x="281" y="203"/>
      <point x="502" y="203" type="curve" smooth="yes"/>
      <point x="696" y="203"/>
      <point x="854" y="280"/>
      <point x="981" y="411" type="curve"/>
    </contour>
    <contour>
      <point x="513" y="796" type="line"/>
      <point x="378" y="857"/>
      <point x="315" y="911"/>
      <point x="317" y="1002" type="curve" smooth="yes"/>
      <point x="319" y="1095"/>
      <point x="393" y="1121"/>
      <point x="489" y="1123" type="curve" smooth="yes"/>
      <point x="534" y="1124"/>
      <point x="581" y="1119"/>
      <point x="630" y="1111" type="curve"/>
      <point x="656" y="1280" type="line"/>
      <point x="604" y="1295"/>
      <point x="523" y="1304"/>
      <point x="467" y="1304" type="curve" smooth="yes"/>
      <point x="306" y="1304"/>
      <point x="99" y="1233"/>
      <point x="99" y="1031" type="curve" smooth="yes"/>
      <point x="99" y="904"/>
      <point x="180" y="811"/>
      <point x="405" y="718" type="curve"/>
    </contour>
    <contour>
      <point x="893" y="1" type="line"/>
      <point x="1103" y="1" type="line"/>
      <point x="1103" y="1225" type="line"/>
      <point x="893" y="1225" type="line"/>
    </contour>
    <contour>
      <point x="764" y="1104" type="line"/>
      <point x="1299" y="1104" type="line"/>
      <point x="1299" y="1287" type="line"/>
      <point x="764" y="1287" type="line"/>
    </contour>
  </outline>
</glyph>
<glyph name="pha-deva" format="2">
  <advance width="1608"/>
  <unicode hex="092B"/>
  <anchor x="873" y="27" name="bottom"/>
  <anchor x="873" y="1167" name="candra"/>
  <anchor x="350" y="87" name="nukta"/>
  <anchor x="869" y="1167" name="top"/>
  <outline>
    <contour>
      <point x="828" y="713" type="line"/>
      <point x="754" y="583"/>
      <point x="645" y="506"/>
      <point x="518" y="505" type="curve" smooth="yes"/>
      <point x="399" y="504"/>
      <point x="366" y="559"/>
      <point x="366" y="695" type="curve" smooth="yes"/>
      <point x="366" y="1161" type="line"/>
      <point x="152" y="1161" type="line"/>
      <point x="152" y="704" type="line" smooth="yes"/>
      <point x="152" y="447"/>
      <point x="277" y="314"/>
      <point x="505" y="314" type="curve" smooth="yes"/>
      <point x="643" y="314"/>
      <point x="795" y="393"/>
      <point x="874" y="550" type="curve"/>
    </contour>
    <contour>
      <point x="767" y="0" type="line"/>
      <point x="978" y="0" type="line"/>
      <point x="978" y="1199" type="line"/>
      <point x="767" y="1199" type="line"/>
    </contour>
    <contour>
      <point x="1375" y="125" type="line"/>
      <point x="1486" y="244"/>
      <point x="1552" y="390"/>
      <point x="1552" y="547" type="curve" smooth="yes"/>
      <point x="1552" y="749"/>
      <point x="1443" y="887"/>
      <point x="1251" y="887" type="curve" smooth="yes"/>
      <point x="1112" y="887"/>
      <point x="1010" y="831"/>
      <point x="906" y="708" type="curve"/>
      <point x="878" y="416" type="line"/>
      <point x="1045" y="631"/>
      <point x="1161" y="701"/>
      <point x="1241" y="701" type="curve" smooth="yes"/>
      <point x="1318" y="701"/>
      <point x="1362" y="656"/>
      <point x="1362" y="568" type="curve" smooth="yes"/>
      <point x="1362" y="462"/>
      <point x="1306" y="360"/>
      <point x="1222" y="241" type="curve"/>
    </contour>
    <contour>
      <point x="-19" y="1104" type="line"/>
      <point x="1627" y="1104" type="line"/>
      <point x="1627" y="1287" type="line"/>
      <point x="-19" y="1287" type="line"/>
    </contour>
  </outline>
</glyph>
<glyph name="ma-deva" format="2">
  <advance width="1185"/>
  <unicode hex="092E"/>
  <anchor x="904" y="27" name="bottom"/>
  <anchor x="615" y="1167" name="candra"/>
  <anchor x="299" y="82" name="nukta"/>
  <anchor x="904" y="1167" name="top"/>
  <outline>
    <contour>
      <point x="799" y="1" type="line"/>
      <point x="1009" y="1" type="line"/>
      <point x="1009" y="1152" type="line"/>
      <point x="799" y="1152" type="line"/>
    </contour>
    <contour>
      <point x="230" y="286" type="line"/>
      <point x="370" y="287"/>
      <point x="398" y="354"/>
      <point x="398" y="435" type="curve" smooth="yes"/>
      <point x="398" y="659" type="line"/>
      <point x="232" y="659" type="line"/>
      <point x="45" y="635" type="line"/>
      <point x="45" y="492" type="line"/>
    </contour>
    <contour>
      <point x="187" y="382" type="line"/>
      <point x="396" y="572" type="line"/>
      <point x="397" y="1152" type="line"/>
      <point x="187" y="1152" type="line"/>
    </contour>
    <contour>
      <point x="193" y="469" type="line"/>
      <point x="969" y="469" type="line"/>
      <point x="969" y="655" type="line"/>
      <point x="193" y="655" type="line"/>
    </contour>
    <contour>
      <point x="-19" y="1104" type="line"/>
      <point x="1203" y="1104" type="line"/>
      <point x="1203" y="1287" type="line"/>
      <point x="-19" y="1287" type="line"/>
    </contour>
  </outline>
</glyph>
<glyph name="lla-deva" format="2">
  <advance width="1468"/>
  <unicode hex="0933"/>
  <anchor x="793" y="127" name="bottom"/>
  <anchor x="735" y="1167" name="candra"/>
  <anchor x="731" y="44" name="nukta"/>
  <anchor x="1080" y="1167" name="top"/>
  <outline>
    <contour>
      <point x="706" y="330" type="line"/>
      <point x="805" y="197"/>
      <point x="894" y="130"/>
      <point x="1061" y="130" type="curve" smooth="yes"/>
      <point x="1288" y="130"/>
      <point x="1412" y="272"/>
      <point x="1412" y="549" type="curve" smooth="yes"/>
      <point x="1412" y="824"/>
      <point x="1267" y="943"/>
      <point x="1068" y="943" type="curve" smooth="yes"/>
      <point x="908" y="943"/>
      <point x="835.091" y="873.091"/>
      <point x="707" y="685" type="curve" smooth="yes"/>
      <point x="602" y="512"/>
      <point x="517" y="325"/>
      <point x="391" y="325" type="curve" smooth="yes"/>
      <point x="301" y="325"/>
      <point x="265" y="380"/>
      <point x="265" y="534" type="curve" smooth="yes"/>
      <point x="265" y="679"/>
      <point x="323" y="753"/>
      <point x="435" y="753" type="curve" smooth="yes"/>
      <point x="547" y="753"/>
      <point x="630" y="683"/>
      <point x="693" y="597" type="curve"/>
      <point x="768" y="736" type="line"/>
      <point x="679" y="896"/>
      <point x="562" y="945"/>
      <point x="422" y="945" type="curve" smooth="yes"/>
      <point x="183" y="945"/>
      <point x="56" y="806"/>
      <point x="56" y="536" type="curve" smooth="yes"/>
      <point x="56" y="275"/>
      <point x="192" y="128"/>
      <point x="393" y="128" type="curve" smooth="yes"/>
      <point x="566" y="128"/>
      <point x="645" y="191"/>
      <point x="793" y="424" type="curve" smooth="yes"/>
      <point x="946" y="668"/>
      <point x="985.909" y="747.091"/>
      <point x="1081.09" y="747.091" type="curve" smooth="yes"/>
      <point x="1165" y="747"/>
      <point x="1202.91" y="679"/>
      <point x="1203" y="551" type="curve" smooth="yes"/>
      <point x="1203" y="400"/>
      <point x="1143" y="323"/>
      <point x="1030" y="323" type="curve" smooth="yes"/>
      <point x="934" y="323"/>
      <point x="869" y="380"/>
      <point x="804" y="468" type="curve"/>
    </contour>
    <contour>
      <point x="-18" y="1104" type="line"/>
      <point x="1487" y="1104" type="line"/>
      <point x="1487" y="1287" type="line"/>
      <point x="-18" y="1287" type="line"/>
    </contour>
    <contour>
      <point x="975" y="808" type="line"/>
      <point x="1185" y="808" type="line"/>
      <point x="1185" y="1216" type="line"/>
      <point x="975" y="1216" type="line"/>
    </contour>
  </outline>
</glyph>
<glyph name="va-deva" format="2">
  <advance width="1091"/>
  <unicode hex="0935"/>
  <anchor x="811" y="27" name="bottom"/>
  <anchor x="526" y="1167" name="candra"/>
  <anchor x="126" y="82" name="nukta"/>
  <anchor x="811" y="1167" name="top"/>
  <outline>
    <contour>
      <point x="737" y="507" type="line"/>
      <point x="646" y="408"/>
      <point x="559" y="368"/>
      <point x="430" y="368" type="curve" smooth="yes"/>
      <point x="313" y="368"/>
      <point x="265" y="421"/>
      <point x="265" y="556" type="curve" smooth="yes"/>
      <point x="265" y="703"/>
      <point x="328" y="751"/>
      <point x="470" y="755" type="curve" smooth="yes"/>
      <point x="552" y="756"/>
      <point x="669" y="739"/>
      <point x="794" y="676" type="curve"/>
      <point x="794" y="799" type="line"/>
      <point x="724" y="875"/>
      <point x="597" y="943"/>
      <point x="437" y="943" type="curve" smooth="yes"/>
      <point x="192" y="943"/>
      <point x="54" y="820"/>
      <point x="54" y="568" type="curve" smooth="yes"/>
      <point x="54" y="302"/>
      <point x="219" y="187"/>
      <point x="418" y="187" type="curve" smooth="yes"/>
      <point x="563" y="187"/>
      <point x="715" y="242"/>
      <point x="794" y="370" type="curve"/>
    </contour>
    <contour>
      <point x="706" y="0" type="line"/>
      <point x="916" y="0" type="line"/>
      <point x="916" y="1185" type="line"/>
      <point x="706" y="1185" type="line"/>
    </contour>
    <contour>
      <point x="-19" y="1104" type="line"/>
      <point x="1110" y="1104" type="line"/>
      <point x="1110" y="1287" type="line"/>
      <point x="-19" y="1287" type="line"/>
    </contour>
  </outline>
</glyph>
<glyph name="ssa-deva" format="2">
  <advance width="1178"/>
  <unicode hex="0937"/>
  <anchor x="897" y="27" name="bottom"/>
  <anchor x="595" y="1167" name="candra"/>
  <anchor x="293" y="82" name="nukta"/>
  <anchor x="897" y="1167" name="top"/>
  <outline>
    <contour>
      <point x="874" y="673" type="line"/>
      <point x="801" y="544"/>
      <point x="655" y="457"/>
      <point x="520" y="456" type="curve" smooth="yes"/>
      <point x="393" y="455"/>
      <point x="360" y="510"/>
      <point x="360" y="649" type="curve" smooth="yes"/>
      <point x="360" y="1115" type="line"/>
      <point x="152" y="1115" type="line"/>
      <point x="152" y="655" type="line" smooth="yes"/>
      <point x="152" y="399"/>
      <point x="277" y="265"/>
      <point x="508" y="265" type="curve" smooth="yes"/>
      <point x="663" y="265"/>
      <point x="805" y="345"/>
      <point x="884" y="471" type="curve"/>
    </contour>
    <contour>
      <point x="826" y="456" type="line"/>
      <point x="946" y="566" type="line"/>
      <point x="344" y="1176" type="line"/>
      <point x="224" y="1066" type="line"/>
    </contour>
    <contour>
      <point x="791" y="0" type="line"/>
      <point x="1002" y="0" type="line"/>
      <point x="1002" y="1199" type="line"/>
      <point x="791" y="1199" type="line"/>
    </contour>
    <contour>
      <point x="-19" y="1104" type="line"/>
      <point x="1197" y="1104" type="line"/>
      <point x="1197" y="1287" type="line"/>
      <point x="-19" y="1287" type="line"/>
    </contour>
  </outline>
</glyph>
<glyph name="ooeMatra-deva" format="2">
  <advance width="561"/>
  <unicode hex="093B"/>
  <anchor x="281" y="27" name="bottom"/>
  <anchor x="287" y="1168" name="candra"/>
  <anchor x="284" y="1167" name="top"/>
  <outline>
    <contour>
      <point x="176" y="1091" type="line"/>
      <point x="386" y="1091" type="line"/>
      <point x="386" y="1574" type="line"/>
      <point x="176" y="1574" type="line"/>
    </contour>
    <component base="aaMatra-deva"/>
  </outline>
</glyph>
<glyph name="nukta-deva" format="2">
  <unicode hex="093C"/>
  <anchor x="271" y="27" name="_nukta"/>
  <outline>
    <contour>
      <point x="270" y="145" type="curve" smooth="yes"/>
      <point x="187" y="145"/>
      <point x="151" y="110"/>
      <point x="151" y="27" type="curve" smooth="yes"/>
      <point x="151" y="-55"/>
      <point x="187" y="-90"/>
      <point x="270" y="-90" type="curve" smooth="yes"/>
      <point x="353" y="-90"/>
      <point x="389" y="-55"/>
      <point x="389" y="27" type="curve" smooth="yes"/>
      <point x="389" y="110"/>
      <point x="353" y="145"/>
    </contour>
  </outline>
</glyph>
<glyph name="iMatra-deva" format="2">
  <advance width="561"/>
  <unicode hex="093F"/>
  <anchor x="1355" y="1512" name="candra"/>
  <anchor x="1516" y="1477" name="imatra"/>
  <anchor x="1477" y="1414" name="top"/>
  <outline>
    <contour>
      <point x="451" y="1204" type="line"/>
      <point x="311" y="1341"/>
      <point x="285" y="1398"/>
      <point x="285" y="1475" type="curve" smooth="yes"/>
      <point x="285" y="1568"/>
      <point x="337" y="1614"/>
      <point x="516" y="1614" type="curve" smooth="yes"/>
      <point x="850" y="1614"/>
      <point x="1130" y="1512"/>
      <point x="1442" y="1356" type="curve"/>
      <point x="1516" y="1477" type="line"/>
      <point x="1161" y="1695"/>
      <point x="821" y="1808"/>
      <point x="483" y="1808" type="curve" smooth="yes"/>
      <point x="271" y="1808"/>
      <point x="68" y="1741"/>
      <point x="68" y="1524" type="curve" smooth="yes"/>
      <point x="68" y="1403"/>
      <point x="130" y="1305"/>
      <point x="271" y="1197" type="curve"/>
    </contour>
    <contour>
      <point x="175" y="1" type="line"/>
      <point x="385" y="1" type="line"/>
      <point x="385" y="1217" type="line"/>
      <point x="175" y="1217" type="line"/>
    </contour>
    <contour>
      <point x="-19" y="1104" type="line"/>
      <point x="586" y="1104" type="line"/>
      <point x="586" y="1287" type="line"/>
      <point x="-19" y="1287" type="line"/>
    </contour>
  </outline>
</glyph>
<glyph name="uMatra-deva" format="2">
  <unicode hex="0941"/>
  <anchor x="198" y="21" name="_bottom"/>
  <outline>
    <contour>
      <point x="39" y="-172" type="line"/>
      <point x="102" y="-147"/>
      <point x="158" y="-131"/>
      <point x="219" y="-131" type="curve" smooth="yes"/>
      <point x="290" y="-131"/>
      <point x="329" y="-158"/>
      <point x="329" y="-238" type="curve" smooth="yes"/>
      <point x="329" y="-305"/>
      <point x="284" y="-349"/>
      <point x="181" y="-349" type="curve" smooth="yes"/>
      <point x="81" y="-349"/>
      <point x="-34" y="-307"/>
      <point x="-209" y="-117" type="curve"/>
      <point x="-313" y="-215" type="line"/>
      <point x="-114" y="-466"/>
      <point x="43" y="-531"/>
      <point x="184" y="-531" type="curve" smooth="yes"/>
      <point x="402" y="-531"/>
      <point x="521" y="-405"/>
      <point x="521" y="-238" type="curve" smooth="yes"/>
      <point x="521" y="-82"/>
      <point x="417" y="44"/>
      <point x="218" y="44" type="curve" smooth="yes"/>
      <point x="152" y="44"/>
      <point x="60" y="29"/>
      <point x="-17" y="-10" type="curve"/>
    </contour>
  </outline>
</glyph>
<glyph name="eCandraMatra-deva" format="2">
  <unicode hex="0945"/>
  <anchor x="258" y="1169" name="_candra"/>
  <anchor x="272" y="1559" name="candra"/>
  <outline>
    <contour>
      <point x="495" y="1731" type="line"/>
      <point x="453" y="1663"/>
      <point x="400" y="1587"/>
      <point x="276" y="1587" type="curve" smooth="yes"/>
      <point x="162" y="1587"/>
      <point x="95" y="1650"/>
      <point x="51" y="1726" type="curve"/>
      <point x="-90" y="1644" type="line"/>
      <point x="-40" y="1520"/>
      <point x="74" y="1404"/>
      <point x="267" y="1404" type="curve" smooth="yes"/>
      <point x="439" y="1404"/>
      <point x="555" y="1493"/>
      <point x="629" y="1656" type="curve"/>
    </contour>
  </outline>
</glyph>
<glyph name="prishthaMatraE-deva" format="2">
  <advance width="563"/>
  <unicode hex="094E"/>
  <anchor x="281" y="27" name="bottom"/>
  <anchor x="281" y="1167" name="top"/>
  <outline>
    <contour>
      <point x="176" y="0" type="line"/>
      <point x="386" y="0" type="line"/>
      <point x="386" y="1208" type="line"/>
      <point x="176" y="1208" type="line"/>
    </contour>
    <contour>
      <point x="176" y="1104" type="line"/>
      <point x="582" y="1104" type="line"/>
      <point x="582" y="1287" type="line"/>
      <point x="176" y="1287" type="line"/>
    </contour>
  </outline>
</glyph>
<glyph name="grave-deva" format="2">
  <unicode hex="0953"/>
  <outline>
    <contour>
      <point x="-364" y="1319" type="line"/>
      <point x="-264" y="1424" type="line"/>
      <point x="-663" y="1821" type="line"/>
      <point x="-790" y="1714" type="line"/>
    </contour>
  </outline>
</glyph>
<glyph name="acute-deva" format="2">
  <unicode hex="0954"/>
  <outline>
    <contour>
      <point x="-271" y="1319" type="line"/>
      <point x="156" y="1714" type="line"/>
      <point x="28" y="1821" type="line"/>
      <point x="-371" y="1424" type="line"/>
    </contour>
  </outline>
</glyph>
<glyph name="lVocalicMatra-deva" format="2">
  <unicode hex="0962"/>
  <anchor x="281" y="27" name="_bottom"/>
  <outline>
    <contour>
      <point x="676" y="-475" type="line"/>
      <point x="731" y="-420"/>
      <point x="800" y="-300"/>
      <point x="800" y="-172" type="curve" smooth="yes"/>
      <point x="800" y="4"/>
      <point x="701" y="132"/>
      <point x="507" y="132" type="curve" smooth="yes"/>
      <point x="312" y="132"/>
      <point x="220" y="-10"/>
      <point x="220" y="-179" type="curve" smooth="yes"/>
      <point x="220" y="-218"/>
      <point x="224" y="-255"/>
      <point x="236" y="-290" type="curve"/>
      <point x="395" y="-274" type="line"/>
      <point x="390" y="-244"/>
      <point x="388" y="-217"/>
      <point x="388" y="-194" type="curve" smooth="yes"/>
      <point x="388" y="-104"/>
      <point x="427" y="-37"/>
      <point x="514" y="-37" type="curve" smooth="yes"/>
      <point x="594" y="-37"/>
      <point x="625" y="-104"/>
      <point x="625" y="-185" type="curve" smooth="yes"/>
      <point x="625" y="-260"/>
      <point x="582" y="-346"/>
      <point x="537" y="-399" type="curve"/>
      <point x="538" y="-406" type="line"/>
    </contour>
    <contour>
      <point x="-51" y="-510" type="line"/>
      <point x="94" y="-415" type="line"/>
      <point x="11" y="-312"/>
      <point x="-25" y="-252"/>
      <point x="-25" y="-167" type="curve" smooth="yes"/>
      <point x="-25" y="-72"/>
      <point x="30" y="-40"/>
      <point x="91" y="-40" type="curve" smooth="yes"/>
      <point x="176" y="-40"/>
      <point x="238" y="-116"/>
      <point x="304" y="-223" type="curve"/>
      <point x="320" y="-98" type="line"/>
      <point x="259" y="61"/>
      <point x="172" y="128"/>
      <point x="48" y="128" type="curve" smooth="yes"/>
      <point x="-113" y="128"/>
      <point x="-207" y="23"/>
      <point x="-207" y="-159" type="curve" smooth="yes"/>
      <point x="-207" y="-297"/>
      <point x="-145" y="-400"/>
      <point x="-56" y="-510" type="curve"/>
    </contour>
    <contour>
      <point x="770" y="-624" type="line"/>
      <point x="715" y="-656"/>
      <point x="657" y="-683"/>
      <point x="603" y="-683" type="curve" smooth="yes"/>
      <point x="553" y="-683"/>
      <point x="526" y="-653"/>
      <point x="526" y="-615" type="curve" smooth="yes"/>
      <point x="526" y="-560"/>
      <point x="581" y="-518"/>
      <point x="676" y="-475" type="curve"/>
      <point x="555" y="-384" type="line"/>
      <point x="415" y="-441"/>
      <point x="360" y="-527"/>
      <point x="360" y="-613" type="curve" smooth="yes"/>
      <point x="360" y="-737"/>
      <point x="459" y="-826"/>
      <point x="589" y="-826" type="curve" smooth="yes"/>
      <point x="677" y="-826"/>
      <point x="760" y="-795"/>
      <point x="824" y="-747" type="curve"/>
    </contour>
  </outline>
</glyph>
<glyph name="three-deva" format="2">
  <advance width="904"/>
  <unicode hex="0969"/>
  <outline>
    <contour>
      <point x="487" y="-162" type="line"/>
      <point x="632" y="-39" type="line"/>
      <point x="423" y="170" type="line"/>
      <point x="409" y="138" type="line"/>
      <point x="434" y="141"/>
      <point x="458" y="140"/>
      <point x="485" y="144" type="curve" smooth="yes"/>
      <point x="664" y="168"/>
      <point x="823" y="281"/>
      <point x="823" y="455" type="curve" smooth="yes"/>
      <point x="823" y="588"/>
      <point x="759" y="700"/>
      <point x="608" y="754" type="curve"/>
      <point x="614" y="721" type="line"/>
      <point x="713" y="785"/>
      <point x="760" y="882"/>
      <point x="760" y="988" type="curve" smooth="yes"/>
      <point x="760" y="1208"/>
      <point x="595" y="1310"/>
      <point x="415" y="1310" type="curve" smooth="yes"/>
      <point x="300" y="1310"/>
      <point x="182" y="1284"/>
      <point x="89" y="1242" type="curve"/>
      <point x="146" y="1070" type="line"/>
      <point x="214" y="1100"/>
      <point x="308" y="1122"/>
      <point x="389" y="1122" type="curve" smooth="yes"/>
      <point x="477" y="1122"/>
      <point x="552" y="1096"/>
      <point x="552" y="998" type="curve" smooth="yes"/>
      <point x="552" y="924"/>
      <point x="509" y="827"/>
      <point x="231" y="826" type="curve"/>
      <point x="244" y="651" type="line"/>
      <point x="260" y="648"/>
      <point x="283" y="646"/>
      <point x="313" y="646" type="curve" smooth="yes"/>
      <point x="399" y="646"/>
      <point x="471" y="658"/>
      <point x="532" y="680" type="curve"/>
      <point x="475" y="690" type="line"/>
      <point x="569" y="642"/>
      <point x="616" y="572"/>
      <point x="616" y="488" type="curve" smooth="yes"/>
      <point x="616" y="395"/>
      <point x="529" y="325"/>
      <point x="397" y="325" type="curve" smooth="yes"/>
      <point x="364" y="325"/>
      <point x="328" y="329"/>
      <point x="298" y="334" type="curve"/>
      <point x="355" y="295" type="line"/>
      <point x="210" y="470" type="line"/>
      <point x="85" y="470" type="line"/>
      <point x="45" y="389"/>
      <point x="33" y="348"/>
      <point x="33" y="312" type="curve" smooth="yes"/>
      <point x="33" y="221"/>
      <point x="109" y="165"/>
      <point x="268" y="145" type="curve"/>
    </contour>
  </outline>
</glyph>
<glyph name="oe-deva" format="2">
  <advance width="1399"/>
  <unicode hex="0973"/>
  <anchor x="1117" y="27" name="bottom"/>
  <anchor x="1118" y="1167" name="candra"/>
  <anchor x="1118" y="1167" name="top"/>
  <outline>
    <contour>
      <point x="1014" y="1091" type="line"/>
      <point x="1224" y="1091" type="line"/>
      <point x="1224" y="1574" type="line"/>
      <point x="1014" y="1574" type="line"/>
    </contour>
    <component base="a-deva"/>
  </outline>
</glyph>
<glyph name="ooe-deva" format="2">
  <advance width="1962"/>
  <unicode hex="0974"/>
  <anchor x="1682" y="28" name="bottom"/>
  <anchor x="1428" y="1167" name="candra"/>
  <anchor x="1682" y="1167" name="top"/>
  <outline>
    <contour>
      <point x="1575" y="1091" type="line"/>
      <point x="1785" y="1091" type="line"/>
      <point x="1785" y="1574" type="line"/>
      <point x="1575" y="1574" type="line"/>
    </contour>
    <component base="aa-deva"/>
  </outline>
</glyph>
<glyph name="ue-deva" format="2">
  <advance width="1399"/>
  <unicode hex="0976"/>
  <anchor x="1117" y="27" name="bottom"/>
  <anchor x="1118" y="1167" name="candra"/>
  <anchor x="1118" y="1167" name="top"/>
  <outline>
    <contour>
      <point x="799" y="53" type="line"/>
      <point x="757" y="-15"/>
      <point x="686" y="-92"/>
      <point x="558" y="-92" type="curve" smooth="yes"/>
      <point x="428" y="-92"/>
      <point x="361" y="-28"/>
      <point x="317" y="48" type="curve"/>
      <point x="205" y="-29" type="line"/>
      <point x="255" y="-153"/>
      <point x="379" y="-274"/>
      <point x="572" y="-274" type="curve" smooth="yes"/>
      <point x="744" y="-274"/>
      <point x="860" y="-185"/>
      <point x="934" y="-22" type="curve"/>
    </contour>
    <component base="a-deva"/>
  </outline>
</glyph>
<glyph name="jjya-deva" format="2">
  <advance width="1164"/>
  <unicode hex="097A"/>
  <anchor x="887" y="27" name="bottom"/>
  <anchor x="583" y="1167" name="candra"/>
  <anchor x="346" y="30" name="nukta"/>
  <anchor x="886" y="1167" name="top"/>
  <outline>
    <contour>
      <point x="848" y="671" type="line"/>
      <point x="754" y="491"/>
      <point x="622" y="429"/>
      <point x="490" y="429" type="curve" smooth="yes"/>
      <point x="362" y="429"/>
      <point x="275" y="485"/>
      <point x="218" y="648" type="curve"/>
      <point x="191" y="561" type="line"/>
      <point x="392" y="620"/>
      <point x="453" y="698"/>
      <point x="453" y="802" type="curve" smooth="yes"/>
      <point x="453" y="891"/>
      <point x="405" y="1008"/>
      <point x="307" y="1129" type="curve"/>
      <point x="151" y="1128" type="line"/>
      <point x="260" y="1027"/>
      <point x="290" y="958"/>
      <point x="281" y="894" type="curve" smooth="yes"/>
      <point x="265" y="796"/>
      <point x="191" y="745"/>
      <point x="34" y="682" type="curve"/>
      <point x="82" y="376"/>
      <point x="282" y="238"/>
      <point x="500" y="238" type="curve" smooth="yes"/>
      <point x="621" y="238"/>
      <point x="762" y="288"/>
      <point x="839" y="410" type="curve"/>
    </contour>
    <contour>
      <point x="837" y="448" type="line"/>
      <point x="957" y="558" type="line"/>
      <point x="360" y="1163" type="line"/>
      <point x="259" y="1054" type="line"/>
    </contour>
    <contour>
      <point x="778" y="0" type="line"/>
      <point x="988" y="0" type="line"/>
      <point x="988" y="1230" type="line"/>
      <point x="778" y="1230" type="line"/>
    </contour>
    <contour>
      <point x="-19" y="1104" type="line"/>
      <point x="1183" y="1104" type="line"/>
      <point x="1183" y="1287" type="line"/>
      <point x="-19" y="1287" type="line"/>
    </contour>
  </outline>
</glyph>
<glyph name="gga-deva" format="2">
  <advance width="1146"/>
  <unicode hex="097B"/>
  <anchor x="865" y="27" name="bottom"/>
  <anchor x="612" y="1167" name="candra"/>
  <anchor x="330" y="92" name="nukta"/>
  <anchor x="865" y="1167" name="top"/>
  <outline>
    <contour>
      <point x="66" y="-96" type="line"/>
      <point x="970" y="-96" type="line"/>
      <point x="970" y="74" type="line"/>
      <point x="66" y="74" type="line"/>
    </contour>
    <component base="ga-deva"/>
  </outline>
</glyph>
<glyph name="bba-deva" format="2">
  <advance width="1123"/>
  <unicode hex="097F"/>
  <anchor x="843" y="27" name="bottom"/>
  <anchor x="558" y="1167" name="candra"/>
  <anchor x="119" y="82" name="nukta"/>
  <anchor x="843" y="1167" name="top"/>
  <outline>
    <contour>
      <point x="67" y="-96" type="line"/>
      <point x="948" y="-96" type="line"/>
      <point x="948" y="74" type="line"/>
      <point x="67" y="74" type="line"/>
    </contour>
    <component base="ba-deva"/>
  </outline>
</glyph>
<glyph name="rightFacingSvasti" format="2">
  <advance width="1622"/>
  <unicode hex="0FD5"/>
  <outline>
    <contour>
      <point x="706" y="1" type="line"/>
      <point x="916" y="1" type="line"/>
      <point x="916" y="1238" type="line"/>
      <point x="706" y="1238" type="line"/>
    </contour>
    <contour>
      <point x="156" y="1" type="line"/>
      <point x="916" y="1" type="line"/>
      <point x="916" y="183" type="line"/>
      <point x="156" y="183" type="line"/>
    </contour>
    <contour>
      <point x="156" y="561" type="line"/>
      <point x="366" y="561" type="line"/>
      <point x="366" y="1287" type="line"/>
      <point x="156" y="1287" type="line"/>
    </contour>
    <contour>
      <point x="156" y="558" type="line"/>
      <point x="1466" y="558" type="line"/>
      <point x="1466" y="741" type="line"/>
      <point x="156" y="741" type="line"/>
    </contour>
    <contour>
      <point x="1256" y="1" type="line"/>
      <point x="1466" y="1" type="line"/>
      <point x="1466" y="741" type="line"/>
      <point x="1256" y="741" type="line"/>
    </contour>
    <contour>
      <point x="706" y="1104" type="line"/>
      <point x="1466" y="1104" type="line"/>
      <point x="1466" y="1287" type="line"/>
      <point x="706" y="1287" type="line"/>
    </contour>
  </outline>
</glyph>
<glyph name="d.sups" format="2">
  <advance width="774"/>
  <unicode hex="1D48"/>
  <outline>
    <contour>
      <point x="532" y="601" type="line"/>
      <point x="547" y="532" type="line"/>
      <point x="677" y="532" type="line"/>
      <point x="677" y="1488" type="line"/>
      <point x="517" y="1488" type="line"/>
      <point x="517" y="1253" type="line"/>
      <point x="525" y="1140" type="line"/>
      <point x="475" y="1185"/>
      <point x="418" y="1214"/>
      <point x="347" y="1214" type="curve" smooth="yes"/>
      <point x="204" y="1214"/>
      <point x="62" y="1085"/>
      <point x="62" y="877" type="curve" smooth="yes"/>
      <point x="62" y="647"/>
      <point x="169" y="516"/>
      <point x="343" y="516" type="curve" smooth="yes"/>
      <point x="415" y="516"/>
      <point x="475" y="555"/>
      <point x="527" y="601" type="curve"/>
    </contour>
    <contour>
      <point x="517" y="721" type="line"/>
      <point x="471" y="670"/>
      <point x="430" y="645"/>
      <point x="382" y="645" type="curve" smooth="yes"/>
      <point x="278" y="645"/>
      <point x="226" y="724"/>
      <point x="226" y="877" type="curve" smooth="yes"/>
      <point x="226" y="1006"/>
      <point x="297" y="1085"/>
      <point x="380" y="1085" type="curve" smooth="yes"/>
      <point x="423" y="1085"/>
      <point x="469" y="1069"/>
      <point x="517" y="1028" type="curve"/>
    </contour>
  </outline>
</glyph>
<glyph name="e.sups" format="2">
  <advance width="696"/>
  <unicode hex="1D49"/>
  <outline>
    <contour>
      <point x="566" y="689" type="line"/>
      <point x="518" y="658"/>
      <point x="464" y="641"/>
      <point x="406" y="641" type="curve" smooth="yes"/>
      <point x="296" y="641"/>
      <point x="220" y="704"/>
      <point x="209" y="827" type="curve"/>
      <point x="637" y="827" type="line"/>
      <point x="644" y="856"/>
      <point x="646" y="871"/>
      <point x="646" y="903" type="curve" smooth="yes"/>
      <point x="646" y="1047"/>
      <point x="571" y="1214"/>
      <point x="368" y="1214" type="curve" smooth="yes"/>
      <point x="200" y="1214"/>
      <point x="54" y="1078"/>
      <point x="54" y="865" type="curve" smooth="yes"/>
      <point x="54" y="644"/>
      <point x="201" y="516"/>
      <point x="386" y="516" type="curve" smooth="yes"/>
      <point x="473" y="516"/>
      <point x="557" y="547"/>
      <point x="624" y="590" type="curve"/>
    </contour>
    <contour>
      <point x="206" y="922" type="line"/>
      <point x="222" y="1031"/>
      <point x="283" y="1089"/>
      <point x="369" y="1089" type="curve" smooth="yes"/>
      <point x="473" y="1089"/>
      <point x="508" y="1005"/>
      <point x="508" y="922" type="curve"/>
    </contour>
  </outline>
</glyph>
<glyph name="k.sups" format="2">
  <advance width="717"/>
  <unicode hex="1D4F"/>
  <outline>
    <contour>
      <point x="98" y="532" type="line"/>
      <point x="258" y="532" type="line"/>
      <point x="258" y="697" type="line"/>
      <point x="357" y="817" type="line"/>
      <point x="533" y="532" type="line"/>
      <point x="707" y="532" type="line"/>
      <point x="448" y="922" type="line"/>
      <point x="683" y="1197" type="line"/>
      <point x="508" y="1197" type="line"/>
      <point x="267" y="894" type="line"/>
      <point x="258" y="894" type="line"/>
      <point x="258" y="1488" type="line"/>
      <point x="98" y="1488" type="line"/>
    </contour>
  </outline>
</glyph>
<glyph name="p.sups" format="2">
  <advance width="774"/>
  <unicode hex="1D56"/>
  <outline>
    <contour>
      <point x="98" y="255" type="line"/>
      <point x="258" y="255" type="line"/>
      <point x="258" y="460" type="line"/>
      <point x="249" y="590" type="line"/>
      <point x="302" y="542"/>
      <point x="368" y="516"/>
      <point x="428" y="516" type="curve" smooth="yes"/>
      <point x="576" y="516"/>
      <point x="712" y="647"/>
      <point x="712" y="877" type="curve" smooth="yes"/>
      <point x="712" y="1080"/>
      <point x="615" y="1214"/>
      <point x="446" y="1214" type="curve" smooth="yes"/>
      <point x="370" y="1214"/>
      <point x="297" y="1171"/>
      <point x="246" y="1125" type="curve"/>
      <point x="240" y="1125" type="line"/>
      <point x="226" y="1197" type="line"/>
      <point x="98" y="1197" type="line"/>
    </contour>
    <contour>
      <point x="258" y="1008" type="line"/>
      <point x="308" y="1057"/>
      <point x="356" y="1083"/>
      <point x="404" y="1083" type="curve" smooth="yes"/>
      <point x="503" y="1083"/>
      <point x="548" y="1008"/>
      <point x="548" y="875" type="curve" smooth="yes"/>
      <point x="548" y="724"/>
      <point x="482" y="645"/>
      <point x="396" y="645" type="curve" smooth="yes"/>
      <point x="355" y="645"/>
      <point x="305" y="660"/>
      <point x="258" y="700" type="curve"/>
    </contour>
  </outline>
</glyph>
<glyph name="t.sups" format="2">
  <advance width="496"/>
  <unicode hex="1D57"/>
  <outline>
    <contour>
      <point x="450" y="656" type="line"/>
      <point x="427" y="647"/>
      <point x="404" y="642"/>
      <point x="379" y="642" type="curve" smooth="yes"/>
      <point x="318" y="642"/>
      <point x="285" y="682"/>
      <point x="285" y="761" type="curve" smooth="yes"/>
      <point x="285" y="1072" type="line"/>
      <point x="457" y="1072" type="line"/>
      <point x="457" y="1197" type="line"/>
      <point x="285" y="1197" type="line"/>
      <point x="285" y="1378" type="line"/>
      <point x="152" y="1378" type="line"/>
      <point x="132" y="1197" type="line"/>
      <point x="30" y="1191" type="line"/>
      <point x="30" y="1072" type="line"/>
      <point x="126" y="1072" type="line"/>
      <point x="126" y="762" type="line"/>
      <point x="126" y="616"/>
      <point x="183" y="516"/>
      <point x="338" y="516" type="curve" smooth="yes"/>
      <point x="394" y="516"/>
      <point x="443" y="528"/>
      <point x="480" y="541" type="curve"/>
    </contour>
  </outline>
</glyph>
<glyph name="u.sups" format="2">
  <advance width="768"/>
  <unicode hex="1D58"/>
  <outline>
    <contour>
      <point x="528" y="622" type="line"/>
      <point x="545" y="532" type="line"/>
      <point x="672" y="532" type="line"/>
      <point x="672" y="1197" type="line"/>
      <point x="512" y="1197" type="line"/>
      <point x="512" y="734" type="line"/>
      <point x="458" y="678"/>
      <point x="411" y="651"/>
      <point x="363" y="651" type="curve" smooth="yes"/>
      <point x="271" y="651"/>
      <point x="253" y="705"/>
      <point x="253" y="801" type="curve" smooth="yes"/>
      <point x="253" y="1197" type="line"/>
      <point x="94" y="1197" type="line"/>
      <point x="94" y="779" type="line"/>
      <point x="94" y="622"/>
      <point x="154" y="516"/>
      <point x="306" y="516" type="curve" smooth="yes"/>
      <point x="396" y="516"/>
      <point x="470" y="568"/>
      <point x="522" y="622" type="curve"/>
    </contour>
  </outline>
</glyph>
<glyph name="v.sups" format="2">
  <advance width="684"/>
  <unicode hex="1D5B"/>
  <outline>
    <contour>
      <point x="249" y="532" type="line"/>
      <point x="435" y="532" type="line"/>
      <point x="668" y="1197" type="line"/>
      <point x="513" y="1197" type="line"/>
      <point x="407" y="856" type="line"/>
      <point x="348" y="654" type="line"/>
      <point x="342" y="654" type="line"/>
      <point x="280" y="856" type="line"/>
      <point x="175" y="1197" type="line"/>
      <point x="16" y="1197" type="line"/>
    </contour>
  </outline>
</glyph>
<glyph name="z.sups" format="2">
  <advance width="611"/>
  <unicode hex="1DBB"/>
  <outline>
    <contour>
      <point x="46" y="532" type="line"/>
      <point x="575" y="532" type="line"/>
      <point x="575" y="658" type="line"/>
      <point x="247" y="658" type="line"/>
      <point x="566" y="1109" type="line"/>
      <point x="566" y="1197" type="line"/>
      <point x="85" y="1197" type="line"/>
      <point x="85" y="1072" type="line"/>
      <point x="366" y="1072" type="line"/>
      <point x="46" y="619" type="line"/>
    </contour>
  </outline>
</glyph>
<glyph name="quoteleft" format="2">
  <advance width="550"/>
  <unicode hex="2018"/>
  <outline>
    <contour>
      <point x="357" y="1415" type="line"/>
      <point x="197" y="1322"/>
      <point x="99" y="1174"/>
      <point x="99" y="978" type="curve" smooth="yes"/>
      <point x="99" y="840"/>
      <point x="169" y="761"/>
      <point x="269" y="761" type="curve" smooth="yes"/>
      <point x="342" y="761"/>
      <point x="396" y="813"/>
      <point x="396" y="894" type="curve" smooth="yes"/>
      <point x="396" y="972"/>
      <point x="337" y="1017"/>
      <point x="270" y="1017" type="curve" smooth="yes"/>
      <point x="264" y="1017"/>
      <point x="257" y="1017"/>
      <point x="251" y="1015" type="curve"/>
      <point x="251" y="1133"/>
      <point x="308" y="1254"/>
      <point x="420" y="1320" type="curve"/>
    </contour>
  </outline>
</glyph>
<glyph name="daggerdbl" format="2">
  <advance width="974"/>
  <unicode hex="2021"/>
  <outline>
    <contour>
      <point x="396" y="-164" type="line"/>
      <point x="577" y="-164" type="line"/>
      <point x="564" y="174" type="line"/>
      <point x="871" y="161" type="line"/>
      <point x="871" y="343" type="line"/>
      <point x="564" y="325" type="line"/>
      <point x="577" y="647" type="line"/>
      <point x="564" y="970" type="line"/>
      <point x="871" y="951" type="line"/>
      <point x="871" y="1134" type="line"/>
      <point x="564" y="1120" type="line"/>
      <point x="577" y="1458" type="line"/>
      <point x="396" y="1458" type="line"/>
      <point x="409" y="1120" type="line"/>
      <point x="103" y="1134" type="line"/>
      <point x="103" y="951" type="line"/>
      <point x="409" y="970" type="line"/>
      <point x="396" y="647" type="line"/>
      <point x="409" y="325" type="line"/>
      <point x="103" y="343" type="line"/>
      <point x="103" y="161" type="line"/>
      <point x="409" y="174" type="line"/>
    </contour>
  </outline>
</glyph>
<glyph name="bullet" format="2">
  <advance width="655"/>
  <unicode hex="2022"/>
  <outline>
    <contour>
      <point x="327" y="277" type="curve" smooth="yes"/>
      <point x="461" y="277"/>
      <point x="573" y="385"/>
      <point x="573" y="538" type="curve" smooth="yes"/>
      <point x="573" y="691"/>
      <point x="461" y="799"/>
      <point x="327" y="799" type="curve" smooth="yes"/>
      <point x="193" y="799"/>
      <point x="82" y="691"/>
      <point x="82" y="538" type="curve" smooth="yes"/>
      <point x="82" y="385"/>
      <point x="193" y="277"/>
    </contour>
  </outline>
</glyph>
<glyph name="minute" format="2">
  <advance width="550"/>
  <unicode hex="2032"/>
  <outline>
    <contour>
      <point x="165" y="827" type="line"/>
      <point x="307" y="827" type="line"/>
      <point x="388" y="1170" type="line"/>
      <point x="428" y="1410" type="line"/>
      <point x="211" y="1410" type="line"/>
    </contour>
  </outline>
</glyph>
<glyph name="second" format="2">
  <advance width="959"/>
  <unicode hex="2033"/>
  <outline>
    <contour>
      <point x="572" y="827" type="line"/>
      <point x="716" y="827" type="line"/>
      <point x="797" y="1170" type="line"/>
      <point x="835" y="1410" type="line"/>
      <point x="618" y="1410" type="line"/>
    </contour>
    <contour>
      <point x="165" y="827" type="line"/>
      <point x="307" y="827" type="line"/>
      <point x="388" y="1170" type="line"/>
      <point x="428" y="1410" type="line"/>
      <point x="211" y="1410" type="line"/>
    </contour>
  </outline>
</glyph>
<glyph name="fraction" format="2">
  <advance width="184"/>
  <unicode hex="2044"/>
  <outline>
    <contour>
      <point x="-305" y="-25" type="line"/>
      <point x="-168" y="-25" type="line"/>
      <point x="496" y="1365" type="line"/>
      <point x="358" y="1365" type="line"/>
    </contour>
  </outline>
</glyph>
<glyph name="zero.sups" format="2">
  <advance width="759"/>
  <unicode hex="2070"/>
  <outline>
    <contour>
      <point x="380" y="877" type="curve" smooth="yes"/>
      <point x="566" y="877"/>
      <point x="696" y="1032"/>
      <point x="696" y="1303" type="curve" smooth="yes"/>
      <point x="696" y="1570"/>
      <point x="566" y="1724"/>
      <point x="380" y="1724" type="curve" smooth="yes"/>
      <point x="193" y="1724"/>
      <point x="65" y="1570"/>
      <point x="65" y="1303" type="curve" smooth="yes"/>
      <point x="65" y="1032"/>
      <point x="193" y="877"/>
    </contour>
    <contour>
      <point x="380" y="1005" type="curve" smooth="yes"/>
      <point x="288" y="1005"/>
      <point x="223" y="1098"/>
      <point x="223" y="1303" type="curve" smooth="yes"/>
      <point x="223" y="1507"/>
      <point x="288" y="1596"/>
      <point x="380" y="1596" type="curve" smooth="yes"/>
      <point x="470" y="1596"/>
      <point x="536" y="1507"/>
      <point x="536" y="1303" type="curve" smooth="yes"/>
      <point x="536" y="1098"/>
      <point x="470" y="1005"/>
    </contour>
  </outline>
</glyph>
<glyph name="i.sups" format="2">
  <advance width="357"/>
  <unicode hex="2071"/>
  <outline>
    <contour>
      <point x="98" y="532" type="line"/>
      <point x="258" y="532" type="line"/>
      <point x="258" y="1197" type="line"/>
      <point x="98" y="1197" type="line"/>
    </contour>
    <contour>
      <point x="180" y="1311" type="curve" smooth="yes"/>
      <point x="237" y="1311"/>
      <point x="279" y="1349"/>
      <point x="279" y="1402" type="curve" smooth="yes"/>
      <point x="279" y="1454"/>
      <point x="237" y="1492"/>
      <point x="180" y="1492" type="curve" smooth="yes"/>
      <point x="122" y="1492"/>
      <point x="81" y="1454"/>
      <point x="81" y="1402" type="curve" smooth="yes"/>
      <point x="81" y="1349"/>
      <point x="122" y="1311"/>
    </contour>
  </outline>
</glyph>
<glyph name="eight.sups" format="2">
  <advance width="759"/>
  <unicode hex="2078"/>
  <outline>
    <contour>
      <point x="522" y="1324" type="line"/>
      <point x="580" y="1361"/>
      <point x="643" y="1424"/>
      <point x="643" y="1510" type="curve" smooth="yes"/>
      <point x="643" y="1642"/>
      <point x="526" y="1724"/>
      <point x="378" y="1724" type="curve" smooth="yes"/>
      <point x="234" y="1724"/>
      <point x="118" y="1641"/>
      <point x="118" y="1510" type="curve" smooth="yes"/>
      <point x="118" y="1427"/>
      <point x="167" y="1373"/>
      <point x="237" y="1326" type="curve"/>
      <point x="237" y="1318" type="line"/>
      <point x="161" y="1275"/>
      <point x="87" y="1198"/>
      <point x="87" y="1102" type="curve" smooth="yes"/>
      <point x="87" y="979"/>
      <point x="205" y="877"/>
      <point x="378" y="877" type="curve" smooth="yes"/>
      <point x="546" y="877"/>
      <point x="668" y="978"/>
      <point x="668" y="1106" type="curve" smooth="yes"/>
      <point x="668" y="1204"/>
      <point x="609" y="1271"/>
      <point x="522" y="1316" type="curve"/>
    </contour>
    <contour>
      <point x="378" y="992" type="curve" smooth="yes"/>
      <point x="296" y="992"/>
      <point x="239" y="1051"/>
      <point x="239" y="1117" type="curve" smooth="yes"/>
      <point x="239" y="1175"/>
      <point x="273" y="1226"/>
      <point x="334" y="1265" type="curve"/>
      <point x="432" y="1222"/>
      <point x="517" y="1200"/>
      <point x="517" y="1115" type="curve" smooth="yes"/>
      <point x="517" y="1047"/>
      <point x="455" y="992"/>
    </contour>
    <contour>
      <point x="419" y="1370" type="curve"/>
      <point x="335" y="1399"/>
      <point x="267" y="1435"/>
      <point x="267" y="1506" type="curve" smooth="yes"/>
      <point x="267" y="1564"/>
      <point x="316" y="1605"/>
      <point x="377" y="1605" type="curve" smooth="yes"/>
      <point x="441" y="1605"/>
      <point x="492" y="1565"/>
      <point x="492" y="1502" type="curve" smooth="yes"/>
      <point x="492" y="1457"/>
      <point x="469" y="1410"/>
    </contour>
  </outline>
</glyph>
<glyph name="nine.sups" format="2">
  <advance width="759"/>
  <unicode hex="2079"/>
  <outline>
    <contour>
      <point x="102" y="947" type="line"/>
      <point x="149" y="911"/>
      <point x="212" y="877"/>
      <point x="313" y="877" type="curve" smooth="yes"/>
      <point x="525" y="877"/>
      <point x="671" y="1032"/>
      <point x="671" y="1315" type="curve" smooth="yes"/>
      <point x="671" y="1568"/>
      <point x="550" y="1724"/>
      <point x="349" y="1724" type="curve" smooth="yes"/>
      <point x="196" y="1724"/>
      <point x="77" y="1606"/>
      <point x="77" y="1449" type="curve" smooth="yes"/>
      <point x="77" y="1297"/>
      <point x="169" y="1195"/>
      <point x="327" y="1195" type="curve" smooth="yes"/>
      <point x="399" y="1195"/>
      <point x="463" y="1222"/>
      <point x="516" y="1274" type="curve"/>
      <point x="503" y="1096"/>
      <point x="424" y="1005"/>
      <point x="305" y="1005" type="curve" smooth="yes"/>
      <point x="250" y="1005"/>
      <point x="208" y="1029"/>
      <point x="169" y="1056" type="curve"/>
    </contour>
    <contour>
      <point x="361" y="1311" type="curve" smooth="yes"/>
      <point x="275" y="1311"/>
      <point x="227" y="1368"/>
      <point x="227" y="1453" type="curve" smooth="yes"/>
      <point x="227" y="1541"/>
      <point x="281" y="1596"/>
      <point x="353" y="1596" type="curve" smooth="yes"/>
      <point x="438" y="1596"/>
      <point x="503" y="1530"/>
      <point x="516" y="1388" type="curve"/>
      <point x="464" y="1333"/>
      <point x="416" y="1311"/>
    </contour>
  </outline>
</glyph>
<glyph name="parenleft.sups" format="2">
  <advance width="509"/>
  <unicode hex="207D"/>
  <outline>
    <contour>
      <point x="433" y="783" type="line"/>
      <point x="333" y="949"/>
      <point x="290" y="1118"/>
      <point x="290" y="1301" type="curve" smooth="yes"/>
      <point x="290" y="1483"/>
      <point x="333" y="1654"/>
      <point x="433" y="1815" type="curve"/>
      <point x="314" y="1869" type="line"/>
      <point x="197" y="1697"/>
      <point x="131" y="1536"/>
      <point x="131" y="1301" type="curve" smooth="yes"/>
      <point x="131" y="1064"/>
      <point x="197" y="902"/>
      <point x="314" y="731" type="curve"/>
    </contour>
  </outline>
</glyph>
<glyph name="parenright.sups" format="2">
  <advance width="509"/>
  <unicode hex="207E"/>
  <outline>
    <contour>
      <point x="199" y="731" type="line"/>
      <point x="313" y="902"/>
      <point x="378" y="1064"/>
      <point x="378" y="1301" type="curve" smooth="yes"/>
      <point x="378" y="1536"/>
      <point x="313" y="1697"/>
      <point x="199" y="1869" type="curve"/>
      <point x="77" y="1815" type="line"/>
      <point x="176" y="1654"/>
      <point x="220" y="1483"/>
      <point x="220" y="1301" type="curve" smooth="yes"/>
      <point x="220" y="1118"/>
      <point x="176" y="949"/>
      <point x="77" y="783" type="curve"/>
    </contour>
  </outline>
</glyph>
<glyph name="n.sups" format="2">
  <advance width="767"/>
  <unicode hex="207F"/>
  <outline>
    <contour>
      <point x="98" y="532" type="line"/>
      <point x="258" y="532" type="line"/>
      <point x="258" y="995" type="line"/>
      <point x="315" y="1051"/>
      <point x="360" y="1079"/>
      <point x="411" y="1079" type="curve" smooth="yes"/>
      <point x="499" y="1079"/>
      <point x="517" y="1023"/>
      <point x="517" y="927" type="curve" smooth="yes"/>
      <point x="517" y="532" type="line"/>
      <point x="677" y="532" type="line"/>
      <point x="677" y="947" type="line"/>
      <point x="677" y="1107"/>
      <point x="620" y="1214"/>
      <point x="467" y="1214" type="curve" smooth="yes"/>
      <point x="378" y="1214"/>
      <point x="304" y="1165"/>
      <point x="247" y="1106" type="curve"/>
      <point x="240" y="1106" type="line"/>
      <point x="226" y="1197" type="line"/>
      <point x="98" y="1197" type="line"/>
    </contour>
  </outline>
</glyph>
<glyph name="zero.subs" format="2">
  <advance width="759"/>
  <unicode hex="2080"/>
  <outline>
    <contour>
      <point x="380" y="-487" type="curve" smooth="yes"/>
      <point x="566" y="-487"/>
      <point x="696" y="-330"/>
      <point x="696" y="-61" type="curve" smooth="yes"/>
      <point x="696" y="208"/>
      <point x="566" y="361"/>
      <point x="380" y="361" type="curve" smooth="yes"/>
      <point x="193" y="361"/>
      <point x="65" y="208"/>
      <point x="65" y="-61" type="curve" smooth="yes"/>
      <point x="65" y="-330"/>
      <point x="193" y="-487"/>
    </contour>
    <contour>
      <point x="380" y="-358" type="curve" smooth="yes"/>
      <point x="288" y="-358"/>
      <point x="223" y="-265"/>
      <point x="223" y="-61" type="curve" smooth="yes"/>
      <point x="223" y="145"/>
      <point x="288" y="233"/>
      <point x="380" y="233" type="curve" smooth="yes"/>
      <point x="470" y="233"/>
      <point x="536" y="145"/>
      <point x="536" y="-61" type="curve" smooth="yes"/>
      <point x="536" y="-265"/>
      <point x="470" y="-358"/>
    </contour>
  </outline>
</glyph>
<glyph name="one.subs" format="2">
  <advance width="759"/>
  <unicode hex="2081"/>
  <outline>
    <contour>
      <point x="347" y="-462" type="line"/>
      <point x="513" y="-462" type="line"/>
      <point x="513" y="337" type="line"/>
      <point x="380" y="337" type="line"/>
      <point x="320" y="293"/>
      <point x="267" y="269"/>
      <point x="170" y="252" type="curve"/>
      <point x="170" y="148" type="line"/>
      <point x="347" y="148" type="line"/>
    </contour>
  </outline>
</glyph>
<glyph name="two.subs" format="2">
  <advance width="759"/>
  <unicode hex="2082"/>
  <outline>
    <contour>
      <point x="101" y="-462" type="line"/>
      <point x="666" y="-462" type="line"/>
      <point x="666" y="-322" type="line"/>
      <point x="365" y="-322" type="line"/>
      <point x="513" y="-166"/>
      <point x="630" y="-45"/>
      <point x="630" y="99" type="curve" smooth="yes"/>
      <point x="630" y="269"/>
      <point x="519" y="361"/>
      <point x="353" y="361" type="curve" smooth="yes"/>
      <point x="239" y="361"/>
      <point x="141" y="301"/>
      <point x="72" y="204" type="curve"/>
      <point x="168" y="116" type="line"/>
      <point x="213" y="179"/>
      <point x="267" y="224"/>
      <point x="330" y="224" type="curve" smooth="yes"/>
      <point x="416" y="224"/>
      <point x="469" y="166"/>
      <point x="469" y="73" type="curve" smooth="yes"/>
      <point x="469" y="-40"/>
      <point x="332" y="-167"/>
      <point x="101" y="-369" type="curve"/>
    </contour>
  </outline>
</glyph>
<glyph name="three.subs" format="2">
  <advance width="759"/>
  <unicode hex="2083"/>
  <outline>
    <contour>
      <point x="195" y="143" type="line"/>
      <point x="237" y="195"/>
      <point x="289" y="233"/>
      <point x="345" y="233" type="curve" smooth="yes"/>
      <point x="423" y="233"/>
      <point x="474" y="190"/>
      <point x="474" y="123" type="curve" smooth="yes"/>
      <point x="474" y="46"/>
      <point x="400" y="-4"/>
      <point x="277" y="-4" type="curve"/>
      <point x="277" y="-105" type="line"/>
      <point x="423" y="-105"/>
      <point x="503" y="-149"/>
      <point x="503" y="-233" type="curve" smooth="yes"/>
      <point x="503" y="-312"/>
      <point x="439" y="-358"/>
      <point x="360" y="-358" type="curve" smooth="yes"/>
      <point x="284" y="-358"/>
      <point x="220" y="-317"/>
      <point x="171" y="-247" type="curve"/>
      <point x="66" y="-327" type="line"/>
      <point x="130" y="-423"/>
      <point x="241" y="-487"/>
      <point x="374" y="-487" type="curve" smooth="yes"/>
      <point x="532" y="-487"/>
      <point x="667" y="-391"/>
      <point x="667" y="-244" type="curve" smooth="yes"/>
      <point x="667" y="-142"/>
      <point x="592" y="-75"/>
      <point x="505" y="-47" type="curve"/>
      <point x="584" y="-8"/>
      <point x="637" y="53"/>
      <point x="637" y="144" type="curve" smooth="yes"/>
      <point x="637" y="280"/>
      <point x="514" y="361"/>
      <point x="373" y="361" type="curve" smooth="yes"/>
      <point x="257" y="361"/>
      <point x="175" y="313"/>
      <point x="98" y="228" type="curve"/>
    </contour>
  </outline>
</glyph>
<glyph name="four.subs" format="2">
  <advance width="759"/>
  <unicode hex="2084"/>
  <outline>
    <contour>
      <point x="446" y="-462" type="line"/>
      <point x="594" y="-462" type="line"/>
      <point x="594" y="-262" type="line"/>
      <point x="713" y="-262" type="line"/>
      <point x="713" y="-150" type="line"/>
      <point x="594" y="-150" type="line"/>
      <point x="594" y="337" type="line"/>
      <point x="398" y="337" type="line"/>
      <point x="81" y="-178" type="line"/>
      <point x="81" y="-262" type="line"/>
      <point x="446" y="-262" type="line"/>
    </contour>
    <contour>
      <point x="242" y="-150" type="line"/>
      <point x="353" y="38" type="line"/>
      <point x="448" y="201" type="line"/>
      <point x="456" y="201" type="line"/>
      <point x="446" y="-27" type="line"/>
      <point x="446" y="-150" type="line"/>
    </contour>
  </outline>
</glyph>
<glyph name="five.subs" format="2">
  <advance width="759"/>
  <unicode hex="2085"/>
  <outline>
    <contour>
      <point x="315" y="195" type="line"/>
      <point x="636" y="195" type="line"/>
      <point x="636" y="337" type="line"/>
      <point x="181" y="337" type="line"/>
      <point x="145" y="-53" type="line"/>
      <point x="221" y="-105" type="line"/>
      <point x="262" y="-72"/>
      <point x="302" y="-49"/>
      <point x="359" y="-49" type="curve" smooth="yes"/>
      <point x="445" y="-49"/>
      <point x="509" y="-104"/>
      <point x="509" y="-203" type="curve" smooth="yes"/>
      <point x="509" y="-290"/>
      <point x="448" y="-358"/>
      <point x="364" y="-358" type="curve" smooth="yes"/>
      <point x="280" y="-358"/>
      <point x="222" y="-317"/>
      <point x="171" y="-247" type="curve"/>
      <point x="66" y="-327" type="line"/>
      <point x="132" y="-423"/>
      <point x="236" y="-487"/>
      <point x="378" y="-487" type="curve" smooth="yes"/>
      <point x="547" y="-487"/>
      <point x="673" y="-372"/>
      <point x="673" y="-209" type="curve" smooth="yes"/>
      <point x="673" y="-40"/>
      <point x="554" y="56"/>
      <point x="412" y="56" type="curve" smooth="yes"/>
      <point x="374" y="56"/>
      <point x="333" y="47"/>
      <point x="296" y="32" type="curve"/>
    </contour>
  </outline>
</glyph>
<glyph name="six.subs" format="2">
  <advance width="759"/>
  <unicode hex="2086"/>
  <outline>
    <contour>
      <point x="653" y="291" type="line"/>
      <point x="607" y="329"/>
      <point x="543" y="361"/>
      <point x="442" y="361" type="curve" smooth="yes"/>
      <point x="231" y="361"/>
      <point x="85" y="206"/>
      <point x="85" y="-77" type="curve" smooth="yes"/>
      <point x="85" y="-330"/>
      <point x="207" y="-487"/>
      <point x="406" y="-487" type="curve" smooth="yes"/>
      <point x="561" y="-487"/>
      <point x="679" y="-367"/>
      <point x="679" y="-210" type="curve" smooth="yes"/>
      <point x="679" y="-60"/>
      <point x="586" y="43"/>
      <point x="429" y="43" type="curve" smooth="yes"/>
      <point x="358" y="43"/>
      <point x="293" y="17"/>
      <point x="240" y="-34" type="curve"/>
      <point x="254" y="143"/>
      <point x="333" y="233"/>
      <point x="450" y="233" type="curve" smooth="yes"/>
      <point x="506" y="233"/>
      <point x="548" y="211"/>
      <point x="587" y="183" type="curve"/>
    </contour>
    <contour>
      <point x="401" y="-358" type="curve" smooth="yes"/>
      <point x="317" y="-358"/>
      <point x="252" y="-290"/>
      <point x="240" y="-148" type="curve"/>
      <point x="293" y="-95"/>
      <point x="341" y="-72"/>
      <point x="393" y="-72" type="curve" smooth="yes"/>
      <point x="481" y="-72"/>
      <point x="528" y="-129"/>
      <point x="528" y="-215" type="curve" smooth="yes"/>
      <point x="528" y="-304"/>
      <point x="474" y="-358"/>
    </contour>
  </outline>
</glyph>
<glyph name="colonmonetary" format="2">
  <advance width="1042"/>
  <unicode hex="20A1"/>
  <outline>
    <contour>
      <point x="366" y="-225" type="line"/>
      <point x="453" y="-225" type="line"/>
      <point x="480" y="1" type="line"/>
      <point x="512" y="-10"/>
      <point x="546" y="-18"/>
      <point x="582" y="-23" type="curve"/>
      <point x="558" y="-225" type="line"/>
      <point x="646" y="-225" type="line"/>
      <point x="670" y="-24" type="line"/>
      <point x="808" y="-14"/>
      <point x="919" y="54"/>
      <point x="1009" y="165" type="curve"/>
      <point x="884" y="280" type="line"/>
      <point x="827" y="206"/>
      <point x="767" y="163"/>
      <point x="691" y="151" type="curve"/>
      <point x="804" y="1107" type="line"/>
      <point x="829" y="1088"/>
      <point x="854" y="1064"/>
      <point x="876" y="1037" type="curve"/>
      <point x="1002" y="1158" type="line"/>
      <point x="955" y="1217"/>
      <point x="893" y="1266"/>
      <point x="826" y="1296" type="curve"/>
      <point x="854" y="1530" type="line"/>
      <point x="767" y="1530" type="line"/>
      <point x="742" y="1322" type="line"/>
      <point x="720" y="1327"/>
      <point x="697" y="1329"/>
      <point x="674" y="1329" type="curve" smooth="yes"/>
      <point x="662" y="1329"/>
      <point x="650" y="1329"/>
      <point x="637" y="1327" type="curve"/>
      <point x="662" y="1530" type="line"/>
      <point x="575" y="1530" type="line"/>
      <point x="550" y="1315" type="line"/>
      <point x="289" y="1258"/>
      <point x="120" y="1018"/>
      <point x="120" y="648" type="curve" smooth="yes"/>
      <point x="120" y="346"/>
      <point x="228" y="135"/>
      <point x="398" y="37" type="curve"/>
    </contour>
    <contour>
      <point x="427" y="280" type="line"/>
      <point x="373" y="368"/>
      <point x="343" y="496"/>
      <point x="343" y="655" type="curve" smooth="yes"/>
      <point x="343" y="886"/>
      <point x="407" y="1051"/>
      <point x="527" y="1119" type="curve"/>
    </contour>
    <contour>
      <point x="604" y="153" type="line"/>
      <point x="566" y="159"/>
      <point x="533" y="172"/>
      <point x="503" y="194" type="curve"/>
      <point x="617" y="1153" type="line"/>
      <point x="633" y="1155"/>
      <point x="650" y="1156"/>
      <point x="668" y="1156" type="curve" smooth="yes"/>
      <point x="688" y="1156"/>
      <point x="704" y="1153"/>
      <point x="721" y="1149" type="curve"/>
    </contour>
  </outline>
</glyph>
<glyph name="rupee" format="2">
  <advance width="1354"/>
  <unicode hex="20A8"/>
  <anchor x="375" y="27" name="bottom"/>
  <anchor x="453" y="1167" name="top"/>
  <outline>
    <contour>
      <point x="652" y="-42" type="line"/>
      <point x="820" y="81" type="line"/>
      <point x="488" y="511" type="line"/>
      <point x="479" y="502" type="line"/>
      <point x="495" y="493"/>
      <point x="522" y="488"/>
      <point x="547" y="488" type="curve" smooth="yes"/>
      <point x="660" y="488"/>
      <point x="752" y="574"/>
      <point x="752" y="751" type="curve" smooth="yes"/>
      <point x="752" y="1176" type="line"/>
      <point x="552" y="1176" type="line"/>
      <point x="552" y="739" type="line" smooth="yes"/>
      <point x="552" y="677"/>
      <point x="530" y="649"/>
      <point x="480" y="649" type="curve" smooth="yes"/>
      <point x="447" y="649"/>
      <point x="416" y="661"/>
      <point x="378" y="693" type="curve"/>
      <point x="234" y="582" type="line"/>
    </contour>
    <contour>
      <point x="172" y="787" type="line"/>
      <point x="961" y="787" type="line"/>
      <point x="961" y="969" type="line"/>
      <point x="172" y="969" type="line"/>
    </contour>
    <contour>
      <point x="172" y="1104" type="line"/>
      <point x="961" y="1104" type="line"/>
      <point x="961" y="1287" type="line"/>
      <point x="172" y="1287" type="line"/>
    </contour>
  </outline>
</glyph>
<glyph name="euro" format="2">
  <advance width="1042"/>
  <unicode hex="20AC"/>
  <outline>
    <contour>
      <point x="902" y="280" type="line"/>
      <point x="839" y="195"/>
      <point x="772" y="148"/>
      <point x="681" y="148" type="curve" smooth="yes"/>
      <point x="533" y="148"/>
      <point x="435" y="266"/>
      <point x="400" y="465" type="curve"/>
      <point x="804" y="465" type="line"/>
      <point x="804" y="585" type="line"/>
      <point x="386" y="585" type="line"/>
      <point x="384" y="607"/>
      <point x="384" y="632"/>
      <point x="384" y="655" type="curve" smooth="yes"/>
      <point x="384" y="674"/>
      <point x="384" y="692"/>
      <point x="385" y="709" type="curve"/>
      <point x="886" y="709" type="line"/>
      <point x="886" y="829" type="line"/>
      <point x="397" y="829" type="line"/>
      <point x="430" y="1034"/>
      <point x="530" y="1156"/>
      <point x="686" y="1156" type="curve" smooth="yes"/>
      <point x="767" y="1156"/>
      <point x="828" y="1112"/>
      <point x="884" y="1048" type="curve"/>
      <point x="1010" y="1169" type="line"/>
      <point x="931" y="1264"/>
      <point x="817" y="1329"/>
      <point x="694" y="1329" type="curve" smooth="yes"/>
      <point x="424" y="1329"/>
      <point x="228" y="1144"/>
      <point x="175" y="828" type="curve"/>
      <point x="45" y="818" type="line"/>
      <point x="45" y="709" type="line"/>
      <point x="163" y="709" type="line"/>
      <point x="161" y="689"/>
      <point x="161" y="669"/>
      <point x="161" y="648" type="curve" smooth="yes"/>
      <point x="161" y="626"/>
      <point x="161" y="604"/>
      <point x="163" y="583" type="curve"/>
      <point x="45" y="574" type="line"/>
      <point x="45" y="465" type="line"/>
      <point x="175" y="465" type="line"/>
      <point x="227" y="152"/>
      <point x="418" y="-25"/>
      <point x="667" y="-25" type="curve" smooth="yes"/>
      <point x="816" y="-25"/>
      <point x="934" y="45"/>
      <point x="1028" y="165" type="curve"/>
    </contour>
  </outline>
</glyph>
<glyph name="guarani" format="2">
  <advance width="1042"/>
  <unicode hex="20B2"/>
  <outline>
    <contour>
      <point x="529" y="-225" type="line"/>
      <point x="682" y="-225" type="line"/>
      <point x="682" y="-18" type="line"/>
      <point x="791" y="-3"/>
      <point x="890" y="47"/>
      <point x="969" y="126" type="curve"/>
      <point x="969" y="702" type="line"/>
      <point x="590" y="702" type="line"/>
      <point x="590" y="521" type="line"/>
      <point x="772" y="521" type="line"/>
      <point x="772" y="211" type="line"/>
      <point x="741" y="180"/>
      <point x="681" y="155"/>
      <point x="619" y="155" type="curve" smooth="yes"/>
      <point x="424" y="155"/>
      <point x="310" y="341"/>
      <point x="310" y="655" type="curve" smooth="yes"/>
      <point x="310" y="964"/>
      <point x="422" y="1156"/>
      <point x="625" y="1156" type="curve" smooth="yes"/>
      <point x="715" y="1156"/>
      <point x="779" y="1112"/>
      <point x="841" y="1043" type="curve"/>
      <point x="966" y="1164" type="line"/>
      <point x="892" y="1248"/>
      <point x="794" y="1312"/>
      <point x="682" y="1325" type="curve"/>
      <point x="682" y="1530" type="line"/>
      <point x="529" y="1530" type="line"/>
      <point x="529" y="1320" type="line"/>
      <point x="262" y="1271"/>
      <point x="89" y="1027"/>
      <point x="89" y="648" type="curve" smooth="yes"/>
      <point x="89" y="257"/>
      <point x="269" y="18"/>
      <point x="529" y="-18" type="curve"/>
    </contour>
  </outline>
</glyph>
<glyph name="cedi" format="2">
  <advance width="1042"/>
  <unicode hex="20B5"/>
  <outline>
    <contour>
      <point x="577" y="-225" type="line"/>
      <point x="707" y="-225" type="line"/>
      <point x="707" y="-18" type="line"/>
      <point x="829" y="-1"/>
      <point x="927" y="64"/>
      <point x="1009" y="165" type="curve"/>
      <point x="884" y="280" type="line"/>
      <point x="831" y="212"/>
      <point x="776" y="170"/>
      <point x="707" y="155" type="curve"/>
      <point x="707" y="1152" type="line"/>
      <point x="771" y="1142"/>
      <point x="821" y="1103"/>
      <point x="865" y="1048" type="curve"/>
      <point x="990" y="1169" type="line"/>
      <point x="920" y="1254"/>
      <point x="819" y="1318"/>
      <point x="707" y="1328" type="curve"/>
      <point x="707" y="1519" type="line"/>
      <point x="577" y="1519" type="line"/>
      <point x="577" y="1321" type="line"/>
      <point x="301" y="1276"/>
      <point x="120" y="1030"/>
      <point x="120" y="648" type="curve" smooth="yes"/>
      <point x="120" y="249"/>
      <point x="307" y="9"/>
      <point x="577" y="-22" type="curve"/>
    </contour>
    <contour>
      <point x="577" y="160" type="line"/>
      <point x="427" y="201"/>
      <point x="343" y="382"/>
      <point x="343" y="655" type="curve" smooth="yes"/>
      <point x="343" y="916"/>
      <point x="425" y="1095"/>
      <point x="577" y="1141" type="curve"/>
    </contour>
  </outline>
</glyph>
<glyph name="rupeeIndian" format="2">
  <advance width="1042"/>
  <unicode hex="20B9"/>
  <outline>
    <contour>
      <point x="636" y="0" type="line"/>
      <point x="883" y="0" type="line"/>
      <point x="511" y="506" type="line"/>
      <point x="669" y="553"/>
      <point x="781" y="667"/>
      <point x="796" y="858" type="curve"/>
      <point x="935" y="858" type="line"/>
      <point x="935" y="977" type="line"/>
      <point x="793" y="977" type="line"/>
      <point x="776" y="1068"/>
      <point x="726" y="1141"/>
      <point x="652" y="1184" type="curve"/>
      <point x="935" y="1184" type="line"/>
      <point x="935" y="1304" type="line"/>
      <point x="145" y="1304" type="line"/>
      <point x="145" y="1127" type="line"/>
      <point x="286" y="1127" type="line"/>
      <point x="445" y="1127"/>
      <point x="546" y="1086"/>
      <point x="575" y="977" type="curve"/>
      <point x="291" y="977" type="line"/>
      <point x="145" y="966" type="line"/>
      <point x="145" y="858" type="line"/>
      <point x="579" y="858" type="line"/>
      <point x="560" y="719"/>
      <point x="456" y="652"/>
      <point x="286" y="652" type="curve" smooth="yes"/>
      <point x="145" y="652" type="line"/>
      <point x="145" y="476" type="line"/>
      <point x="298" y="476" type="line"/>
    </contour>
  </outline>
</glyph>
<glyph name="liraTurkish" format="2">
  <advance width="1042"/>
  <unicode hex="20BA"/>
  <outline>
    <contour>
      <point x="216" y="-25" type="line"/>
      <point x="672" y="-35"/>
      <point x="979" y="144"/>
      <point x="979" y="500" type="curve" smooth="yes"/>
      <point x="979" y="530"/>
      <point x="975" y="568"/>
      <point x="965" y="612" type="curve"/>
      <point x="782" y="568" type="line"/>
      <point x="789" y="532"/>
      <point x="789" y="509"/>
      <point x="789" y="490" type="curve" smooth="yes"/>
      <point x="789" y="301"/>
      <point x="607" y="191"/>
      <point x="437" y="181" type="curve"/>
      <point x="437" y="610" type="line"/>
      <point x="759" y="781" type="line"/>
      <point x="759" y="910" type="line"/>
      <point x="437" y="741" type="line"/>
      <point x="437" y="875" type="line"/>
      <point x="759" y="1045" type="line"/>
      <point x="759" y="1175" type="line"/>
      <point x="437" y="1006" type="line"/>
      <point x="437" y="1304" type="line"/>
      <point x="216" y="1304" type="line"/>
      <point x="216" y="897" type="line"/>
      <point x="40" y="804" type="line"/>
      <point x="40" y="674" type="line"/>
      <point x="216" y="767" type="line"/>
      <point x="216" y="633" type="line"/>
      <point x="40" y="540" type="line"/>
      <point x="40" y="410" type="line"/>
      <point x="216" y="503" type="line"/>
    </contour>
  </outline>
</glyph>
<glyph name="arrowleft" format="2">
  <advance width="1266"/>
  <unicode hex="2190"/>
  <outline>
    <contour>
      <point x="613" y="-33" type="line"/>
      <point x="722" y="89" type="line"/>
      <point x="354" y="426" type="line"/>
      <point x="1184" y="426" type="line"/>
      <point x="1184" y="606" type="line"/>
      <point x="354" y="606" type="line"/>
      <point x="722" y="943" type="line"/>
      <point x="613" y="1065" type="line"/>
      <point x="50" y="520" type="line"/>
      <point x="50" y="512" type="line"/>
    </contour>
  </outline>
</glyph>
<glyph name="arrowup" format="2">
  <advance width="1266"/>
  <unicode hex="2191"/>
  <outline>
    <contour>
      <point x="544" y="-52" type="line"/>
      <point x="721" y="-52" type="line"/>
      <point x="721" y="784" type="line"/>
      <point x="1060" y="412" type="line"/>
      <point x="1183" y="519" type="line"/>
      <point x="636" y="1081" type="line"/>
      <point x="628" y="1081" type="line"/>
      <point x="84" y="519" type="line"/>
      <point x="204" y="412" type="line"/>
      <point x="544" y="784" type="line"/>
    </contour>
  </outline>
</glyph>
<glyph name="minus" format="2">
  <advance width="1042"/>
  <unicode hex="2212"/>
  <outline>
    <contour>
      <point x="70" y="596" type="line"/>
      <point x="972" y="596" type="line"/>
      <point x="972" y="755" type="line"/>
      <point x="70" y="755" type="line"/>
    </contour>
  </outline>
</glyph>
<glyph name="divisionslash" format="2">
  <advance width="184"/>
  <unicode hex="2215"/>
  <outline>
    <contour>
      <point x="-345" y="-25" type="line"/>
      <point x="-208" y="-25" type="line"/>
      <point x="526" y="1365" type="line"/>
      <point x="388" y="1365" type="line"/>
    </contour>
  </outline>
</glyph>
<glyph name="radical" format="2">
  <advance width="1165"/>
  <unicode hex="221A"/>
  <outline>
    <contour>
      <point x="572" y="-183" type="line"/>
      <point x="732" y="-183" type="line"/>
      <point x="1176" y="1679" type="line"/>
      <point x="1023" y="1679" type="line"/>
      <point x="675" y="189" type="line"/>
      <point x="665" y="141"/>
      <point x="656" y="91"/>
      <point x="648" y="44" type="curve"/>
      <point x="640" y="44" type="line"/>
      <point x="628" y="91"/>
      <point x="617" y="141"/>
      <point x="602" y="189" type="curve" smooth="yes"/>
      <point x="377" y="856" type="line"/>
      <point x="73" y="727" type="line"/>
      <point x="118" y="615" type="line"/>
      <point x="265" y="680" type="line"/>
    </contour>
  </outline>
</glyph>
<glyph name="filledbox" format="2">
  <advance width="660"/>
  <unicode hex="25A0"/>
  <outline>
    <contour>
      <point x="111" y="315" type="line"/>
      <point x="549" y="315" type="line"/>
      <point x="549" y="763" type="line"/>
      <point x="111" y="763" type="line"/>
    </contour>
  </outline>
</glyph>
<glyph name="whiteuppointingtriangle" format="2">
  <advance width="1187"/>
  <unicode hex="25B3"/>
  <outline>
    <contour>
      <point x="44" y="64" type="line"/>
      <point x="1142" y="64" type="line"/>
      <point x="1142" y="68" type="line"/>
      <point x="598" y="1103" type="line"/>
      <point x="590" y="1103" type="line"/>
      <point x="44" y="68" type="line"/>
    </contour>
    <contour>
      <point x="309" y="214" type="line"/>
      <point x="594" y="779" type="line"/>
      <point x="881" y="214" type="line"/>
    </contour>
  </outline>
</glyph>
<glyph name="whiterightpointingtriangle" format="2">
  <advance width="1187"/>
  <unicode hex="25B7"/>
  <outline>
    <contour>
      <point x="114" y="27" type="line"/>
      <point x="118" y="27" type="line"/>
      <point x="1154" y="573" type="line"/>
      <point x="1154" y="582" type="line"/>
      <point x="118" y="1126" type="line"/>
      <point x="114" y="1126" type="line"/>
    </contour>
    <contour>
      <point x="266" y="290" type="line"/>
      <point x="266" y="863" type="line"/>
      <point x="826" y="578" type="line"/>
    </contour>
  </outline>
</glyph>
<glyph name="blackleftpointingtriangle" format="2">
  <advance width="1187"/>
  <unicode hex="25C0"/>
  <outline>
    <contour>
      <point x="1069" y="27" type="line"/>
      <point x="1073" y="27" type="line"/>
      <point x="1073" y="1126" type="line"/>
      <point x="1069" y="1126" type="line"/>
      <point x="34" y="582" type="line"/>
      <point x="34" y="573" type="line"/>
    </contour>
  </outline>
</glyph>
<glyph name="blackDiamond" format="2">
  <advance width="660"/>
  <unicode hex="25C6"/>
  <outline>
    <contour>
      <point x="330" y="231" type="line"/>
      <point x="637" y="538" type="line"/>
      <point x="330" y="845" type="line"/>
      <point x="21" y="538" type="line"/>
    </contour>
  </outline>
</glyph>
<glyph name="dottedCircle" format="2">
  <advance width="1203"/>
  <unicode hex="25CC"/>
  <outline>
    <contour>
      <point x="926" y="847" type="curve" smooth="yes"/>
      <point x="963" y="847"/>
      <point x="993" y="877"/>
      <point x="993" y="914" type="curve" smooth="yes"/>
      <point x="993" y="951"/>
      <point x="963" y="981"/>
      <point x="926" y="981" type="curve" smooth="yes"/>
      <point x="889" y="981"/>
      <point x="859" y="951"/>
      <point x="859" y="914" type="curve" smooth="yes"/>
      <point x="859" y="877"/>
      <point x="889" y="847"/>
    </contour>
    <contour>
      <point x="276" y="197" type="curve" smooth="yes"/>
      <point x="314" y="197"/>
      <point x="343" y="228"/>
      <point x="343" y="264" type="curve" smooth="yes"/>
      <point x="343" y="302"/>
      <point x="314" y="331"/>
      <point x="276" y="331" type="curve" smooth="yes"/>
      <point x="240" y="331"/>
      <point x="209" y="302"/>
      <point x="209" y="264" type="curve" smooth="yes"/>
      <point x="209" y="228"/>
      <point x="240" y="197"/>
    </contour>
    <contour>
      <point x="426" y="96" type="curve" smooth="yes"/>
      <point x="463" y="96"/>
      <point x="493" y="127"/>
      <point x="493" y="163" type="curve" smooth="yes"/>
      <point x="493" y="201"/>
      <point x="463" y="230"/>
      <point x="426" y="230" type="curve" smooth="yes"/>
      <point x="389" y="230"/>
      <point x="359" y="201"/>
      <point x="359" y="163" type="curve" smooth="yes"/>
      <point x="359" y="127"/>
      <point x="389" y="96"/>
    </contour>
    <contour>
      <point x="177" y="346" type="curve" smooth="yes"/>
      <point x="215" y="346"/>
      <point x="244" y="376"/>
      <point x="244" y="413" type="curve" smooth="yes"/>
      <point x="244" y="450"/>
      <point x="215" y="480"/>
      <point x="177" y="480" type="curve" smooth="yes"/>
      <point x="141" y="480"/>
      <point x="110" y="450"/>
      <point x="110" y="413" type="curve" smooth="yes"/>
      <point x="110" y="376"/>
      <point x="141" y="346"/>
    </contour>
    <contour>
      <point x="142" y="522" type="curve" smooth="yes"/>
      <point x="179" y="522"/>
      <point x="209" y="553"/>
      <point x="209" y="589" type="curve" smooth="yes"/>
      <point x="209" y="626"/>
      <point x="179" y="656"/>
      <point x="142" y="656" type="curve" smooth="yes"/>
      <point x="106" y="656"/>
      <point x="75" y="626"/>
      <point x="75" y="589" type="curve" smooth="yes"/>
      <point x="75" y="553"/>
      <point x="106" y="522"/>
    </contour>
    <contour>
      <point x="602" y="62" type="curve" smooth="yes"/>
      <point x="639" y="62"/>
      <point x="669" y="93"/>
      <point x="669" y="129" type="curve" smooth="yes"/>
      <point x="669" y="166"/>
      <point x="639" y="196"/>
      <point x="602" y="196" type="curve" smooth="yes"/>
      <point x="566" y="196"/>
      <point x="535" y="166"/>
      <point x="535" y="129" type="curve" smooth="yes"/>
      <point x="535" y="93"/>
      <point x="566" y="62"/>
    </contour>
    <contour>
      <point x="176" y="698" type="curve" smooth="yes"/>
      <point x="214" y="698"/>
      <point x="243" y="729"/>
      <point x="243" y="765" type="curve" smooth="yes"/>
      <point x="243" y="803"/>
      <point x="214" y="832"/>
      <point x="176" y="832" type="curve" smooth="yes"/>
      <point x="140" y="832"/>
      <point x="109" y="803"/>
      <point x="109" y="765" type="curve" smooth="yes"/>
      <point x="109" y="729"/>
      <point x="140" y="698"/>
    </contour>
    <contour>
      <point x="777" y="98" type="curve" smooth="yes"/>
      <point x="815" y="98"/>
      <point x="844" y="129"/>
      <point x="844" y="165" type="curve" smooth="yes"/>
      <point x="844" y="203"/>
      <point x="815" y="232"/>
      <point x="777" y="232" type="curve" smooth="yes"/>
      <point x="741" y="232"/>
      <point x="710" y="203"/>
      <point x="710" y="165" type="curve" smooth="yes"/>
      <point x="710" y="129"/>
      <point x="741" y="98"/>
    </contour>
    <contour>
      <point x="276" y="846" type="curve" smooth="yes"/>
      <point x="314" y="846"/>
      <point x="343" y="876"/>
      <point x="343" y="913" type="curve" smooth="yes"/>
      <point x="343" y="950"/>
      <point x="314" y="980"/>
      <point x="276" y="980" type="curve" smooth="yes"/>
      <point x="240" y="980"/>
      <point x="209" y="950"/>
      <point x="209" y="913" type="curve" smooth="yes"/>
      <point x="209" y="876"/>
      <point x="240" y="846"/>
    </contour>
    <contour>
      <point x="926" y="197" type="curve" smooth="yes"/>
      <point x="963" y="197"/>
      <point x="993" y="228"/>
      <point x="993" y="264" type="curve" smooth="yes"/>
      <point x="993" y="302"/>
      <point x="963" y="331"/>
      <point x="926" y="331" type="curve" smooth="yes"/>
      <point x="889" y="331"/>
      <point x="859" y="302"/>
      <point x="859" y="264" type="curve" smooth="yes"/>
      <point x="859" y="228"/>
      <point x="889" y="197"/>
    </contour>
    <contour>
      <point x="1025" y="346" type="curve" smooth="yes"/>
      <point x="1062" y="346"/>
      <point x="1092" y="376"/>
      <point x="1092" y="413" type="curve" smooth="yes"/>
      <point x="1092" y="450"/>
      <point x="1062" y="480"/>
      <point x="1025" y="480" type="curve" smooth="yes"/>
      <point x="988" y="480"/>
      <point x="958" y="450"/>
      <point x="958" y="413" type="curve" smooth="yes"/>
      <point x="958" y="376"/>
      <point x="988" y="346"/>
    </contour>
    <contour>
      <point x="425" y="947" type="curve" smooth="yes"/>
      <point x="462" y="947"/>
      <point x="492" y="977"/>
      <point x="492" y="1014" type="curve" smooth="yes"/>
      <point x="492" y="1051"/>
      <point x="462" y="1081"/>
      <point x="425" y="1081" type="curve" smooth="yes"/>
      <point x="388" y="1081"/>
      <point x="358" y="1051"/>
      <point x="358" y="1014" type="curve" smooth="yes"/>
      <point x="358" y="977"/>
      <point x="388" y="947"/>
    </contour>
    <contour>
      <point x="1061" y="522" type="curve" smooth="yes"/>
      <point x="1098" y="522"/>
      <point x="1128" y="553"/>
      <point x="1128" y="589" type="curve" smooth="yes"/>
      <point x="1128" y="626"/>
      <point x="1098" y="656"/>
      <point x="1061" y="656" type="curve" smooth="yes"/>
      <point x="1025" y="656"/>
      <point x="994" y="626"/>
      <point x="994" y="589" type="curve" smooth="yes"/>
      <point x="994" y="553"/>
      <point x="1025" y="522"/>
    </contour>
    <contour>
      <point x="602" y="981" type="curve" smooth="yes"/>
      <point x="639" y="981"/>
      <point x="669" y="1012"/>
      <point x="669" y="1048" type="curve" smooth="yes"/>
      <point x="669" y="1085"/>
      <point x="639" y="1115"/>
      <point x="602" y="1115" type="curve" smooth="yes"/>
      <point x="566" y="1115"/>
      <point x="535" y="1085"/>
      <point x="535" y="1048" type="curve" smooth="yes"/>
      <point x="535" y="1012"/>
      <point x="566" y="981"/>
    </contour>
    <contour>
      <point x="1026" y="697" type="curve" smooth="yes"/>
      <point x="1063" y="697"/>
      <point x="1093" y="728"/>
      <point x="1093" y="764" type="curve" smooth="yes"/>
      <point x="1093" y="802"/>
      <point x="1063" y="831"/>
      <point x="1026" y="831" type="curve" smooth="yes"/>
      <point x="989" y="831"/>
      <point x="959" y="802"/>
      <point x="959" y="764" type="curve" smooth="yes"/>
      <point x="959" y="728"/>
      <point x="989" y="697"/>
    </contour>
    <contour>
      <point x="777" y="947" type="curve" smooth="yes"/>
      <point x="815" y="947"/>
      <point x="844" y="977"/>
      <point x="844" y="1014" type="curve" smooth="yes"/>
      <point x="844" y="1051"/>
      <point x="815" y="1081"/>
      <point x="777" y="1081" type="curve" smooth="yes"/>
      <point x="741" y="1081"/>
      <point x="710" y="1051"/>
      <point x="710" y="1014" type="curve" smooth="yes"/>
      <point x="710" y="977"/>
      <point x="741" y="947"/>
    </contour>
  </outline>
</glyph>
<glyph name="musicalnote" format="2">
  <advance width="1065"/>
  <unicode hex="266A"/>
  <outline>
    <contour>
      <point x="646" y="1111" type="line"/>
      <point x="801" y="1061"/>
      <point x="889" y="936"/>
      <point x="889" y="811" type="curve" smooth="yes"/>
      <point x="889" y="737"/>
      <point x="882" y="687"/>
      <point x="862" y="622" type="curve"/>
      <point x="946" y="590" type="line"/>
      <point x="985" y="657"/>
      <point x="1025" y="763"/>
      <point x="1025" y="872" type="curve" smooth="yes"/>
      <point x="1025" y="1031"/>
      <point x="971" y="1148"/>
      <point x="783" y="1279" type="curve" smooth="yes"/>
      <point x="680" y="1351"/>
      <point x="660" y="1369"/>
      <point x="638" y="1421" type="curve"/>
      <point x="512" y="1421" type="line"/>
      <point x="512" y="340" type="line"/>
      <point x="493" y="352"/>
      <point x="443" y="364"/>
      <point x="390" y="364" type="curve" smooth="yes"/>
      <point x="198" y="364"/>
      <point x="56" y="245"/>
      <point x="56" y="111" type="curve" smooth="yes"/>
      <point x="56" y="1"/>
      <point x="161" y="-52"/>
      <point x="272" y="-52" type="curve" smooth="yes"/>
      <point x="484" y="-52"/>
      <point x="646" y="75"/>
      <point x="646" y="316" type="curve" smooth="yes"/>
    </contour>
  </outline>
</glyph>
<glyph name="checkmark" format="2">
  <advance width="1280"/>
  <unicode hex="2713"/>
  <outline>
    <contour>
      <point x="537" y="-15" type="line"/>
      <point x="696" y="551"/>
      <point x="981" y="994"/>
      <point x="1287" y="1279" type="curve"/>
      <point x="1148" y="1404" type="line"/>
      <point x="844" y="1101"/>
      <point x="568" y="618"/>
      <point x="423" y="131" type="curve"/>
      <point x="415" y="131" type="line"/>
      <point x="350" y="309"/>
      <point x="260" y="493"/>
      <point x="150" y="662" type="curve"/>
      <point x="5" y="566" type="line"/>
      <point x="141" y="374"/>
      <point x="237" y="186"/>
      <point x="320" y="-41" type="curve"/>
    </contour>
  </outline>
</glyph>
<glyph name="fi" format="2">
  <advance width="1200"/>
  <unicode hex="FB01"/>
  <outline>
    <contour>
      <point x="192" y="0" type="line"/>
      <point x="411" y="0" type="line"/>
      <point x="411" y="828" type="line"/>
      <point x="610" y="828" type="line"/>
      <point x="610" y="1003" type="line"/>
      <point x="411" y="1003" type="line"/>
      <point x="411" y="1124" type="line"/>
      <point x="411" y="1243"/>
      <point x="455" y="1299"/>
      <point x="541" y="1299" type="curve" smooth="yes"/>
      <point x="577" y="1299"/>
      <point x="615" y="1290"/>
      <point x="651" y="1276" type="curve"/>
      <point x="695" y="1440" type="line"/>
      <point x="650" y="1457"/>
      <point x="585" y="1474"/>
      <point x="514" y="1474" type="curve" smooth="yes"/>
      <point x="287" y="1474"/>
      <point x="192" y="1329"/>
      <point x="192" y="1121" type="curve" smooth="yes"/>
      <point x="192" y="1002" type="line"/>
      <point x="56" y="992" type="line"/>
      <point x="56" y="828" type="line"/>
      <point x="192" y="828" type="line"/>
    </contour>
    <contour>
      <point x="828" y="0" type="line"/>
      <point x="1047" y="0" type="line"/>
      <point x="1047" y="1003" type="line"/>
      <point x="828" y="1003" type="line"/>
    </contour>
    <contour>
      <point x="938" y="1187" type="curve" smooth="yes"/>
      <point x="1017" y="1187"/>
      <point x="1076" y="1240"/>
      <point x="1076" y="1314" type="curve" smooth="yes"/>
      <point x="1076" y="1390"/>
      <point x="1017" y="1441"/>
      <point x="938" y="1441" type="curve" smooth="yes"/>
      <point x="859" y="1441"/>
      <point x="799" y="1390"/>
      <point x="799" y="1314" type="curve" smooth="yes"/>
      <point x="799" y="1240"/>
      <point x="859" y="1187"/>
    </contour>
  </outline>
</glyph>
<glyph name="aiMatra_reph-deva" format="2">
  <advance width="540"/>
  <anchor x="251" y="1167" name="_top"/>
  <anchor x="272" y="1600" name="candra"/>
  <outline>
    <contour>
      <point x="326" y="1260" type="line"/>
      <point x="309" y="1310"/>
      <point x="295" y="1378"/>
      <point x="295" y="1428" type="curve" smooth="yes"/>
      <point x="295" y="1521"/>
      <point x="342" y="1559"/>
      <point x="456" y="1559" type="curve" smooth="yes"/>
      <point x="539" y="1559"/>
      <point x="594" y="1539"/>
      <point x="657" y="1504" type="curve"/>
      <point x="702" y="1665" type="line"/>
      <point x="639" y="1703"/>
      <point x="555" y="1739"/>
      <point x="439" y="1739" type="curve" smooth="yes"/>
      <point x="251" y="1739"/>
      <point x="166" y="1644"/>
      <point x="166" y="1483" type="curve" smooth="yes"/>
      <point x="166" y="1422"/>
      <point x="178" y="1316"/>
      <point x="256" y="1231" type="curve"/>
    </contour>
    <component base="aiMatra-deva"/>
  </outline>
</glyph>
<glyph name="anusvara-deva.001" format="2">
  <anchor x="186" y="1287" name="_candra"/>
  <outline>
    <contour>
      <point x="424" y="1567" type="curve" smooth="yes"/>
      <point x="506" y="1567"/>
      <point x="541" y="1601"/>
      <point x="541" y="1682" type="curve" smooth="yes"/>
      <point x="541" y="1764"/>
      <point x="506" y="1798"/>
      <point x="424" y="1798" type="curve" smooth="yes"/>
      <point x="342" y="1798"/>
      <point x="307" y="1764"/>
      <point x="307" y="1682" type="curve" smooth="yes"/>
      <point x="307" y="1601"/>
      <point x="342" y="1567"/>
    </contour>
  </outline>
</glyph>
